<?xml version="1.0" standalone="no"?>
<!DOCTYPE svg PUBLIC "-//W3C//DTD SVG 20010904//EN" "http://www.w3.org/TR/2001/REC-SVG-20010904/DTD/svg10.dtd">
<!-- Created using Krita: http://krita.org -->
<svg xmlns="http://www.w3.org/2000/svg" 
    xmlns:xlink="http://www.w3.org/1999/xlink"
    xmlns:krita="http://krita.org/namespaces/svg/krita"
    xmlns:sodipodi="http://sodipodi.sourceforge.net/DTD/sodipodi-0.dtd"
    width="288pt"
    height="288pt"
    viewBox="0 0 288 288">
<defs/>
<path id="shape0" transform="translate(77.3850415512465, 62.2271468144044)" fill="#ffe7e0" fill-rule="evenodd" stroke="#0f1f30" stroke-width="2.16" stroke-linecap="square" stroke-linejoin="bevel" d="M0 0L0.797784 81.7729L0.797784 81.7729C4.48405 96.6189 -1.36223 93.5659 18.349 128.443L18.349 197.85L106.903 197.85L107.701 130.039C120.487 109.695 121.633 102.116 126.05 81.7729L126.848 0"/><path id="shape0" transform="matrix(1.00000002669695 0 0 0.999999958004137 78.9806094182825 90.1495844875346)" fill="#330801" fill-rule="evenodd" stroke="#0f1f30" stroke-width="2.16" stroke-linecap="square" stroke-linejoin="bevel" d="M0 7.10543e-15L0.797784 57.0961L0.797784 57.0961C4.3738 71.323 -1.29763 68.3973 17.8241 101.82L17.8241 168.332L103.73 168.332L104.504 103.349C116.907 83.8538 118.019 76.5908 122.304 57.0961L123.657 0"/><path id="shape1" transform="translate(78.1828254847645, 61.4293628808864)" fill="none" stroke="#330801" stroke-width="3.0456" stroke-linecap="square" stroke-linejoin="miter" stroke-miterlimit="2" d="M0 0.797784L126.05 0"/><path id="shape2" transform="translate(96.5318559556787, 73.3961218836565)" fill="#ffeee0" fill-rule="evenodd" stroke="#ffeee0" stroke-width="3.0456" stroke-linecap="square" stroke-linejoin="bevel" d="M0 70.6039L0 0L15.9557 0L15.9557 70.6039L15.9557 70.6039L23.9335 114.881L0 70.6039"/>
</svg>
