<?xml version="1.0" standalone="no"?>
<!DOCTYPE svg PUBLIC "-//W3C//DTD SVG 20010904//EN" "http://www.w3.org/TR/2001/REC-SVG-20010904/DTD/svg10.dtd">
<!-- Created using Krita: http://krita.org -->
<svg xmlns="http://www.w3.org/2000/svg" 
    xmlns:xlink="http://www.w3.org/1999/xlink"
    xmlns:krita="http://krita.org/namespaces/svg/krita"
    xmlns:sodipodi="http://sodipodi.sourceforge.net/DTD/sodipodi-0.dtd"
    width="2949.12pt"
    height="1555.2pt"
    viewBox="0 0 2949.12 1555.2">
<defs/>
<rect id="shape0" transform="matrix(1 0 0 0.999999982790638 2264.4 940.319983817692)" fill="#ef7f57" fill-rule="evenodd" stroke="#ef7f57" stroke-width="14.6088" stroke-linecap="square" stroke-linejoin="bevel" width="137.52" height="468"/><rect id="shape0" transform="translate(2276.85221052632, 1155.16496842105)" fill="#cc4937" fill-rule="evenodd" stroke="#cc4937" stroke-width="14.6088" stroke-linecap="square" stroke-linejoin="bevel" width="113.04" height="70.5599999999999"/><rect id="shape01" transform="matrix(0.999999991869669 0 0 0.999999976321549 2276.58008293526 965.447242105263)" fill="#cc4937" fill-rule="evenodd" stroke="#cc4937" stroke-width="14.6088" stroke-linecap="square" stroke-linejoin="bevel" width="113.04" height="27.2796097918684"/><rect id="shape02" transform="matrix(0.999999991869669 0 0 0.999999978755507 2276.17155281976 1340.54250690462)" fill="#cc4937" fill-rule="evenodd" stroke="#cc4937" stroke-width="14.6088" stroke-linecap="square" stroke-linejoin="bevel" width="113.04" height="27.2796097918684"/><path id="shape1" transform="translate(2259.60006158429, 949.401162400805)" fill="none" stroke="#f7b8a6" stroke-width="3.6504" stroke-linecap="square" stroke-linejoin="miter" stroke-miterlimit="2" d="M0 0.0578786L147.912 0"/><path id="shape2" transform="translate(2259.53575208334, 1010.23151934146)" fill="none" stroke="#f7b8a6" stroke-width="3.6504" stroke-linecap="square" stroke-linejoin="miter" stroke-miterlimit="2" d="M0 0.0578786L148.555 0"/><path id="shape3" transform="translate(2259.02127607581, 1326.7350155256)" fill="none" stroke="#f7b8a6" stroke-width="3.6504" stroke-linecap="square" stroke-linejoin="miter" stroke-miterlimit="2" d="M0 0L147.333 0.0578786"/><path id="shape4" transform="translate(2258.82834757299, 1384.38205216965)" fill="none" stroke="#f7b8a6" stroke-width="3.6504" stroke-linecap="square" stroke-linejoin="miter" stroke-miterlimit="2" d="M0 0.868178L148.941 0"/><rect id="shape5" transform="translate(2281.68, 1162.08)" fill="none" stroke="#f7b8a6" stroke-width="3.6504" stroke-linecap="square" stroke-linejoin="bevel" width="103.68" height="56.1599999999999" rx="6.01564766245883" ry="6.01564766245883"/><rect id="shape6" transform="translate(2270.88, 1244.88)" fill="none" stroke="#cc4937" stroke-width="3.6504" stroke-linecap="square" stroke-linejoin="bevel" width="126.213774597422" height="68.3999999999999" rx="9.44386116770835" ry="9.26624507300721"/><rect id="shape7" transform="translate(2272.07610476696, 1023.12)" fill="none" stroke="#cc4937" stroke-width="3.6504" stroke-linecap="square" stroke-linejoin="bevel" width="124.181646318225" height="115.2" rx="9.96208249173404" ry="9.35707760596279"/><text id="shape8" krita:useRichText="true" transform="translate(2299.81642105263, 1113.63722105263)" fill="#761b06" font-family="Bahnschrift SemiBold" font-size="100" font-size-adjust="0.507171" font-stretch="normal" kerning="0" letter-spacing="0" word-spacing="0"><tspan x="0">A</tspan></text><path id="shape9" transform="translate(2310.54390458019, 1251.99880083134)" fill="#761b06" fill-rule="evenodd" stroke="#761b06" stroke-width="3.6504" stroke-linecap="square" stroke-linejoin="bevel" d="M0 18.4633L1.80067 6.77179L9.83935 0L8.42454 7.98724L4.7589 13.0227L0 18.4633"/><path id="shape10" transform="translate(2295.10962435421, 1268.32055217031)" fill="#761b06" fill-rule="evenodd" stroke="#761b06" stroke-width="3.6504" stroke-linecap="square" stroke-linejoin="bevel" d="M13.9552 1.27333L3.98719 7.2927L0 18.579L7.4599 20.6626L9.4535 27.2608L0.257238 32.9908L11.3185 31.2544L6.94543 36.6371L24.1161 31.0808L50.6759 28.3026L56.721 31.3123L51.8335 37.158L61.5442 29.2287L60.7082 23.4408L65.8529 20.3154L66.7533 15.6851L61.4156 15.5115L55.7563 3.41483L42.5086 0L30.0325 6.13513L20.295 9.84257L17.7869 7.42614L13.9552 1.27333"/><path id="shape03" transform="matrix(0.938320299737083 0.345767333235764 -0.345767316811728 0.938320255166631 2318.03156315179 1256.4274694231)" fill="#761b06" fill-rule="evenodd" stroke="#761b06" stroke-width="3.6504" stroke-linecap="square" stroke-linejoin="bevel" d="M0 18.4633L1.80067 6.77179L9.83935 0L8.42454 7.98724L4.7589 13.0227L0 18.4633"/>
</svg>
