<?xml version="1.0" standalone="no"?>
<!DOCTYPE svg PUBLIC "-//W3C//DTD SVG 20010904//EN" "http://www.w3.org/TR/2001/REC-SVG-20010904/DTD/svg10.dtd">
<!-- Created using Krita: http://krita.org -->
<svg xmlns="http://www.w3.org/2000/svg" 
    xmlns:xlink="http://www.w3.org/1999/xlink"
    xmlns:krita="http://krita.org/namespaces/svg/krita"
    xmlns:sodipodi="http://sodipodi.sourceforge.net/DTD/sodipodi-0.dtd"
    width="2949.12pt"
    height="1555.2pt"
    viewBox="0 0 2949.12 1555.2">
<defs/>
<path id="shape0" transform="translate(1245.59242105263, 689.271915789474)" fill="none" stroke="#f7b8a6" stroke-width="12.24" stroke-linecap="square" stroke-linejoin="bevel" d="M0 566.379L2.86484 211.548C13.7005 186.534 28.0552 163.728 62.6173 153.596L65.3457 0L110.387 1.59158L111.32 151.878C139.003 168.634 160.957 182.833 172.163 212.162L167.411 566.62L0.272842 566.993"/><path id="shape1" transform="translate(1246.68378947368, 1039.06913684211)" fill="#accdc5" fill-rule="evenodd" stroke="#accdc5" stroke-width="0.5472" stroke-linecap="square" stroke-linejoin="bevel" d="M2.592 1.10501L0 216.337L166.161 216.705L166.434 0L2.592 1.10501"/><path id="shape2" transform="translate(1310.80168421053, 941.969178947368)" fill="#f8f0da" fill-rule="evenodd" stroke="#f8f0da" stroke-width="0.5472" stroke-linecap="square" stroke-linejoin="bevel" d="M1.77347 4.6656L0 200.744L105.317 202.831L108.182 3.56059L1.22779 0"/><rect id="shape3" transform="translate(1303.95015934199, 684)" fill="#558f81" fill-rule="evenodd" stroke="#558f81" stroke-width="0.5472" stroke-linecap="square" stroke-linejoin="bevel" width="58.2000983521457" height="93.6"/><rect id="shape4" transform="translate(1304.31190028479, 711.36)" fill="#b3301e" fill-rule="evenodd" stroke="#b3301e" stroke-width="0.5472" stroke-linecap="square" stroke-linejoin="bevel" width="57.7016997198484" height="7.20000000000005"/><rect id="shape5" transform="translate(1302.01283562612, 677.313943186441)" fill="#b3301e" fill-rule="evenodd" stroke="#b3301e" stroke-width="0.5472" stroke-linecap="square" stroke-linejoin="bevel" width="62.4525641019088" height="26.7014564715103"/><path id="shape6" transform="translate(1250.25172605576, 1235.29119248671)" fill="#558f81" fill-rule="evenodd" stroke="#558f81" stroke-width="0.5472" stroke-linecap="square" stroke-linejoin="bevel" d="M0 20.952L52.3479 16.1481L75.435 0.926057L90.9336 0L111.063 16.4954L161.996 20.3154L163.539 20.026L0 20.952"/><rect id="shape7" transform="translate(1304.1350491572, 720.72)" fill="#83c7b6" fill-rule="evenodd" stroke="#83c7b6" stroke-width="0.5472" stroke-linecap="square" stroke-linejoin="bevel" width="57.7981639712609" height="5.75999999999999"/><path id="shape8" transform="translate(1332.4614303903, 728.40939702868)" sodipodi:type="arc" sodipodi:rx="23.1007275285444" sodipodi:ry="18.1590378145354" sodipodi:cx="23.1007278141249" sodipodi:cy="18.1602581401338" sodipodi:start="1.26483886225451" sodipodi:end="5.01200439161489" sodipodi:open="true" d="M29.919 0.810204C20.4186 -1.49679 10.1062 1.23386 4.31777 7.58918C-1.47063 13.9445 -1.43613 22.4984 4.40343 28.8248C10.243 35.1511 20.5773 37.8303 30.0588 35.476" fill="#cc4937" fill-rule="evenodd" stroke="#cc4937" stroke-width="0.5472" stroke-linecap="square" stroke-linejoin="bevel"/><path id="shape9" transform="translate(1264.14568421053, 1047.90922105263)" fill="#d7f3ec" fill-rule="evenodd" stroke="#d7f3ec" stroke-width="0.5472" stroke-linecap="square" stroke-linejoin="bevel" d="M0 0L0.818526 192.026L65.7549 194.114L9.95874 186.378L0 0"/><path id="shape10" transform="translate(1345.30670460359, 964.430421424908)" sodipodi:type="arc" sodipodi:rx="55.0799999999999" sodipodi:ry="54.72" sodipodi:cx="55.0800338804046" sodipodi:cy="54.7235843378099" sodipodi:start="1.25056777382982" sodipodi:end="5.07556952850542" sodipodi:open="true" d="M74.6472 3.57288C51.9926 -4.98046 26.3722 2.18235 11.5327 21.2181C-3.30682 40.2539 -3.87837 66.6893 10.1247 86.3405C24.1278 105.992 49.4149 114.241 72.4183 106.662" fill="#ef7f57" fill-rule="evenodd" stroke="#ef7f57" stroke-width="0.5472" stroke-linecap="square" stroke-linejoin="bevel"/><path id="shape11" transform="translate(1342.71807015962, 1085.23783393968)" fill="#2c4d44" fill-rule="evenodd" stroke="#2c4d44" stroke-width="0.5472" stroke-linecap="square" stroke-linejoin="bevel" d="M0.643095 0L0 12.0387L44.6308 13.4278L44.5022 3.47271L0.643095 0"/><path id="shape12" transform="translate(1399.37474048916, 1089.69448235493)" fill="#2c4d44" fill-rule="evenodd" stroke="#2c4d44" stroke-width="0.5472" stroke-linecap="square" stroke-linejoin="bevel" d="M0 0.0578786L0.257238 8.50815L17.878 8.39239L17.878 0L0 0.0578786"/><path id="shape13" transform="translate(1363.8758959694, 1106.59501920238)" fill="#558f81" fill-rule="evenodd" stroke="#558f81" stroke-width="0.5472" stroke-linecap="square" stroke-linejoin="bevel" d="M0 0L0.192929 4.22513L53.5698 5.61422L53.6341 0.115757L0 0"/><path id="shape14" transform="translate(1355.34359062306, 973.574347259135)" sodipodi:type="arc" sodipodi:rx="45.4617305607986" sodipodi:ry="45.585220446342" sodipodi:cx="45.4617637418883" sodipodi:cy="45.5881206419902" sodipodi:start="1.20726273836246" sodipodi:end="5.12058505816755" sodipodi:open="true" d="M63.508 3.74826C44.693 -4.41112 22.7595 1.06485 9.95674 17.118C-2.84602 33.1711 -3.35073 55.83 8.72447 72.4403C20.7997 89.0506 42.4674 95.5031 61.627 88.1942" fill="none" stroke="#f7b8a6" stroke-width="5.76" stroke-linecap="square" stroke-linejoin="bevel"/><path id="shape15" transform="translate(1364.07410526316, 981.250863157894)" fill="#558f81" fill-rule="evenodd" stroke="#558f81" stroke-width="0.5472" stroke-linecap="square" stroke-linejoin="bevel" d="M45.0644 81.8117L35.1966 80.9523L27.3752 74.8133L15.7339 76.7368L4.72926 70.8435L0 63.886L11.8232 67.1192L16.1886 71.8257L18.5987 74.8952L26.6021 73.2581L20.8269 57.2968L20.8724 37.8159L8.73095 19.3172L20.4632 0L22.0093 12.769L19.2808 20.6678L22.6459 29.0986L22.464 35.0739L32.6046 20.545L44.6097 14.9381L51.1124 2.37373L55.0232 0.572968L54.432 10.4362L48.384 14.6107L47.1107 15.1018L54.0682 19.2763L53.9318 20.5859L47.6109 17.8029L35.5149 21.0771L31.9225 24.7195L39.7895 22.9597L49.4754 24.2693L53.6589 30.2445L43.9276 28.7303L37.1975 26.3975L30.8312 27.5434L24.5103 36.2607L23.0552 48.3749L22.9187 56.6829L25.6017 63.1902L31.1495 52.1811L30.7402 41.2947L33.1958 34.9101L36.8337 30.4083L38.9255 29.1805L39.6531 39.5757L38.2434 48.6205L33.9234 53.7772L31.0131 55.7416L26.0564 65.7686L29.2851 73.2172L35.5149 78.5376L45.0644 81.8117"/><path id="shape16" transform="translate(1341.15536842105, 1120.58677894737)" fill="#cc4937" fill-rule="evenodd" stroke="#cc4937" stroke-width="0.7488" stroke-linecap="square" stroke-linejoin="bevel" d="M0 0L0.181895 14.0787L74.8497 15.0609L75.2135 1.96446L0 0"/><ellipse id="shape17" transform="translate(1363.68, 1018.08)" rx="1.79999999999995" ry="2.51999999999998" cx="1.79999999999995" cy="2.51999999999998" fill="#cc4937" fill-rule="evenodd" stroke="#cc4937" stroke-width="0.7488" stroke-linecap="square" stroke-linejoin="bevel"/><ellipse id="shape18" transform="translate(1370.16, 1018.08)" rx="1.07999999999993" ry="0.360000000000014" cx="1.07999999999993" cy="0.360000000000014" fill="#cc4937" fill-rule="evenodd" stroke="#cc4937" stroke-width="0.7488" stroke-linecap="square" stroke-linejoin="bevel"/><ellipse id="shape19" transform="translate(1373.76, 1033.92)" rx="3.24000000000001" ry="3.60000000000002" cx="3.24000000000001" cy="3.60000000000002" fill="#cc4937" fill-rule="evenodd" stroke="#cc4937" stroke-width="0.7488" stroke-linecap="square" stroke-linejoin="bevel"/><ellipse id="shape20" transform="translate(1407.6, 1021.68)" rx="3.24000000000001" ry="3.60000000000002" cx="3.24000000000001" cy="3.60000000000002" fill="#cc4937" fill-rule="evenodd" stroke="#cc4937" stroke-width="0.7488" stroke-linecap="square" stroke-linejoin="bevel"/><ellipse id="shape21" transform="translate(1400.4, 1028.16)" rx="2.88" ry="2.15999999999997" cx="2.88" cy="2.15999999999997" fill="#cc4937" fill-rule="evenodd" stroke="#cc4937" stroke-width="0.7488" stroke-linecap="square" stroke-linejoin="bevel"/><ellipse id="shape22" transform="translate(1396.8, 1012.32)" rx="2.5200000000001" ry="1.44" cx="2.5200000000001" cy="1.44" fill="#cc4937" fill-rule="evenodd" stroke="#cc4937" stroke-width="0.7488" stroke-linecap="square" stroke-linejoin="bevel"/><ellipse id="shape23" transform="translate(1384.56, 991.44)" rx="2.5200000000001" ry="2.51999999999998" cx="2.5200000000001" cy="2.51999999999998" fill="#cc4937" fill-rule="evenodd" stroke="#cc4937" stroke-width="0.7488" stroke-linecap="square" stroke-linejoin="bevel"/><ellipse id="shape24" transform="translate(1406.16, 983.52)" rx="3.24000000000001" ry="3.60000000000002" cx="3.24000000000001" cy="3.60000000000002" fill="#cc4937" fill-rule="evenodd" stroke="#cc4937" stroke-width="0.7488" stroke-linecap="square" stroke-linejoin="bevel"/><ellipse id="shape25" transform="translate(1404, 993.6)" rx="1.44000000000005" ry="1.44" cx="1.44000000000005" cy="1.44" fill="#cc4937" fill-rule="evenodd" stroke="#cc4937" stroke-width="0.7488" stroke-linecap="square" stroke-linejoin="bevel"/>
</svg>
