<?xml version="1.0" standalone="no"?>
<!DOCTYPE svg PUBLIC "-//W3C//DTD SVG 20010904//EN" "http://www.w3.org/TR/2001/REC-SVG-20010904/DTD/svg10.dtd">
<!-- Created using Krita: http://krita.org -->
<svg xmlns="http://www.w3.org/2000/svg" 
    xmlns:xlink="http://www.w3.org/1999/xlink"
    xmlns:krita="http://krita.org/namespaces/svg/krita"
    xmlns:sodipodi="http://sodipodi.sourceforge.net/DTD/sodipodi-0.dtd"
    width="2949.12pt"
    height="1555.2pt"
    viewBox="0 0 2949.12 1555.2">
<defs/>
<path id="shape0" transform="translate(1605.85768421053, 676.939452631579)" fill="#738368" fill-rule="evenodd" stroke="#738368" stroke-width="0.7488" stroke-linecap="square" stroke-linejoin="bevel" d="M0 581.972L1.90989 313.577L85.9453 100.661L88.128 0L131.237 0.736674L130.964 100.661L218.274 309.157L219.638 578.289L0 581.972"/><path id="shape1" transform="translate(1618.68126315789, 693.391831578947)" fill="#2c4d44" fill-rule="evenodd" stroke="#2c4d44" stroke-width="0.7488" stroke-linecap="square" stroke-linejoin="bevel" d="M2.18274 542.929L0 313.086L86.2181 84.2082L86.7638 0L99.5874 3.43781L96.5861 84.2082L132.601 186.378L86.7638 312.104L85.6724 546.857L139.695 543.665L136.421 322.663L161.795 253.416L187.988 303.51L187.443 545.139L2.18274 542.929"/><path id="shape2" transform="translate(1643.23705263158, 836.30652631579)" fill="#accdc5" fill-rule="evenodd" stroke="#accdc5" stroke-width="0.7488" stroke-linecap="square" stroke-linejoin="bevel" d="M0 166.243L61.1166 0L60.2981 36.8337L0 166.243"/><path id="shape3" transform="translate(1626.43452631579, 1019.98837894737)" fill="#f4aa55" fill-rule="evenodd" stroke="#f4aa55" stroke-width="0.7488" stroke-linecap="square" stroke-linejoin="bevel" d="M0 0.491116L0.545684 153.228L148.563 155.438L147.198 0L0 0.491116"/><path id="shape4" transform="translate(1680.67521585787, 629.382080165196)" fill="#f4aa55" fill-rule="evenodd" stroke="#f4aa55" stroke-width="0.7488" stroke-linecap="square" stroke-linejoin="bevel" d="M6.87594 53.4553L5.92099 148.218L60.353 148.218L60.6258 51.3681L66.0827 42.7735L63.3543 15.6394L34.7914 0L6.81681 12.7912L0 42.6565L6.87594 53.4553"/><path id="shape5" transform="translate(1634.50610526316, 1184.19536842105)" fill="#cc4937" fill-rule="evenodd" stroke="#cc4937" stroke-width="0.7488" stroke-linecap="square" stroke-linejoin="bevel" d="M0.454737 0L0 19.2354L131.601 20.8724L131.328 3.27411L0.454737 0"/><path id="shape6" transform="translate(1715.63115789474, 777.6)" fill="#ffe678" fill-rule="evenodd" stroke="#ffe678" stroke-width="0.7488" stroke-linecap="square" stroke-linejoin="bevel" d="M2.91032 0L0 0L2.91032 0"/><path id="shape7" transform="translate(1715.08547368421, 680.477305263158)" fill="#ffe678" fill-rule="evenodd" stroke="#ffe678" stroke-width="0.7488" stroke-linecap="square" stroke-linejoin="bevel" d="M0 0L0.454737 97.1227L14.9154 97.1227L0 0"/><path id="shape8" transform="translate(1719.54189473684, 635.2128)" fill="#ffe678" fill-rule="evenodd" stroke="#ffe678" stroke-width="0.7488" stroke-linecap="square" stroke-linejoin="bevel" d="M4.00168 41.8267L13.5512 41.4174L15.2792 26.2747L12.2779 10.1497L0 0L7.54863 14.8153L4.00168 41.8267"/><path id="shape9" transform="translate(1693.69788979854, 638.327531746172)" fill="none" stroke="#cc4937" stroke-width="0.7488" stroke-linecap="square" stroke-linejoin="miter" stroke-miterlimit="2" d="M0 0L0.257238 0"/><path id="shape10" transform="translate(1693.69788979854, 639.600859864816)" fill="none" stroke="#cc4937" stroke-width="0.7488" stroke-linecap="square" stroke-linejoin="miter" stroke-miterlimit="2" d="M0 0L26.3026 39.5311"/><path id="shape11" transform="translate(1719.55030917706, 679.363424297005)" fill="none" stroke="#cc4937" stroke-width="0.7488" stroke-linecap="square" stroke-linejoin="miter" stroke-miterlimit="2" d="M0 0L23.6016 114.079"/><path id="shape12" transform="translate(1707.46012300004, 637.92238189024)" fill="none" stroke="#cc4937" stroke-width="0.7488" stroke-linecap="square" stroke-linejoin="miter" stroke-miterlimit="2" d="M28.682 0L0 41.2674"/><path id="shape13" transform="translate(1685.65920218084, 679.594938500395)" fill="none" stroke="#cc4937" stroke-width="0.7488" stroke-linecap="square" stroke-linejoin="miter" stroke-miterlimit="2" d="M20.7077 0L0 113.558"/><path id="shape14" transform="translate(1682.31510813188, 659.916231212266)" fill="none" stroke="#cc4937" stroke-width="0.7488" stroke-linecap="square" stroke-linejoin="miter" stroke-miterlimit="2" d="M0 0L15.4343 21.3572"/><path id="shape15" transform="translate(1697.4921503541, 681.504930678361)" fill="none" stroke="#cc4937" stroke-width="0.7488" stroke-linecap="square" stroke-linejoin="miter" stroke-miterlimit="2" d="M0 0L19.4858 112.69"/><path id="shape16" transform="translate(1729.83982932772, 660.263502517351)" fill="none" stroke="#cc4937" stroke-width="0.7488" stroke-linecap="square" stroke-linejoin="miter" stroke-miterlimit="2" d="M14.6626 0L0 19.6787"/><path id="shape17" transform="translate(1712.3476450716, 680.173724008869)" fill="none" stroke="#cc4937" stroke-width="0.7488" stroke-linecap="square" stroke-linejoin="miter" stroke-miterlimit="2" d="M18.3925 0L0 116.452"/><path id="shape18" transform="translate(1686.62384469497, 707.550278559708)" fill="none" stroke="#cc4937" stroke-width="0.7488" stroke-linecap="square" stroke-linejoin="miter" stroke-miterlimit="2" d="M0 0L14.8555 85.6603"/><path id="shape19" transform="translate(1727.91054429947, 708.939363780046)" fill="none" stroke="#cc4937" stroke-width="0.7488" stroke-linecap="square" stroke-linejoin="miter" stroke-miterlimit="2" d="M13.9552 0L0 83.9818"/><path id="shape20" transform="translate(1686.68815419591, 777.6)" fill="none" stroke="#cc4937" stroke-width="3.0456" stroke-linecap="square" stroke-linejoin="miter" stroke-miterlimit="2" d="M0 0L52.9267 0"/><path id="shape21" transform="translate(1633.93010526316, 1043.55435789474)" fill="#558f81" fill-rule="evenodd" stroke="#558f81" stroke-width="3.0456" stroke-linecap="square" stroke-linejoin="bevel" d="M1.45516 0L0 24.7195L131.328 26.1928L128.236 4.91116L1.45516 0"/><path id="shape22" transform="translate(1660.12294736842, 1088.4096)" fill="#2c4d44" fill-rule="evenodd" stroke="#2c4d44" stroke-width="3.0456" stroke-linecap="square" stroke-linejoin="bevel" d="M0 0L2.36463 9.82232L68.7562 14.4061L66.0278 4.91116L0 0"/><ellipse id="shape23" transform="translate(1673.62863157895, 1114.74492631579)" rx="18.72" ry="19.8000000000001" cx="18.72" cy="19.8000000000001" fill="#cc4937" fill-rule="evenodd" stroke="#cc4937" stroke-width="3.0456" stroke-linecap="square" stroke-linejoin="bevel"/><path id="shape24" transform="translate(1718.99621052632, 1024.17347368421)" fill="#ffe678" fill-rule="evenodd" stroke="#ffe678" stroke-width="0.7488" stroke-linecap="square" stroke-linejoin="bevel" d="M0 1.22779L0 146.598L29.6488 145.534L28.1027 0L0 1.22779"/>
</svg>
