<?xml version="1.0" standalone="no"?>
<!DOCTYPE svg PUBLIC "-//W3C//DTD SVG 20010904//EN" "http://www.w3.org/TR/2001/REC-SVG-20010904/DTD/svg10.dtd">
<!-- Created using Krita: http://krita.org -->
<svg xmlns="http://www.w3.org/2000/svg" 
    xmlns:xlink="http://www.w3.org/1999/xlink"
    xmlns:krita="http://krita.org/namespaces/svg/krita"
    xmlns:sodipodi="http://sodipodi.sourceforge.net/DTD/sodipodi-0.dtd"
    width="2949.12pt"
    height="1555.2pt"
    viewBox="0 0 2949.12 1555.2">
<defs/>
<path id="shape0" transform="translate(-81.8526315789474, 396.985263157895)" fill="#61574b" fill-opacity="0.564705882352941" fill-rule="evenodd" stroke="#000000" stroke-opacity="0" stroke-width="0" stroke-linecap="square" stroke-linejoin="bevel" d="M452.918 1158.21L278.845 1158.21L137.785 1051.72L81.8526 1052.46L137.512 981.249L81.8526 954.238L81.8526 749.197L81.8526 927.472L169.435 923.789L190.444 773.262L179.257 698.612L81.8526 649.501L81.8526 672.092L81.8526 667.917L81.8526 526.231L142.151 622.244L189.08 651.711L178.166 547.349L193.718 475.4L209.816 438.566L179.53 380.615L121.96 380.615L81.8526 337.888L0 296.388L33.5596 225.177L81.8526 280.918L161.25 333.222L143.788 192.763L81.8526 146.353L126.872 46.9016L152.246 0L180.894 27.2569L247.195 84.4719L308.857 179.012L361.243 263.729L388.254 321.926L323.591 380.615L308.039 380.615L283.756 471.962L320.589 431.691L422.087 309.649L491.389 270.605L585.519 285.338L611.712 322.172L552.778 380.615L480.202 431.691L401.078 490.625L324.682 576.57L279.663 625.927L241.192 646.799L229.187 673.32L224.822 738.147L219.911 777.436L220.184 811.814L221.002 830.722L215.818 866.083L216.091 891.375L230.552 903.407L386.89 925.999L478.838 1003.1L524.403 1113.36L452.918 1158.21"/><path id="shape1" transform="translate(149.04, 1174.41164323178)" fill="#558f81" fill-rule="evenodd" stroke="#558f81" stroke-width="5.0904" stroke-linecap="square" stroke-linejoin="bevel" d="M0 67.5247L2.18274 212.772L14.4606 256.481L42.9726 299.945L69.5747 334.692L103.407 348.688L149.79 355.073L215.756 347.599C221.604 343.608 232.776 333.934 270.25 291.228L296.579 253.903L302.582 222.472L307.22 144.507L310.767 56.9657L310.904 43.3372C304.108 36.6107 296.319 29.7809 272.024 21.237C252.228 14.1136 235.16 5.98634 200.948 4.17076C168.328 2.7235 147.227 -2.94442 97.2682 1.96074C79.8138 4.57039 64.1012 5.74522 36.9701 16.3259C22.6516 23.0301 9.95235 30.8138 0.254506 40.5985L0 67.5247"/><path id="shape2" transform="translate(189.185684210526, 1240.57364210526)" fill="#8bcbbb" fill-rule="evenodd" stroke="#8bcbbb" stroke-width="5.0904" stroke-linecap="square" stroke-linejoin="bevel" d="M0 0L0.454737 185.805L8.09432 220.92L25.2834 248.75L34.9238 267.822L53.1133 274.37L46.4741 221.002L43.3819 183.268L52.3857 88.892L58.0244 9.24935L23.8282 2.78299L0 0"/><path id="shape3" transform="translate(183.365052631579, 1189.41574736842)" fill="#407165" fill-rule="evenodd" stroke="#407165" stroke-width="5.0904" stroke-linecap="square" stroke-linejoin="bevel" d="M0 19.0899L27.2842 8.67638L71.7575 0L146.698 0.409263L185.305 5.37954L234.826 19.7265L242.829 24.0647L246.649 28.4847L231.461 36.5881L200.357 31.4314L163.796 24.0647L106.818 20.8088L54.7503 26.3565L35.8787 32.1044L30.0581 37.343L12.0051 27.889L0.272842 19.3354"/><path id="shape4" transform="translate(209.938365823845, 1212.5813640542)" fill="#612a03" fill-rule="evenodd" stroke="#612a03" stroke-width="5.0904" stroke-linecap="square" stroke-linejoin="bevel" d="M0 13.833L5.72355 7.8136L42.5086 7.2927L81.2872 0L122.124 0.752421L156.979 6.07725L187.141 11.2863L198.266 15.1642L164.504 21.9938L107.911 27.4923L67.4607 27.2608L41.4153 27.8975L32.8622 26.7399L0 13.833"/><path id="shape5" transform="translate(231.688421052632, 477.746526315789)" fill="#3c7547" fill-rule="evenodd" stroke="#3c7547" stroke-width="5.0904" stroke-linecap="square" stroke-linejoin="bevel" d="M57.8425 734.464L61.9352 603.336L56.7512 513.707L25.3743 299.853L0 130.391L14.4606 0L33.0139 5.15672L19.6446 64.0906L10.9137 130.882L25.92 218.547L62.7537 441.513L96.8589 573.378L80.4884 719.73L57.8425 734.464"/><path id="shape6" transform="translate(281.61852631579, 777.6)" fill="#3c7547" fill-rule="evenodd" stroke="#3c7547" stroke-width="5.0904" stroke-linecap="square" stroke-linejoin="bevel" d="M0 87.8824L100.952 0L149.245 0L267.931 90.338L275.298 115.267L267.658 114.039L262.201 98.0776L148.699 0L93.4484 22.323L6.68463 116.74L0 87.8824"/><path id="shape7" transform="translate(44.1094736842106, 861.066947368421)" fill="#3c7547" fill-rule="evenodd" stroke="#3c7547" stroke-width="5.0904" stroke-linecap="square" stroke-linejoin="bevel" d="M254.152 157.157L136.148 47.1471L35.7423 14.3651L7.50316 56.2328L7.36674 110.624L2.592 98.3459L0 51.9355L26.0564 0L81.4434 11.4184L148.972 35.8515L205.177 94.9081L254.152 157.157"/><path id="shape8" transform="translate(81.8981052631579, 690.863494736842)" fill="#3c7547" fill-rule="evenodd" stroke="#3c7547" stroke-width="5.0904" stroke-linecap="square" stroke-linejoin="bevel" d="M194.946 234.753L172.163 183.309L166.843 130.514L94.2669 59.3022L39.9714 19.1535L0 0L18.144 0.982232L51.5672 16.9435L88.6737 43.4637L126.189 86.7365L179.803 133.829L194.946 165.629L194.946 234.753"/><path id="shape9" transform="translate(32.594198727233, 741.057672200311)" fill="#3c7547" fill-rule="evenodd" stroke="#3c7547" stroke-width="5.0904" stroke-linecap="square" stroke-linejoin="bevel" d="M136.593 2.77817L53.6984 0L23.9874 17.5372L11.4471 36.5423L3.53702 56.7789L0 70.7855L4.50167 68.5861L18.5211 36.5423L32.9265 20.026L65.1455 9.37633L121.03 13.0227L157.301 22.6305L136.593 2.77817"/><path id="shape10" transform="translate(474.570947368421, 815.503831578947)" fill="#445d49" fill-rule="evenodd" stroke="#445d49" stroke-width="5.0904" stroke-linecap="square" stroke-linejoin="bevel" d="M4.36547 0L10.3225 37.6931L9.41305 81.3615L0 123.761L13.0055 90.529L18.3714 46.656L15.0973 22.796L4.36547 0"/><path id="shape11" transform="translate(491.669052631579, 824.466694736842)" fill="#445d49" fill-rule="evenodd" stroke="#445d49" stroke-width="5.0904" stroke-linecap="square" stroke-linejoin="bevel" d="M2.68295 5.97524L11.7322 31.3086L14.8699 80.9523L11.7322 121.756L12.96 126.503L16.0522 120.651L19.008 103.012L22.4185 58.7702L20.6451 29.1805L12.0505 12.2779L0 0L2.68295 5.97524"/><path id="shape12" transform="translate(516.497684210526, 849.841010526316)" fill="#445d49" fill-rule="evenodd" stroke="#445d49" stroke-width="5.0904" stroke-linecap="square" stroke-linejoin="bevel" d="M0 1.02316L0.500211 0L6.50274 38.1843L17.3255 74.977L11.6867 104.485L12.0051 111.565L16.4615 107.309L26.6021 80.8704L30.4674 64.0497L17.4619 45.1417L13.4147 17.3528L9.59495 5.81154L0 1.02316"/><path id="shape13" transform="translate(535.050947368421, 867.402947368421)" fill="#445d49" fill-rule="evenodd" stroke="#445d49" stroke-width="5.0904" stroke-linecap="square" stroke-linejoin="bevel" d="M0 0L6.22989 41.2947L9.504 64.7454L6.18442 90.3653L13.2783 71.6211L15.2792 55.8644L11.1865 32.209L5.86611 5.68876L0 0"/><path id="shape14" transform="translate(552.694736842105, 882.21827368421)" fill="#445d49" fill-rule="evenodd" stroke="#445d49" stroke-width="5.0904" stroke-linecap="square" stroke-linejoin="bevel" d="M0 0L3.59242 30.4492L5.63874 54.6776L2.91032 64.7864L10.5044 54.7185L10.0497 36.5881L8.09432 11.3366L0 0"/><path id="shape15" transform="translate(556.014315789474, 874.278568421052)" fill="#445d49" fill-rule="evenodd" stroke="#445d49" stroke-width="5.0904" stroke-linecap="square" stroke-linejoin="bevel" d="M0 0L19.0535 22.8369L25.2834 45.8784L24.0556 55.3324L21.1453 52.1401L22.3731 43.3819L18.0531 31.2268L10.8227 21.4045L3.18316 17.1481L0 0"/><path id="shape16" transform="translate(423.504, 813.525726315789)" fill="#445d49" fill-rule="evenodd" stroke="#445d49" stroke-width="5.0904" stroke-linecap="square" stroke-linejoin="bevel" d="M47.4291 0L27.8754 12.6053L11.8232 39.2893L2.00084 72.3987L0 94.8672L3.09221 93.9259L8.68547 69.4929L23.1006 36.5063L37.5613 13.0146L50.4758 5.89339L47.4291 0"/><path id="shape17" transform="translate(436.145684210526, 825.967326315789)" fill="#445d49" fill-rule="evenodd" stroke="#445d49" stroke-width="5.0904" stroke-linecap="square" stroke-linejoin="bevel" d="M44.7916 0L17.1891 22.0184L11.3229 52.9177L0 83.858L5.27495 98.7552L6.63916 94.8263L3.91074 80.7885L18.6442 51.1988L23.1461 25.0878L44.8825 7.89878L44.7916 0"/><path id="shape18" transform="translate(458.154947368421, 831.860715789473)" fill="#445d49" fill-rule="evenodd" stroke="#445d49" stroke-width="5.0904" stroke-linecap="square" stroke-linejoin="bevel" d="M30.1491 0L10.9137 29.9581L4.09263 55.0459L0 94.8263L6.00253 118.768L11.1411 122.738L7.68505 109.887L5.68421 95.7267L5.27495 81.6889L9.23116 67.9377L13.1419 52.5085L16.0522 39.9032L20.736 29.9171L25.7381 19.7265L30.1491 5.64783L30.1491 0"/><path id="shape19" transform="translate(480.618947368421, 839.595789473684)" fill="#445d49" fill-rule="evenodd" stroke="#445d49" stroke-width="5.0904" stroke-linecap="square" stroke-linejoin="bevel" d="M15.552 1.84168L5.50232 32.3318L0 71.3755L1.50063 103.38L6.41179 112.425L9.77684 105.426L5.86611 86.7229L11.5503 48.9888L21.0543 18.1713L24.7377 7.36674L19.872 0L15.552 1.84168"/><path id="shape20" transform="translate(501.036631578947, 858.994863157895)" fill="#445d49" fill-rule="evenodd" stroke="#445d49" stroke-width="5.0904" stroke-linecap="square" stroke-linejoin="bevel" d="M16.9162 0L5.45684 27.0114L0 50.5849L1.09137 70.8844L3.63789 80.2974L7.41221 56.2328L10.0042 38.307L15.1427 25.3743L17.7347 7.93971L16.9162 0"/><path id="shape21" transform="translate(517.952842105263, 856.375578947368)" fill="#445d49" fill-rule="evenodd" stroke="#445d49" stroke-width="5.0904" stroke-linecap="square" stroke-linejoin="bevel" d="M2.41011 0L15.552 8.92194L13.0055 24.0237L1.90989 53.4498L0 77.1461L0.954947 94.0896L3.36505 95.9722L2.72842 85.8225L1.81895 67.6921L5.59326 53.4907L14.9608 37.202L20.5541 26.0291L21.9183 14.7744L19.5082 11.7049L2.41011 0"/><path id="shape22" transform="translate(439.056, 805.690610526315)" fill="#445d49" fill-rule="evenodd" stroke="#445d49" stroke-width="5.0904" stroke-linecap="square" stroke-linejoin="bevel" d="M25.2834 0L28.512 27.216L21.4181 56.5602L11.0501 82.5484L0 95.6857L12.5053 92.6163L25.8291 68.0605L34.4691 36.7518L32.3318 17.1072L25.2834 0"/><path id="shape23" transform="translate(426.550736842105, 796.564042105263)" fill="#445d49" fill-rule="evenodd" stroke="#445d49" stroke-width="5.0904" stroke-linecap="square" stroke-linejoin="bevel" d="M27.1023 0L25.5107 22.3867L18.5533 43.6275L8.00337 67.6921L0 78.7013L13.0509 68.4697L26.8749 39.9032L31.5133 18.3759L27.1023 0"/><path id="shape24" transform="translate(413.136, 787.028210526316)" fill="#445d49" fill-rule="evenodd" stroke="#445d49" stroke-width="5.0904" stroke-linecap="square" stroke-linejoin="bevel" d="M26.1474 0L24.2375 18.0076L14.0968 46.7788L2.13726 72.5624L0 85.2904L8.54905 63.7223L21.4636 40.1078L26.6931 21.3226L26.1474 0"/><path id="shape25" transform="translate(398.720842105263, 777.6)" fill="#445d49" fill-rule="evenodd" stroke="#445d49" stroke-width="5.0904" stroke-linecap="square" stroke-linejoin="bevel" d="M30.7402 0L17.5528 29.9732L0.864 47.2851L0 52.4418L20.2813 36.8488L29.9672 18.964L30.7402 0"/><path id="shape26" transform="translate(403.859368421053, 777.6)" fill="#445d49" fill-rule="evenodd" stroke="#445d49" stroke-width="5.0904" stroke-linecap="square" stroke-linejoin="bevel" d="M14.5971 0L0.272842 24.4891L0 43.7245L3.91074 32.5925L5.04758 20.8876L14.5971 0"/><path id="shape27" transform="translate(417.728842105263, 777.6)" fill="#445d49" fill-rule="evenodd" stroke="#445d49" stroke-width="5.0904" stroke-linecap="square" stroke-linejoin="bevel" d="M17.4619 0L12.0505 17.2451L0 62.1413L3.09221 80.1489L6.86653 93.6136L7.13937 80.4354L6.048 63.0826L8.95832 40.3685L17.4619 0"/><path id="shape28" transform="translate(303.718736842105, 678.617431578947)" fill="#3c7547" fill-rule="evenodd" stroke="#3c7547" stroke-width="5.0904" stroke-linecap="square" stroke-linejoin="bevel" d="M16.5069 532.124L27.9663 414.625L38.6072 330.398L66.9827 233.771L122.233 147.089L194.809 98.9826L268.613 22.7141L282.801 0L266.021 5.03394L250.06 24.433L219.774 59.6706L181.44 98.9826L148.563 98.9826L95.3583 153.228L44.3368 238.805L26.4657 318.734L9.00379 362.812L0 527.336L16.5069 532.124"/><path id="shape29" transform="translate(290.849684210526, 1171.88261052632)" fill="#7d512b" fill-rule="evenodd" stroke="#7d512b" stroke-width="5.0904" stroke-linecap="square" stroke-linejoin="bevel" d="M7.18484 0L0 20.2585L6.09347 37.2429L16.2341 27.1751L11.232 10.3544L7.18484 0"/><path id="shape30" transform="translate(303.764210526316, 1168.07646315789)" fill="#7d512b" fill-rule="evenodd" stroke="#7d512b" stroke-width="5.0904" stroke-linecap="square" stroke-linejoin="bevel" d="M8.95832 0L0 22.5095L6.73011 38.3889L16.9162 39.3302L13.0964 21.4045L8.95832 0"/><path id="shape31" transform="translate(317.906526315789, 1168.03553684211)" fill="#7d512b" fill-rule="evenodd" stroke="#7d512b" stroke-width="5.0904" stroke-linecap="square" stroke-linejoin="bevel" d="M6.41179 0L0 21.4454L11.5048 37.0383L20.5996 35.6059L14.8244 21.8956L6.41179 0"/><path id="shape32" transform="translate(269.795368421053, 1191.44538947368)" fill="#7d512b" fill-rule="evenodd" stroke="#7d512b" stroke-width="5.0904" stroke-linecap="square" stroke-linejoin="bevel" d="M12.8691 7.81693L2.63747 22.9597L12.8236 24.7195L0 39.453L16.9617 41.8676L24.8286 41.2128L39.8804 47.0653L48.6114 39.9032L69.4383 49.2344L74.4404 44.8143L65.8914 33.9279L65.8914 27.5434L74.4404 30.2036L75.8046 25.006L65.3002 13.1373L58.7975 0L12.8691 7.81693"/><path id="shape33" transform="translate(152.367157894737, 1213.13027368421)" fill="#8bcbbb" fill-rule="evenodd" stroke="#8bcbbb" stroke-width="5.0904" stroke-linecap="square" stroke-linejoin="bevel" d="M11.2623 0L0 6.15865L59.1158 34.1523L144.788 37.2627L236.645 34.4797L274.661 23.8388L252.834 17.618L221.184 24.1662L161.886 30.5507L92.0387 29.8959L55.296 17.9454L33.1048 3.86678L11.5352 0.163705"/><path id="shape34" transform="translate(278.844631578947, 1167.70812631579)" fill="#7d512b" fill-rule="evenodd" stroke="#000000" stroke-opacity="0" stroke-width="0" stroke-linecap="square" stroke-linejoin="bevel" d="M9.91326 0L5.00211 23.1643L0 31.5951L11.5958 31.7997L15.6884 18.3759L9.91326 0"/><path id="shape35" transform="translate(297.943578947368, 1160.30046315789)" fill="#737939" fill-rule="evenodd" stroke="#737939" stroke-width="5.0904" stroke-linecap="square" stroke-linejoin="bevel" d="M2.45558 0L0 19.6856L6.86653 32.2909L12.1415 23.5736L2.45558 0"/><path id="shape36" transform="translate(312.949894736842, 1155.2256)" fill="#737939" fill-rule="evenodd" stroke="#737939" stroke-width="5.0904" stroke-linecap="square" stroke-linejoin="bevel" d="M6.77558 0L0 22.6732L4.95663 32.4136L14.7789 33.2731L10.4589 26.5612L6.77558 0"/><path id="shape37" transform="translate(274.706526315789, 1156.61709473684)" fill="#737939" fill-rule="evenodd" stroke="#737939" stroke-width="5.0904" stroke-linecap="square" stroke-linejoin="bevel" d="M13.7331 0L7.23032 18.0076L1.50063 24.0237L0 32.0044L10.7773 30.9403L16.5069 18.2122L13.7331 0"/><path id="shape38" transform="translate(289.712842105263, 1132.34778947368)" fill="#737939" fill-rule="evenodd" stroke="#737939" stroke-width="5.0904" stroke-linecap="square" stroke-linejoin="bevel" d="M8.68547 0L0 32.3318L7.00295 36.7518L8.68547 0"/><path id="shape39" transform="translate(313.040842105263, 1115.32244210526)" fill="#737939" fill-rule="evenodd" stroke="#737939" stroke-width="5.0904" stroke-linecap="square" stroke-linejoin="bevel" d="M5.36589 0L0 26.643L3.50147 26.5612L5.36589 0"/><path id="shape40" transform="translate(278.298947368421, 1207.16109473684)" fill="#69513b" fill-rule="evenodd" stroke="#69513b" stroke-width="5.0904" stroke-linecap="square" stroke-linejoin="bevel" d="M8.95832 0L0 13.1373L4.13811 21.5682L14.5061 8.02156L8.95832 0"/><path id="shape41" transform="translate(311.494736842105, 1198.07545263158)" fill="#69513b" fill-rule="evenodd" stroke="#69513b" stroke-width="5.0904" stroke-linecap="square" stroke-linejoin="bevel" d="M0 0L0.181895 17.4755L6.912 20.545L0 0"/><path id="shape42" transform="translate(331.275789473684, 1197.70711578947)" fill="#69513b" fill-rule="evenodd" stroke="#69513b" stroke-width="5.0904" stroke-linecap="square" stroke-linejoin="bevel" d="M0 0L6.27537 13.0555L17.6893 15.4292L0 0"/><path id="shape43" transform="translate(274.979368421053, 1169.26332631579)" fill="#69513b" fill-rule="evenodd" stroke="#69513b" stroke-width="5.0904" stroke-linecap="square" stroke-linejoin="bevel" d="M11.5048 4.99301L0 25.6199L10.0042 30.4492L16.1886 3.27411L14.3697 0L11.5048 4.99301"/><path id="shape44" transform="translate(309.312, 1170.90037894737)" fill="#69513b" fill-rule="evenodd" stroke="#69513b" stroke-width="5.0904" stroke-linecap="square" stroke-linejoin="bevel" d="M1.36421 0L0 18.2941L8.00337 29.5079L1.36421 0"/><path id="shape45" transform="translate(294.305684210526, 1148.18627368421)" fill="#69513b" fill-rule="evenodd" stroke="#69513b" stroke-width="5.0904" stroke-linecap="square" stroke-linejoin="bevel" d="M4.41095 0L0 20.0539L3.04674 19.6037L4.41095 0"/><path id="shape46" transform="translate(321.226105263158, 1130.87444210526)" fill="#69513b" fill-rule="evenodd" stroke="#69513b" stroke-width="5.0904" stroke-linecap="square" stroke-linejoin="bevel" d="M0 0L0.136421 12.4007L2.41011 7.24396L0 0"/><path id="shape47" transform="translate(492.570947368421, 777.6)" fill="#3c7547" fill-rule="evenodd" stroke="#3c7547" stroke-width="5.0904" stroke-linecap="square" stroke-linejoin="bevel" d="M0 0L22.7368 0L42.9272 22.1336L61.0257 59.1309L71.9394 83.1956L70.1204 64.8606L52.0219 29.5003L40.1078 0L0 0"/><path id="shape48" transform="translate(505.394526315789, 756.024252631579)" fill="#3c7547" fill-rule="evenodd" stroke="#3c7547" stroke-width="5.0904" stroke-linecap="square" stroke-linejoin="bevel" d="M0 21.5757L22.7368 2.70114L57.5697 21.5757L72.9398 76.6141L77.3053 124.089L79.488 100.188L72.3941 52.9587L62.3899 21.5757L37.5613 0L10.5499 0.245558L0 21.5757"/><path id="shape49" transform="translate(533.13347368421, 739.57187368421)" fill="#3c7547" fill-rule="evenodd" stroke="#3c7547" stroke-width="5.0904" stroke-linecap="square" stroke-linejoin="bevel" d="M0 3.92893L35.2876 0L59.5705 38.0281L48.384 83.6534L39.0164 118.932L42.2905 90.529L51.4762 38.0281L46.9288 38.0281L32.9229 7.03933L0 3.92893"/><path id="shape50" transform="translate(482.832, 777.6)" fill="#3c7547" fill-rule="evenodd" stroke="#3c7547" stroke-width="5.0904" stroke-linecap="square" stroke-linejoin="bevel" d="M0 0L16.0977 20.498L24.5103 38.7102L29.4215 62.3247L31.2404 82.0103L35.9697 96.7028L33.7869 73.7432L33.4686 43.6623L26.1928 25.4092L6.912 0L0 0"/><path id="shape51" transform="translate(549.587368421052, 716.321178947368)" fill="#3c7547" fill-rule="evenodd" stroke="#3c7547" stroke-width="5.0904" stroke-linecap="square" stroke-linejoin="bevel" d="M0 4.99301L35.2421 0L54.8867 14.1605L68.0286 40.1078L74.8497 73.0944L79.488 99.9011L78.6695 123.393L75.1225 127.117L74.5768 112.425L75.168 96.9544L69.5747 69.984L65.3457 46.2877L58.7065 30.7357L48.7933 16.7389L28.6484 5.77061L0 4.99301"/><path id="shape52" transform="translate(537.764210526316, 722.501052631579)" fill="#3c7547" fill-rule="evenodd" stroke="#3c7547" stroke-width="5.0904" stroke-linecap="square" stroke-linejoin="bevel" d="M0 11.5003L41.8358 0L64.7545 7.36674L85.9907 26.2338L98.1777 43.3819L108.318 55.0989L113.821 67.6512L117.14 79.3971L112.138 75.5091L111.229 74.5677L109 65.8914L100.179 55.0989L92.5844 44.3232L83.2168 34.992L78.3057 31.9635L69.0745 23.9828L59.0703 20.4222L56.9331 18.6624L46.8834 13.9149L36.5154 10.1907L24.5103 8.5536L15.9158 10.2316L7.776 10.5999L0 11.5003"/><path id="shape53" transform="translate(444.088421052631, 721.764378947368)" fill="#3c7547" fill-rule="evenodd" stroke="#3c7547" stroke-width="5.0904" stroke-linecap="square" stroke-linejoin="bevel" d="M95.5402 10.9683L76.2139 0L60.5255 0.286484L44.1549 2.00539L32.4227 9.29027L23.6008 18.9898L14.4152 29.0168L6.13895 37.8978L3.31958 46.1649L0 55.8356L0.136421 55.8356L2.31916 55.8356L5.91158 46.656L8.77642 38.1024L13.6421 32.4546L22.464 26.0291L31.8316 17.2709L44.928 8.10341L67.7558 6.46636L80.1701 10.1907L88.5373 12.3188L95.5402 10.9683"/><path id="shape54" transform="translate(448.863157894737, 717.794526315789)" fill="#3c7547" fill-rule="evenodd" stroke="#3c7547" stroke-width="5.0904" stroke-linecap="square" stroke-linejoin="bevel" d="M71.3482 27.5025L58.4792 13.5466L48.6114 4.09263L36.6973 0L23.0097 3.64244L8.36716 13.3829L1.86442 20.5859L0.0454737 29.999L0 35.7696L0.136421 45.5919L1.13684 59.8055L4.41095 59.8055L8.59453 59.8055L6.27537 47.0653L5.54779 35.1966L8.41263 25.4152L26.8749 12.4007L39.0164 11.4184L52.8859 14.0787L64.8909 25.9473L71.3482 27.5025"/><path id="shape55" transform="translate(451.182315789474, 747.670736842105)" fill="#3c7547" fill-rule="evenodd" stroke="#3c7547" stroke-width="5.0904" stroke-linecap="square" stroke-linejoin="bevel" d="M54.7503 9.78139L41.5629 2.90577L32.1954 0L17.4619 1.5552L4.04716 9.3312L0 14.6107L3.00126 12.8509L11.3229 8.84008L26.3293 6.34358L37.2884 6.83469L47.2926 10.2316L54.7503 9.78139"/><path id="shape56" transform="translate(461.459368421052, 764.000336842105)" fill="#3c7547" fill-rule="evenodd" stroke="#3c7547" stroke-width="5.0904" stroke-linecap="square" stroke-linejoin="bevel" d="M29.1486 13.5997L20.5086 4.05171L10.9592 0L1.40968 13.5997L0 38.1433L5.04758 73.2172L9.73137 80.2974L12.96 84.3491L12.096 76.2867L8.18526 59.7115L7.32126 49.1934L7.41221 34.6646L8.00337 25.3334L9.73137 13.5997L13.4147 5.23857L19.5537 5.19764L29.1486 13.5997"/><path id="shape57" transform="translate(510.343578947368, 694.998568421052)" fill="#3c7547" fill-rule="evenodd" stroke="#3c7547" stroke-width="5.0904" stroke-linecap="square" stroke-linejoin="bevel" d="M27.5116 21.2817L21.6 9.74046L15.0518 9.16749L9.09474 27.2979L6.77558 43.3819L5.63874 61.7169L5.86611 82.6014L6.63916 93.885L6.18442 100.065L2.45558 99.1645L0.909474 82.6014L0 72.767L0.545684 58.5656L2.592 36.2198L7.13937 22.9597L10.5954 12.769L14.7789 3.84707L18.0985 1.71891L20.0539 0L23.3735 1.02316L27.9208 8.67638L29.8762 14.6516L27.5116 21.2817"/><path id="shape58" transform="translate(524.485894736842, 692.665768421052)" fill="#3c7547" fill-rule="evenodd" stroke="#3c7547" stroke-width="5.0904" stroke-linecap="square" stroke-linejoin="bevel" d="M28.3756 15.0609L23.0097 0L18.7352 2.04632L11.5958 12.7281L5.63874 25.2515L3.00126 38.1433L2.04632 58.7293L0 71.5392L0.0454737 84.9342L0.591158 84.9342L2.68295 84.9342L3.22863 74.2403L4.00168 61.3895L5.86611 51.9764L7.73053 39.0028L9.54947 29.2623L12.0051 19.2354L14.9608 12.3597L19.4627 5.07486L21.7364 3.92893L22.9187 8.63545L24.4194 11.7459L28.3756 15.0609"/><path id="shape59" transform="translate(578.690526315789, 662.625852631579)" fill="#3c7547" fill-rule="evenodd" stroke="#3c7547" stroke-width="5.0904" stroke-linecap="square" stroke-linejoin="bevel" d="M0 15.9203L8.64 3.27411L19.7811 0L24.0556 2.12817L34.5145 5.77061L32.8775 8.34897L25.92 6.38451L16.4615 7.69415L11.8686 13.4648L7.73053 17.1072L0 15.9203"/><path id="shape60" transform="translate(578.053894736842, 675.72227368421)" fill="#3c7547" fill-rule="evenodd" stroke="#3c7547" stroke-width="5.0904" stroke-linecap="square" stroke-linejoin="bevel" d="M5.27495 3.51966L18.4168 0L29.9672 4.05171L38.5162 6.09802L47.6109 10.4362L55.0232 17.762L57.6152 29.0168L60.6164 36.6291L63.8905 44.1186L68.1196 55.7826L69.0745 68.2242L65.3457 55.0868L60.2981 42.6043L51.84 23.3689L39.9259 12.237L18.0985 2.3328L0 8.59453L5.27495 3.51966"/><path id="shape61" transform="translate(550.542315789474, 672.61187368421)" fill="#3c7547" fill-rule="evenodd" stroke="#3c7547" stroke-width="5.0904" stroke-linecap="square" stroke-linejoin="bevel" d="M28.9213 8.18526L11.1411 0.327411L1.00042 10.0679L0.591158 29.4669L0 50.3394L1.77347 66.0551L3.456 73.1763L4.68379 67.774L3.41053 50.012L3.31958 34.0507L4.22905 19.6856L4.63832 12.4416L6.36632 6.54821L11.4594 0L20.1448 4.17448L28.9213 8.18526"/><path id="shape62" transform="translate(580.918736842105, 690.701305263158)" fill="#3c7547" fill-rule="evenodd" stroke="#3c7547" stroke-width="5.0904" stroke-linecap="square" stroke-linejoin="bevel" d="M0 0L17.4164 0.450189L29.1486 2.82392L40.1078 8.34897L46.7469 19.2354L51.6581 30.2855L54.9777 45.0599L54.8867 54.964L55.1141 62.6582L53.6589 67.9377L53.0678 65.564L53.568 59.3022L52.6131 51.3216L51.9764 44.5278L50.7486 37.202L47.9747 29.8353L45.8829 23.8191L42.7453 18.4168L37.8796 13.7922L36.0152 10.8455L31.3314 7.81693L20.1448 5.56598L9.77684 4.13356L4.45642 2.57836L0 0"/><path id="shape63" transform="translate(530.215578947368, 680.38787368421)" fill="#3c7547" fill-rule="evenodd" stroke="#3c7547" stroke-width="5.0904" stroke-linecap="square" stroke-linejoin="bevel" d="M33.4232 9.53583L26.6476 2.86484L18.3714 0L11.7777 1.14594L4.18358 5.97524L0.864 14.1196L0 18.4578L2.72842 16.5752L5.54779 11.0501L10.2771 6.05709L14.0514 3.76522L21.6 5.07486L28.6484 9.12657L33.4232 9.53583"/><path id="shape64" transform="translate(561.365052631579, 692.05187368421)" fill="#3c7547" fill-rule="evenodd" stroke="#3c7547" stroke-width="5.0904" stroke-linecap="square" stroke-linejoin="bevel" d="M2.50105 0L5.50232 11.5821L16.0067 11.9505L30.1491 14.3651L36.3789 15.3474L45.6556 18.867L53.6135 27.748L56.5693 33.7233L58.5246 42.4815L59.9343 49.4799L59.4796 62.6582L59.6615 67.9786L57.3878 85.5481L52.5221 100.269L49.3844 111.197L46.2467 124.007L46.8379 110.255L48.7933 100.924L52.8404 85.5481L53.9773 85.5481L54.6594 67.9786L53.4771 56.8467L51.7491 44.4869L49.2935 40.0259L49.1116 31.3496L46.1558 28.2392L44.3368 26.3156L41.1537 23.1234L24.5103 17.5165L14.6425 13.5466L9.77684 11.6231L6.86653 11.132L0 10.9273L3.77432 10.3544L3.27411 8.75823L0.765474 10.2733L2.50105 0"/><path id="shape65" transform="translate(355.376842105263, 849.055831578947)" fill="#3c7547" fill-rule="evenodd" stroke="#3c7547" stroke-width="5.0904" stroke-linecap="square" stroke-linejoin="bevel" d="M4.00168 48.3749L11.1865 25.6199L11.5503 13.874L6.41179 3.27411L0 0L7.32126 0.327411L11.9141 5.23857L15.8703 12.2779L17.7802 18.1713L14.5061 36.9155L4.00168 48.3749"/><path id="shape66" transform="translate(334.495150897563, 981.568774771792)" fill="#3c7547" fill-rule="evenodd" stroke="#3c7547" stroke-width="5.0904" stroke-linecap="square" stroke-linejoin="bevel" d="M6.49526 27.2029L18.5211 6.94543L32.8622 0L20.1932 9.14481L12.6047 23.3251L23.6016 14.1224L37.3638 15.8008L45.2096 27.0872L33.6982 19.7366L19.8073 23.0935L11.8329 35.1323L7.07405 57.4734L0 74.6055L6.49526 27.2029"/><path id="shape67" transform="translate(306.070351481377, 941.343181932823)" fill="#3c7547" fill-rule="evenodd" stroke="#3c7547" stroke-width="5.0904" stroke-linecap="square" stroke-linejoin="bevel" d="M10.6111 61.2355L10.4181 40.6307L9.58212 31.3123L6.94543 23.4987L4.82321 18.8684L4.18012 10.1866L7.07405 4.91968L10.0323 2.54666L13.6336 3.93574L14.5339 5.03543L15.8844 4.80392L9.26057 0L3.4084 1.50484L0 8.6239L0 14.7012L0 21.3572L0.643095 26.3926L3.72995 42.7722L10.6111 61.2355"/><path id="shape68" transform="translate(247.613015125465, 913.214206220968)" fill="#3c7547" fill-rule="evenodd" stroke="#3c7547" stroke-width="5.0904" stroke-linecap="square" stroke-linejoin="bevel" d="M39.7433 63.377L31.4473 46.9395L23.473 29.9811L23.3443 22.0517L14.4696 6.4824L6.7525 2.77817L0 5.84573L6.43095 0L16.206 0.231514L24.0518 4.10938L33.7625 6.36664L39.8076 24.772L39.7433 63.377"/><path id="shape69" transform="translate(315.009372112259, 789.251212205945)" fill="#3c7547" fill-rule="evenodd" stroke="#3c7547" stroke-width="5.0904" stroke-linecap="square" stroke-linejoin="bevel" d="M0 45.6662L9.26057 26.1611L16.0774 7.17694L22.5726 0L15.1127 15.8587L10.0323 32.4699L0 45.6662"/><path id="shape70" transform="translate(313.916110596252, 777.6)" fill="#3c7547" fill-rule="evenodd" stroke="#3c7547" stroke-width="5.0904" stroke-linecap="square" stroke-linejoin="bevel" d="M19.3572 13.3876L9.26057 10.2042L0.643095 20.0436L0.707405 35.4972L0 15.587L7.78145 0L19.3572 13.3876"/><path id="shape71" transform="translate(332.887413374023, 771.842630301054)" fill="#3c7547" fill-rule="evenodd" stroke="#3c7547" stroke-width="5.0904" stroke-linecap="square" stroke-linejoin="bevel" d="M0.836024 17.4665L0 5.75737L1.12542 0.376211L3.53702 0L2.95824 12.0677L0.836024 17.4665"/><path id="shape72" transform="translate(336.874602432402, 762.466305063769)" fill="#3c7547" fill-rule="evenodd" stroke="#3c7547" stroke-width="5.0904" stroke-linecap="square" stroke-linejoin="bevel" d="M0 27.5791L7.26697 5.84573L13.5371 0L21.2864 1.73636L28.9071 15.1337L30.4827 27.1161L27.4923 36.4056L26.7528 22.1675L24.1482 15.1337L17.5886 5.99043L11.7043 5.96149L0 27.5791"/><path id="shape73" transform="translate(303.337197691359, 796.151621656978)" fill="#3c7547" fill-rule="evenodd" stroke="#3c7547" stroke-width="5.0904" stroke-linecap="square" stroke-linejoin="bevel" d="M24.0196 6.65603L9.51781 0L0 16.5533L3.44056 37.7079L5.46631 46.9395L6.20587 32.9618L4.24443 16.0902L9.51781 6.27982L19.9359 6.77179L24.0196 6.65603"/><path id="shape74" transform="translate(324.848725756323, 777.6)" fill="#3c7547" fill-rule="evenodd" stroke="#3c7547" stroke-width="5.0904" stroke-linecap="square" stroke-linejoin="bevel" d="M11.1577 12.8795L23.055 0L36.8815 5.23955L42.0584 17.0178L38.7465 50.1533L38.232 30.0116L36.4313 13.5162L26.3026 0L17.3314 7.23636L7.04189 17.4519L0 26.2784L11.1577 12.8795"/><path id="shape75" transform="translate(331.931368421052, 796.205178947368)" fill="#3c7547" fill-rule="evenodd" stroke="#3c7547" stroke-width="5.0904" stroke-linecap="square" stroke-linejoin="bevel" d="M0 2.35326L15.6657 0L22.3503 14.2219L23.4985 34.7976L18.9966 11.0706L10.8568 3.61175L0 2.35326"/><path id="shape76" transform="translate(311.987368421053, 847.277810526316)" fill="#3c7547" fill-rule="evenodd" stroke="#3c7547" stroke-width="5.0904" stroke-linecap="square" stroke-linejoin="bevel" d="M38.3343 0L10.5044 20.2176L0 54.2274L6.68463 79.97L14.1423 88.6873L4.68379 63.1493L4.32 46.2877L13.3238 20.1767L38.3343 0"/><path id="shape77" transform="translate(301.164631578947, 848.300968421053)" fill="#3c7547" fill-rule="evenodd" stroke="#3c7547" stroke-width="5.0904" stroke-linecap="square" stroke-linejoin="bevel" d="M55.3415 0.532042L53.8408 0L24.7832 2.49651L1.54611 25.2515L0 56.4783L13.9604 72.767L9.45853 62.0034L2.27368 52.0992L5.86611 28.1164L22.5549 8.88101L55.3415 0.532042"/><path id="shape78" transform="translate(348.730105263158, 840.361263157895)" fill="#3c7547" fill-rule="evenodd" stroke="#3c7547" stroke-width="5.0904" stroke-linecap="square" stroke-linejoin="bevel" d="M0.818526 7.03933L0 0L0.818526 7.03933"/><path id="shape79" transform="translate(348.184421052631, 853.375831578947)" fill="#3c7547" fill-rule="evenodd" stroke="#3c7547" stroke-width="5.0904" stroke-linecap="square" stroke-linejoin="bevel" d="M3.31958 0L2.27368 41.8267L0 55.2505L1.54611 22.3867L3.31958 0"/><path id="shape80" transform="translate(331.177263157895, 848.792084210526)" fill="#3c7547" fill-rule="evenodd" stroke="#3c7547" stroke-width="5.0904" stroke-linecap="square" stroke-linejoin="bevel" d="M23.6918 0L7.59411 21.0771L1.95537 39.3711L0 62.6173L5.00211 48.9888L9.504 28.5666L19.3263 11.7459L23.6918 0"/><path id="shape81" transform="translate(349.957894736842, 853.785094736842)" fill="#3c7547" fill-rule="evenodd" stroke="#3c7547" stroke-width="5.0904" stroke-linecap="square" stroke-linejoin="bevel" d="M10.2316 0L2.91032 8.63545L0 18.335L10.2316 0"/><path id="shape82" transform="translate(330.904421052632, 840.443115789473)" fill="#3c7547" fill-rule="evenodd" stroke="#3c7547" stroke-width="5.0904" stroke-linecap="square" stroke-linejoin="bevel" d="M13.7331 0L7.18484 16.4115L0 36.8337L1.81895 49.5618L9.41305 14.0787L13.7331 0"/><path id="shape83" transform="translate(314.488421052632, 854.644547368421)" fill="#3c7547" fill-rule="evenodd" stroke="#3c7547" stroke-width="5.0904" stroke-linecap="square" stroke-linejoin="bevel" d="M5.91158 0L0 22.3458L1.77347 40.558L8.41263 47.5564L4.13811 37.6931L3.31958 20.4222L5.91158 0"/><path id="shape84" transform="translate(356.597052631579, 837.57827368421)" fill="#3c7547" fill-rule="evenodd" stroke="#3c7547" stroke-width="5.0904" stroke-linecap="square" stroke-linejoin="bevel" d="M0 7.32581L7.00295 0L13.7785 12.4825L11.2775 23.8191L10.6408 10.1497L7.23032 3.888L0 7.32581"/><path id="shape85" transform="translate(37.3209470464405, 941.61756913684)" fill="#445d49" fill-rule="evenodd" stroke="#445d49" stroke-width="5.0904" stroke-linecap="square" stroke-linejoin="bevel" d="M7.13835 0L0 40.8623L5.65924 71.8273L16.206 91.1587L8.42454 71.5958L4.69459 49.6019L6.1094 27.145L7.13835 0"/><path id="shape86" transform="translate(51.7905847582999, 967.315645713103)" fill="#445d49" fill-rule="evenodd" stroke="#445d49" stroke-width="5.0904" stroke-linecap="square" stroke-linejoin="bevel" d="M0 0L2.63669 28.7656L14.4696 45.3189L29.2608 58.8046L7.71714 30.8493L0 0"/><path id="shape87" transform="translate(26.3883318863689, 933.919721874131)" fill="#445d49" fill-rule="evenodd" stroke="#445d49" stroke-width="5.0904" stroke-linecap="square" stroke-linejoin="bevel" d="M15.6272 0L0 27.3766L16.7205 72.9849L38.5857 90.5221L14.7912 55.1583L6.55957 25.8138L15.6272 0"/><path id="shape88" transform="translate(53.848488788431, 944.164225374128)" fill="#445d49" fill-rule="evenodd" stroke="#445d49" stroke-width="5.0904" stroke-linecap="square" stroke-linejoin="bevel" d="M0 0L10.804 20.3732L15.4343 52.6116L22.8299 70.2646L17.8137 50.0071L12.669 19.7366L0 0"/><path id="shape89" transform="translate(26.5169508882521, 921.649469094474)" fill="#445d49" fill-rule="evenodd" stroke="#445d49" stroke-width="5.0904" stroke-linecap="square" stroke-linejoin="bevel" d="M18.4568 0L0 10.6497L4.18012 38.4892L29.3251 65.4606L50.6116 72.2324L57.557 75.8788L34.6628 61.93L19.2285 47.7498L11.9616 34.7271L8.87471 16.9584L8.36024 9.02905L18.4568 0"/><path id="shape90" transform="translate(0, 903.880753984311)" fill="#445d49" fill-rule="evenodd" stroke="#445d49" stroke-width="5.0904" stroke-linecap="square" stroke-linejoin="bevel" d="M47.932 0L26.7742 0.347271L11.0827 30.6178L0 56.6052L0 85.7181L0 73.7952L10.6325 53.5377L19.8288 24.5405L32.1119 1.15757L47.932 0"/><path id="shape91" transform="translate(0, 908.511038052106)" fill="#445d49" fill-rule="evenodd" stroke="#445d49" stroke-width="5.0904" stroke-linecap="square" stroke-linejoin="bevel" d="M39.829 0L12.7547 5.78786L0 5.96149L0 21.6466L0 10.1287L19.3143 8.85542L39.829 0"/><path id="shape92" transform="translate(54.7488218016134, 931.373065636844)" fill="#445d49" fill-rule="evenodd" stroke="#445d49" stroke-width="5.0904" stroke-linecap="square" stroke-linejoin="bevel" d="M0 0L23.0228 7.35058L36.3349 39.2995L40.6436 62.7403L35.0487 39.1259L23.8588 15.1642L17.2349 9.4342L0 0"/><path id="shape93" transform="translate(57.8356778468101, 917.540091984306)" fill="#445d49" fill-rule="evenodd" stroke="#445d49" stroke-width="5.0904" stroke-linecap="square" stroke-linejoin="bevel" d="M0 4.57241L13.2478 6.36664L16.8491 40.3992L14.8555 69.3964L19.4215 30.8493L17.2993 8.21875L12.9262 0L0 4.57241"/><path id="shape94" transform="translate(20.9220243063331, 883.449625535165)" fill="#445d49" fill-rule="evenodd" stroke="#445d49" stroke-width="5.0904" stroke-linecap="square" stroke-linejoin="bevel" d="M33.7625 0L17.1706 0.520907L9.00333 35.8847L0 92.8951L6.49526 128.953L3.4084 84.85L14.9198 27.3187L18.8427 5.49846L33.7625 0"/><path id="shape95" transform="translate(51.3404182517087, 873.378757687711)" fill="#445d49" fill-rule="evenodd" stroke="#445d49" stroke-width="5.0904" stroke-linecap="square" stroke-linejoin="bevel" d="M14.2767 0L3.60133 3.00968L0 57.2998L26.9457 98.3357L44.4379 129.879L29.1322 95.1523L13.9552 71.48L4.7589 52.2643L4.30874 33.6274L7.58852 7.40845L14.2767 0"/><path id="shape96" transform="translate(69.5400070181808, 854.336714458904)" fill="#445d49" fill-rule="evenodd" stroke="#445d49" stroke-width="5.0904" stroke-linecap="square" stroke-linejoin="bevel" d="M11.9616 7.52421L5.402 0L0 28.5341L3.15117 68.8176L6.49526 107.365L19.0356 131.5L11.8329 109.622L4.63028 53.7692L5.20907 23.0357L11.9616 7.52421"/><path id="shape97" transform="translate(78.2217896452965, 853.52641474704)" fill="#445d49" fill-rule="evenodd" stroke="#445d49" stroke-width="5.0904" stroke-linecap="square" stroke-linejoin="bevel" d="M22.9585 12.2124L19.4858 0L8.103 42.425L0 80.8563L1.80067 111.185L3.66564 80.1039L10.9326 51.9171L16.3989 27.3187L22.9585 12.2124"/><path id="shape98" transform="translate(62.7875094193131, 901.797126153803)" fill="#445d49" fill-rule="evenodd" stroke="#445d49" stroke-width="5.0904" stroke-linecap="square" stroke-linejoin="bevel" d="M0 0L4.69459 25.1193L3.92288 46.0134L5.20907 14.9327L0 0"/><path id="shape99" transform="translate(78.2860991462381, 879.571762628387)" fill="#445d49" fill-rule="evenodd" stroke="#445d49" stroke-width="5.0904" stroke-linecap="square" stroke-linejoin="bevel" d="M0 0L3.72995 18.6369L0.836024 39.5889L8.103 19.6787L0 0"/><path id="shape100" transform="translate(95.0065693910535, 884.433560899572)" fill="#445d49" fill-rule="evenodd" stroke="#445d49" stroke-width="5.0904" stroke-linecap="square" stroke-linejoin="bevel" d="M0 0L5.91647 16.6111L3.21548 41.6147L0.643095 67.5443L7.4599 25.5823L8.42454 12.4439L0 0"/><path id="shape101" transform="translate(107.032446067132, 853.06338634026)" fill="#445d49" fill-rule="evenodd" stroke="#445d49" stroke-width="5.0904" stroke-linecap="square" stroke-linejoin="bevel" d="M0 10.013L14.8555 0L23.5373 12.6175L21.8652 22.2254L16.7848 51.9749L8.29593 86.4127L6.04509 100.361L4.43736 102.156L6.49526 82.3033L16.0774 48.4443L20.6433 14.759L14.5983 5.61422L0 10.013"/><path id="shape102" transform="translate(103.945590021936, 849.822187492804)" fill="#445d49" fill-rule="evenodd" stroke="#445d49" stroke-width="5.0904" stroke-linecap="square" stroke-linejoin="bevel" d="M3.98719 16.3218L1.73636 0L0 9.7236L3.98719 16.3218"/><path id="shape103" transform="translate(105.810565549242, 888.600816560587)" fill="#445d49" fill-rule="evenodd" stroke="#445d49" stroke-width="5.0904" stroke-linecap="square" stroke-linejoin="bevel" d="M0 0L0.836024 30.502L6.94543 60.9461L3.79426 31.7753L0 0"/><path id="shape104" transform="translate(103.945590021936, 885.996281772453)" fill="#445d49" fill-rule="evenodd" stroke="#445d49" stroke-width="5.0904" stroke-linecap="square" stroke-linejoin="bevel" d="M0 0L2.44376 4.91968L0 0"/><path id="shape105" transform="translate(168.962495473891, 863.886675348731)" fill="#445d49" fill-rule="evenodd" stroke="#445d49" stroke-width="5.0904" stroke-linecap="square" stroke-linejoin="bevel" d="M14.341 25.0614L12.3474 6.25088L3.92288 14.9327L0.900333 49.8334L3.53702 68.0652L0.450167 60.1358L0 44.5086L4.43736 15.6272L13.505 0L14.341 25.0614"/><path id="shape106" transform="translate(177.644278101006, 874.131178848728)" fill="#445d49" fill-rule="evenodd" stroke="#445d49" stroke-width="5.0904" stroke-linecap="square" stroke-linejoin="bevel" d="M14.341 20.2575L18.6498 0L10.3538 2.25726L2.82962 22.5148L0 60.3094L14.341 20.2575"/><path id="shape107" transform="translate(199.831055925858, 894.388671645331)" fill="#445d49" fill-rule="evenodd" stroke="#445d49" stroke-width="5.0904" stroke-linecap="square" stroke-linejoin="bevel" d="M0 0L12.1545 1.21545L16.6562 34.3799L7.52421 64.5925L11.5757 25.4087L10.4824 8.79754L0 0"/><path id="shape108" transform="translate(196.744199880661, 866.606967238561)" fill="#445d49" fill-rule="evenodd" stroke="#445d49" stroke-width="5.0904" stroke-linecap="square" stroke-linejoin="bevel" d="M0.128619 14.0066L14.6626 0L6.68819 28.8235L0 38.1998L10.3538 13.7172L0.128619 14.0066"/><path id="shape109" transform="translate(145.039361123616, 862.902739984325)" fill="#445d49" fill-rule="evenodd" stroke="#445d49" stroke-width="5.0904" stroke-linecap="square" stroke-linejoin="bevel" d="M32.412 20.3154L15.9488 0L2.57238 8.97118L0 13.6593L4.82321 14.8748L11.8973 6.4824L17.1063 4.80392L26.1097 15.5115L32.412 20.3154"/><path id="shape110" transform="translate(140.028631578947, 898.241684210526)" fill="#445d49" fill-rule="evenodd" stroke="#445d49" stroke-width="2.16" stroke-linecap="square" stroke-linejoin="bevel" d="M0 0L3.31958 35.2989L1.95537 2.82392"/><path id="shape111" transform="matrix(0.961954136847429 0.273210978187426 -0.273210978187426 0.961954136847429 187.805026889767 920.276747183613)" fill="#445d49" fill-rule="evenodd" stroke="#445d49" stroke-width="1.44" stroke-linecap="square" stroke-linejoin="bevel" d="M5.79217 1.85855L0 38.6629L1.99359 0"/><path id="shape112" transform="translate(252.04547368421, 990.723031578947)" fill="#3c7547" fill-rule="evenodd" stroke="#3c7547" stroke-width="5.0904" stroke-linecap="square" stroke-linejoin="bevel" d="M41.8358 63.9269L28.5575 50.5031L25.7381 36.4244L16.6434 42.6452L19.9175 59.1795L24.8286 70.8025L15.2792 52.222L13.2783 37.8159L18.6442 32.9048L9.54947 27.9117L0 37.2429L9.73137 25.538L22.8278 29.7125L25.4653 26.0291L20.2813 10.6408L15.552 0L48.0202 25.0469L41.8358 63.9269"/><path id="shape113" transform="translate(19.6733481630504, 799.807616785508)" fill="#78b64e" fill-rule="evenodd" stroke="#78b64e" stroke-width="5.0904" stroke-linecap="square" stroke-linejoin="bevel" d="M13.4728 0L0 25.0325L3.79426 50.5569L17.3636 74.4318L30.0968 87.6281L15.3378 67.0523L5.69139 51.3962L3.02255 26.3926L13.4728 0"/><path id="shape114" transform="translate(30.9918203287716, 795.264150543984)" fill="#78b64e" fill-rule="evenodd" stroke="#78b64e" stroke-width="5.0904" stroke-linecap="square" stroke-linejoin="bevel" d="M5.78786 0L0 29.8943L6.97758 56.9525L14.2446 83.0268L7.94222 51.8013L5.46631 30.4731L5.78786 0"/><path id="shape115" transform="translate(12.856541063241, 794.338093730425)" fill="#499e4b" fill-rule="evenodd" stroke="#499e4b" stroke-width="5.0904" stroke-linecap="square" stroke-linejoin="bevel" d="M0 20.5469L23.28 0L23.0228 6.42452L0 20.5469"/><path id="shape116" transform="translate(6.84360272520167, 814.190436671096)" fill="#499e4b" fill-rule="evenodd" stroke="#499e4b" stroke-width="5.0904" stroke-linecap="square" stroke-linejoin="bevel" d="M5.08045 0L0 21.8492L6.23802 40.6307L2.63669 20.3732L5.08045 0"/><path id="shape117" transform="translate(37.2941514210481, 797.637171128729)" fill="#499e4b" fill-rule="evenodd" stroke="#499e4b" stroke-width="5.0904" stroke-linecap="square" stroke-linejoin="bevel" d="M0 0L1.09326 25.6113L18.6819 48.618L28.5534 64.9108L18.2961 44.3928L5.56277 27.0293L0 0"/><path id="shape118" transform="translate(42.5675304982591, 791.328409086358)" fill="#499e4b" fill-rule="evenodd" stroke="#499e4b" stroke-width="5.0904" stroke-linecap="square" stroke-linejoin="bevel" d="M0 0L6.1094 23.0357L19.4858 37.2159L29.5502 60.512L19.0999 33.338L8.58532 21.8202L0 0"/><path id="shape119" transform="translate(44.9469820330982, 784.382982984666)" fill="#499e4b" fill-rule="evenodd" stroke="#499e4b" stroke-width="2.0376" stroke-linecap="square" stroke-linejoin="bevel" d="M0 0L23.0228 20.3732L37.9105 42.6276L43.2803 65.5185L44.0842 76.4286L43.3768 55.1004L37.203 31.9779L20.8684 11.6625L0 0"/><path id="shape120" transform="translate(15.4932306018465, 777.6)" fill="#499e4b" fill-rule="evenodd" stroke="#499e4b" stroke-width="2.0376" stroke-linecap="square" stroke-linejoin="bevel" d="M23.4408 0L9.26057 0L0 28.4874L5.402 49.671L16.3668 67.0924L1.41481 28.8347L11.0291 0L23.4408 0"/><path id="shape121" transform="translate(9.0622805076868, 785.598432552462)" fill="#499e4b" fill-rule="evenodd" stroke="#499e4b" stroke-width="2.0376" stroke-linecap="square" stroke-linejoin="bevel" d="M27.6209 3.18332L8.36024 0L0 12.6465L0.482321 29.3734L9.54996 67.5153L6.27018 44.9716L3.95503 28.7078L3.63349 14.5854L8.64963 4.22513L16.8169 1.73636L27.6209 3.18332"/><path id="shape122" transform="translate(33.1783433607859, 777.6)" fill="#499e4b" fill-rule="evenodd" stroke="#499e4b" stroke-width="2.0376" stroke-linecap="square" stroke-linejoin="bevel" d="M0 0L4.91968 5.79905L0 0"/><path id="shape123" transform="translate(25.3968937468526, 767.106235556705)" fill="#499e4b" fill-rule="evenodd" stroke="#499e4b" stroke-width="2.0376" stroke-linecap="square" stroke-linejoin="bevel" d="M19.743 10.4938L12.3796 0L4.7589 10.4938L0 34.8429L5.56277 77.6151L2.63669 36.4635L6.36664 10.4938L11.8973 4.48559L19.743 10.4938"/><path id="shape124" transform="translate(10.2841610255771, 852.592855158371)" fill="#499e4b" fill-rule="evenodd" stroke="#499e4b" stroke-width="2.0376" stroke-linecap="square" stroke-linejoin="bevel" d="M0 0L9.42134 16.8427L0 0"/><path id="shape125" transform="translate(55.8795971931698, 769.392438315179)" fill="#499e4b" fill-rule="evenodd" stroke="#499e4b" stroke-width="2.0376" stroke-linecap="square" stroke-linejoin="bevel" d="M0 0L35.5632 28.7656L26.5598 81.6377L14.1481 100.477L23.5694 80.046L27.1386 35.3927L0 0"/><path id="shape126" transform="translate(15.9112423579669, 758.97429916264)" fill="#499e4b" fill-rule="evenodd" stroke="#499e4b" stroke-width="2.0376" stroke-linecap="square" stroke-linejoin="bevel" d="M32.4763 8.07406L15.37 0L0 13.1095L1.28619 42.1645L5.78786 45.5794L3.37625 18.6257L13.8909 7.09012L32.4763 8.07406"/><path id="shape127" transform="translate(59.5773934973117, 761.982911981692)" fill="#499e4b" fill-rule="evenodd" stroke="#499e4b" stroke-width="2.0376" stroke-linecap="square" stroke-linejoin="bevel" d="M0 1.4759L25.6916 0L41.8655 15.6171L55.2419 36.2899L63.0555 57.7917L53.1518 39.8204L40.6436 25.0904L30.6113 15.6171L20.4504 7.40845L5.98078 7.03224L0 1.4759"/><path id="shape128" transform="translate(41.2491857289564, 751.333258625763)" fill="#499e4b" fill-rule="evenodd" stroke="#499e4b" stroke-width="2.0376" stroke-linecap="square" stroke-linejoin="bevel" d="M14.759 7.9583L6.72034 0L0 2.22832L1.60774 16.9874L1.67205 26.2667L14.8555 57.1261L26.7528 74.5186L16.8491 54.4927L11.9937 43.0616L8.00653 31.6596L7.17051 26.2667L6.55957 11.8362L6.78465 6.01937L14.759 7.9583"/><path id="shape129" transform="translate(51.3457773767872, 739.641791354581)" fill="#499e4b" fill-rule="evenodd" stroke="#499e4b" stroke-width="2.0376" stroke-linecap="square" stroke-linejoin="bevel" d="M14.952 16.1771L8.52101 4.16726L1.44696 0L0 13.9487L5.91647 37.9582L10.7718 60.5699L9.29272 37.9582L4.56597 14.8748L6.17371 6.54028L14.952 16.1771"/><path id="shape130" transform="translate(334.205758143326, 790.689601377005)" fill="#499e4b" fill-rule="evenodd" stroke="#499e4b" stroke-width="2.0376" stroke-linecap="square" stroke-linejoin="bevel" d="M0 8.45027L18.3925 0L36.9137 33.8011L19.1642 13.4857L0 8.45027"/><path id="shape131" transform="translate(306.864, 777.6)" fill="#499e4b" fill-rule="evenodd" stroke="#499e4b" stroke-width="2.0376" stroke-linecap="square" stroke-linejoin="bevel" d="M26.1246 18.4002L17.9166 0L2.52379 7.41145L0 22.4314L6.18442 18.6457L7.38947 9.6624L17.0299 6.73617L28.3983 21.3673L27.4661 20.4056L26.1246 18.4002"/><path id="shape132" transform="translate(338.786526315789, 764.855242105263)" fill="#499e4b" fill-rule="evenodd" stroke="#499e4b" stroke-width="2.0376" stroke-linecap="square" stroke-linejoin="bevel" d="M0 24.3921L5.88884 2.35326L16.8935 0L27.0568 20.3813L28.1709 37.4885L23.8964 22.7755L15.7339 6.95747L0 24.3921"/><path id="shape133" transform="translate(329.396210526316, 777.6)" fill="#499e4b" fill-rule="evenodd" stroke="#499e4b" stroke-width="2.0376" stroke-linecap="square" stroke-linejoin="bevel" d="M4.88842 10.8697L0 0L4.25179 0L6.43453 14.3689L7.43495 15.74L4.88842 10.8697"/><path id="shape134" transform="translate(294.52679606236, 803.757291968338)" fill="#499e4b" fill-rule="evenodd" stroke="#499e4b" stroke-width="2.0376" stroke-linecap="square" stroke-linejoin="bevel" d="M30.2898 0L7.84576 7.23482L0 33.1065L0.385857 45.9556L8.42454 20.1996L30.2898 0"/><path id="shape135" transform="translate(352.598275412623, 849.307711485271)" fill="#499e4b" fill-rule="evenodd" stroke="#499e4b" stroke-width="2.0376" stroke-linecap="square" stroke-linejoin="bevel" d="M0 0L7.33128 23.4987L6.04509 42.7722L8.68178 19.7945L0 0"/><path id="shape136" transform="translate(360.95851053503, 835.937766239513)" fill="#499e4b" fill-rule="evenodd" stroke="#499e4b" stroke-width="2.0376" stroke-linecap="square" stroke-linejoin="bevel" d="M0 6.71391L19.2285 0L33.6339 12.9648L14.9841 5.96149L0 6.71391"/><path id="shape137" transform="translate(322.69435747478, 851.854367722558)" fill="#499e4b" fill-rule="evenodd" stroke="#499e4b" stroke-width="2.0376" stroke-linecap="square" stroke-linejoin="bevel" d="M16.1417 0L0 19.7945L6.23802 53.1325L5.65924 19.5051L16.1417 0"/><path id="shape138" transform="translate(338.900351712062, 863.140685137809)" fill="#499e4b" fill-rule="evenodd" stroke="#499e4b" stroke-width="2.0376" stroke-linecap="square" stroke-linejoin="bevel" d="M3.53702 0L5.01614 28.0711L9.00333 61.2355L0 30.3862L3.53702 0"/><path id="shape139" transform="translate(296.906247597199, 854.806173815778)" fill="#499e4b" fill-rule="evenodd" stroke="#499e4b" stroke-width="2.0376" stroke-linecap="square" stroke-linejoin="bevel" d="M26.9457 0L6.7525 10.5918L0 25.5244L22.3154 7.52421L26.9457 0"/><path id="shape140" transform="translate(84.4276564861607, 754.483352346885)" fill="#499e4b" fill-rule="evenodd" stroke="#499e4b" stroke-width="2.0376" stroke-linecap="square" stroke-linejoin="bevel" d="M0 0L25.5309 6.77179L39.9362 23.1166L29.3251 6.07725L0 0"/><path id="shape141" transform="translate(138.833494282752, 753.210024228242)" fill="#499e4b" fill-rule="evenodd" stroke="#499e4b" stroke-width="2.0376" stroke-linecap="square" stroke-linejoin="bevel" d="M12.9262 0L0 24.39L12.9262 0"/><path id="shape142" transform="translate(147.065110403277, 754.656987999428)" fill="#499e4b" fill-rule="evenodd" stroke="#499e4b" stroke-width="2.0376" stroke-linecap="square" stroke-linejoin="bevel" d="M16.2703 0L5.27338 7.69785L0 22.943L5.01614 33.9747L3.72995 22.943L8.29593 9.26057L34.7271 6.36664L16.2703 0"/><path id="shape143" transform="translate(39.946918334889, 691.80088177911)" fill="#75b64b" fill-rule="evenodd" stroke="#75b64b" stroke-width="2.0376" stroke-linecap="square" stroke-linejoin="bevel" d="M40.5793 0L14.0195 15.9745L2.701 45.7819L0 85.7991L12.3474 139.719L9.71073 98.7987L8.16731 54.6952L14.341 24.5984L23.3443 13.833L40.5793 0"/><path id="shape144" transform="translate(52.8088185232085, 709.685353990969)" fill="#75b64b" fill-rule="evenodd" stroke="#75b64b" stroke-width="2.0376" stroke-linecap="square" stroke-linejoin="bevel" d="M0 0L5.85216 43.6983L18.2639 103.024L19.2285 110.374L13.8265 42.8301L9.51781 14.4696L0 0"/><path id="shape145" transform="translate(60.7831966399667, 703.260834846903)" fill="#75b64b" fill-rule="evenodd" stroke="#75b64b" stroke-width="2.0376" stroke-linecap="square" stroke-linejoin="bevel" d="M0 0L17.8137 21.8781L34.1483 74.3392L41.2224 97.6411L32.0261 44.798L23.6016 22.399L11.7043 11.46L0 0"/><path id="shape146" transform="translate(71.4585737962718, 696.315408745211)" fill="#75b64b" fill-rule="evenodd" stroke="#75b64b" stroke-width="2.0376" stroke-linecap="square" stroke-linejoin="bevel" d="M0 0L23.6659 21.0678L40.3864 58.8046L50.8688 101.287L39.2931 35.3059L24.7592 13.0227L6.36664 4.16726L0 0"/><path id="shape147" transform="translate(79.6901899167963, 690.759067863856)" fill="#75b64b" fill-rule="evenodd" stroke="#75b64b" stroke-width="2.0376" stroke-linecap="square" stroke-linejoin="bevel" d="M0 0L29.4538 9.83935L54.9846 38.0262L59.7435 70.3803L49.9042 39.9362L24.2447 16.7269L0 0"/><path id="shape148" transform="translate(110.301512364997, 692.842695694364)" fill="#75b64b" fill-rule="evenodd" stroke="#75b64b" stroke-width="2.0376" stroke-linecap="square" stroke-linejoin="bevel" d="M0 0L18.8427 7.35058L23.5373 44.335L16.9134 67.66L16.5919 21.2414L9.32488 10.8812L0 0"/><path id="shape149" transform="translate(141.363001319788, 714.026245304526)" fill="#75b64b" fill-rule="evenodd" stroke="#75b64b" stroke-width="2.0376" stroke-linecap="square" stroke-linejoin="bevel" d="M0 0L15.4343 13.5436L22.5726 45.0295L9.38919 17.4793L0 0"/><path id="shape150" transform="translate(14.7375939657828, 718.425015168932)" fill="#75b64b" fill-rule="evenodd" stroke="#75b64b" stroke-width="2.0376" stroke-linecap="square" stroke-linejoin="bevel" d="M34.7914 0L6.36664 26.5084L0 59.175L13.6336 27.2029L34.4056 12.3281L34.7914 0"/><path id="shape151" transform="translate(32.8085637303717, 706.096883838428)" fill="#75b64b" fill-rule="evenodd" stroke="#75b64b" stroke-width="2.0376" stroke-linecap="square" stroke-linejoin="bevel" d="M27.2672 0L1.92929 13.6593L0 54.2322L4.11581 18.8684L27.2672 0"/><path id="shape152" transform="translate(24.6412571107888, 690.701189313009)" fill="#75b64b" fill-rule="evenodd" stroke="#75b64b" stroke-width="2.0376" stroke-linecap="square" stroke-linejoin="bevel" d="M34.0197 17.1321L45.7241 3.12544L25.9167 0L8.8104 18.2317L0 50.8752L13.4407 16.4954L26.0453 5.96149L47.2675 7.0033L34.0197 17.1321"/><path id="shape153" transform="translate(55.8530526315789, 684.660126315789)" fill="#75b64b" fill-rule="evenodd" stroke="#75b64b" stroke-width="2.0376" stroke-linecap="square" stroke-linejoin="bevel" d="M24.3966 7.14164L17.2573 0L0 12.503L2.22821 47.6996L1.22779 24.0033L4.77474 12.1142L16.2796 4.09263L24.3966 7.14164"/><path id="shape154" transform="translate(73.314947368421, 683.596042105263)" fill="#75b64b" fill-rule="evenodd" stroke="#75b64b" stroke-width="2.0376" stroke-linecap="square" stroke-linejoin="bevel" d="M22.2366 8.86055L16.3705 0L3.68337 22.1616L1.25053 35.0329L0 57.1741L0.204632 70.9867L1.97811 55.6598L4.79747 33.4573L13.3465 11.664L22.2366 8.86055"/><path id="shape155" transform="translate(92.6185263157895, 685.765136842105)" fill="#75b64b" fill-rule="evenodd" stroke="#75b64b" stroke-width="2.0376" stroke-linecap="square" stroke-linejoin="bevel" d="M20.9861 9.63815L16.2796 0L6.34358 13.6285L0 47.4745L6.27537 70.25L1.52337 47.2699L8.00337 21.384L15.5065 4.68606L20.9861 9.63815"/><path id="shape156" transform="translate(87.1124210526315, 488.914863157895)" fill="#3c7547" fill-rule="evenodd" stroke="#3c7547" stroke-width="2.0376" stroke-linecap="square" stroke-linejoin="bevel" d="M158.43 35.0329L106.136 10.8864L10.8227 40.6808L0 91.3475L5.27495 36.8337L19.5537 18.335L99.2236 0L147.608 20.1357L158.43 35.0329"/><path id="shape157" transform="translate(55.3717894736842, 454.536757894737)" fill="#3c7547" fill-rule="evenodd" stroke="#3c7547" stroke-width="2.0376" stroke-linecap="square" stroke-linejoin="bevel" d="M187.806 45.7556L153.428 10.3134L53.7499 26.8477L0 61.7987L52.6585 24.1465L106.772 1.71891L167.525 0L197.265 34.7874L195.992 55.005L187.806 45.7556"/><path id="shape158" transform="translate(120.672, 431.536168421053)" fill="#3c7547" fill-rule="evenodd" stroke="#3c7547" stroke-width="2.0376" stroke-linecap="square" stroke-linejoin="bevel" d="M133.784 53.6135L118.05 13.4238L64.2998 0L13.824 54.1046L0 117.049L6.45726 161.413L8.91284 155.52L3.54695 126.217L25.1015 65.8914L68.9381 20.9543L116.413 27.748L133.784 53.6135"/><path id="shape159" transform="translate(155.141052631579, 472.708042105263)" fill="#3c7547" fill-rule="evenodd" stroke="#3c7547" stroke-width="2.0376" stroke-linecap="square" stroke-linejoin="bevel" d="M102.589 14.0787L80.3975 0L42.1996 23.901L1.00042 64.9091L0 105.672L11.5503 143.16L32.832 168.453L27.648 152.655L15.3701 133.747L6.63916 104.608L12.2779 76.3685L39.3802 44.7734L62.1171 18.0894L80.6703 9.49491L102.589 14.0787"/><path id="shape160" transform="translate(253.455157894737, 439.803284210526)" fill="#3c7547" fill-rule="evenodd" stroke="#3c7547" stroke-width="2.0376" stroke-linecap="square" stroke-linejoin="bevel" d="M0 32.7411L40.8354 0L78.7604 24.5558L92.3116 70.9662L94.8581 106.981L88.0371 75.6318L82.1255 52.222L71.9394 31.8407L56.2964 20.6269L35.5604 16.0431L0 32.7411"/><path id="shape161" transform="translate(251.272421052632, 453.145263157895)" fill="#3c7547" fill-rule="evenodd" stroke="#3c7547" stroke-width="2.0376" stroke-linecap="square" stroke-linejoin="bevel" d="M0 23.8191L10.0952 0L30.2855 0.982232L63.0265 37.7341L68.6653 66.4643L76.5777 90.4472L67.392 69.411L59.1158 46.9016L55.7507 37.6522L44.5642 25.6199L32.6501 15.1427L20.1903 10.9683L0 23.8191"/><path id="shape162" transform="translate(259.548631578947, 481.057010526316)" fill="#3c7547" fill-rule="evenodd" stroke="#3c7547" stroke-width="2.0376" stroke-linecap="square" stroke-linejoin="bevel" d="M0 0.900379L33.3777 0L69.3928 55.5779L90.4017 91.102L62.0261 62.8628L42.4724 32.4136L32.7411 14.6516L10.7318 9.3312L0 0.900379"/><path id="shape163" transform="translate(250.544842105263, 464.932042105263)" fill="#3c7547" fill-rule="evenodd" stroke="#3c7547" stroke-width="2.0376" stroke-linecap="square" stroke-linejoin="bevel" d="M13.3693 0L13.7331 16.125L13.3693 23.328L0 20.0539L13.3693 0"/><path id="shape164" transform="translate(259.639578947368, 487.932631578947)" fill="#3c7547" fill-rule="evenodd" stroke="#3c7547" stroke-width="2.0376" stroke-linecap="square" stroke-linejoin="bevel" d="M0 0L65.9368 20.545L86.4909 42.4815L118.232 84.3901L127.872 106.981L96.4042 64.8273L76.7596 41.663L57.3878 21.1998L33.1048 15.7976L4.91116 10.1497L0 0"/><path id="shape165" transform="translate(186.972631578947, 487.523368421053)" fill="#499e4b" fill-rule="evenodd" stroke="#499e4b" stroke-width="2.0376" stroke-linecap="square" stroke-linejoin="bevel" d="M64.0269 0L25.1924 19.5628L0 84.8812L8.82189 128.345L28.1027 174.837L12.7326 131.946L10.6408 84.4719L20.2813 48.2112L53.0223 14.3242L64.0269 0"/><path id="shape166" transform="translate(253.364210526316, 480.238484210526)" fill="#499e4b" fill-rule="evenodd" stroke="#499e4b" stroke-width="2.0376" stroke-linecap="square" stroke-linejoin="bevel" d="M5.91158 0.245558L33.9234 0L87.2185 52.9587L112.32 116.394L119.778 152.983L89.7651 71.2118L27.1023 14.6516L0 9.82232L5.91158 0.245558"/><path id="shape167" transform="translate(248.362105263158, 494.153431578947)" fill="#499e4b" fill-rule="evenodd" stroke="#499e4b" stroke-width="2.0376" stroke-linecap="square" stroke-linejoin="bevel" d="M0 0L40.5625 136.858L46.9288 188.425L51.2943 130.228L38.1069 103.134L25.3743 65.9732L10.7318 6.71192L0 0"/><path id="shape168" transform="translate(192.884210526316, 521.737768421053)" fill="#499e4b" fill-rule="evenodd" stroke="#499e4b" stroke-width="2.0376" stroke-linecap="square" stroke-linejoin="bevel" d="M64.0269 0L11.3684 33.2322L0 97.0772L19.9175 42.3178L46.9288 19.5628L64.0269 0"/><path id="shape169" transform="translate(266.005894736842, 519.445894736842)" fill="#499e4b" fill-rule="evenodd" stroke="#499e4b" stroke-width="2.0376" stroke-linecap="square" stroke-linejoin="bevel" d="M0 0L35.2876 4.42004L61.5714 38.307L70.5752 60.7347L43.1091 27.0114L30.1036 18.4168L0 0"/><path id="shape170" transform="translate(212.983578947368, 551.777684210526)" fill="#499e4b" fill-rule="evenodd" stroke="#499e4b" stroke-width="2.0376" stroke-linecap="square" stroke-linejoin="bevel" d="M50.2029 0L25.8291 4.09263L6.18442 36.097L0 76.1229L14.4606 35.6059L38.6526 14.1605L50.2029 0"/><path id="shape171" transform="translate(272.190315789474, 534.752336842105)" fill="#499e4b" fill-rule="evenodd" stroke="#499e4b" stroke-width="2.0376" stroke-linecap="square" stroke-linejoin="bevel" d="M0 0L27.0114 13.6694L43.9276 40.7626L55.6598 71.2118L34.8328 36.67L22.2821 20.7906L4.72926 9.65861L0 0"/><path id="shape172" transform="translate(224.897684210526, 565.856336842105)" fill="#75b64b" fill-rule="evenodd" stroke="#75b64b" stroke-width="2.0376" stroke-linecap="square" stroke-linejoin="bevel" d="M46.656 0L15.2792 49.6027L0 103.052L20.6451 58.0335L38.6526 25.7017L46.656 0"/><path id="shape173" transform="translate(283.285894736842, 577.643115789474)" fill="#75b64b" fill-rule="evenodd" stroke="#75b64b" stroke-width="2.0376" stroke-linecap="square" stroke-linejoin="bevel" d="M0 0L30.2855 20.0539L46.9288 62.781L21.3726 23.328L0 0"/><path id="shape174" transform="translate(257.365894736842, 589.5936)" fill="#75b64b" fill-rule="evenodd" stroke="#75b64b" stroke-width="2.0376" stroke-linecap="square" stroke-linejoin="bevel" d="M15.552 0L0 30.6947L2.63747 80.0519L10.2771 101.579L6.63916 38.2252L15.552 0"/><path id="shape175" transform="translate(293.744842105263, 606.537094736842)" fill="#75b64b" fill-rule="evenodd" stroke="#75b64b" stroke-width="2.0376" stroke-linecap="square" stroke-linejoin="bevel" d="M0 0L27.2842 32.5773L29.7398 60.4072L4.63832 12.769L0 0"/><path id="shape176" transform="translate(261.094736842105, 606.782652631579)" fill="#75b64b" fill-rule="evenodd" stroke="#75b64b" stroke-width="2.0376" stroke-linecap="square" stroke-linejoin="bevel" d="M18.9171 0L10.1861 14.2424L0 51.8127L4.18358 53.0405L17.8257 15.8794L18.9171 0"/><path id="shape177" transform="translate(280.375578947368, 626.181726315789)" fill="#75b64b" fill-rule="evenodd" stroke="#75b64b" stroke-width="2.0376" stroke-linecap="square" stroke-linejoin="bevel" d="M6.18442 0L0 38.3889L5.63874 65.6458L7.63958 15.9613L6.18442 0"/><path id="shape178" transform="translate(297.109894736842, 636.658863157895)" fill="#75b64b" fill-rule="evenodd" stroke="#75b64b" stroke-width="2.0376" stroke-linecap="square" stroke-linejoin="bevel" d="M0 0L7.91242 13.5875L19.1899 40.1896L6.36632 19.2354L0 0"/><path id="shape179" transform="translate(546.127000246204, 726.89457644294)" fill="#499e4b" fill-rule="evenodd" stroke="#499e4b" stroke-width="2.0376" stroke-linecap="square" stroke-linejoin="bevel" d="M0 6.25088L51.2547 0L93.3774 39.6468L101.866 79.6409L90.805 50.7054L55.4348 25.8138L0 6.25088"/><path id="shape180" transform="translate(509.663513212318, 753.658047084802)" fill="#499e4b" fill-rule="evenodd" stroke="#499e4b" stroke-width="2.0376" stroke-linecap="square" stroke-linejoin="bevel" d="M13.505 0L48.1035 23.942L89.9047 63.6085L106.111 102.85L81.2229 61.467L47.3961 36.2899L17.9424 8.73966L0 5.38271L13.505 0"/><path id="shape181" transform="translate(472.556931169016, 703.014315093294)" fill="#499e4b" fill-rule="evenodd" stroke="#499e4b" stroke-width="2.0376" stroke-linecap="square" stroke-linejoin="bevel" d="M57.1711 25.5823L39.4217 0L2.0579 19.0999L0 50.2965L17.8137 18.2317L44.3092 13.6593L57.1711 25.5823"/><path id="shape182" transform="translate(525.419340943009, 680.036530406861)" fill="#499e4b" fill-rule="evenodd" stroke="#499e4b" stroke-width="2.0376" stroke-linecap="square" stroke-linejoin="bevel" d="M28.9393 19.6787L22.2511 0L6.36664 12.2124L0.707405 38.8365L0 50.8752L4.82321 33.6274L12.3474 9.60784L27.5245 2.60453L28.9393 19.6787"/><path id="shape183" transform="translate(522.846960905345, 777.6)" fill="#499e4b" fill-rule="evenodd" stroke="#499e4b" stroke-width="2.0376" stroke-linecap="square" stroke-linejoin="bevel" d="M0 0L2.701 19.467L0 0"/><path id="shape184" transform="translate(573.38147368421, 680.827452631579)" fill="#499e4b" fill-rule="evenodd" stroke="#499e4b" stroke-width="2.0376" stroke-linecap="square" stroke-linejoin="bevel" d="M0 9.90417L41.7448 0L79.4425 36.2607L78.3739 74.1585L62.1398 96.7725L39.744 104.649L63.072 91.1634L73.1899 65.7891L70.2796 38.1024L42.0404 11.6231L0 9.90417"/><path id="shape185" transform="translate(315.087157894737, 801.782905263158)" fill="#75b64b" fill-rule="evenodd" stroke="#75b64b" stroke-width="2.0376" stroke-linecap="square" stroke-linejoin="bevel" d="M14.5516 0L0 24.1465L1.36421 50.7486L14.5516 0"/><path id="shape186" transform="translate(330.184421052632, 801.046231578947)" fill="#75b64b" fill-rule="evenodd" stroke="#75b64b" stroke-width="2.0376" stroke-linecap="square" stroke-linejoin="bevel" d="M0 0L12.6417 33.314L16.5524 54.1864L0 0"/><path id="shape187" transform="translate(329.456842105263, 777.6)" fill="#75b64b" fill-rule="evenodd" stroke="#75b64b" stroke-width="2.0376" stroke-linecap="square" stroke-linejoin="bevel" d="M0 22.7914L10.1861 0L35.2876 27.1296L45.4737 59.3795L23.9192 26.5566L0 22.7914"/><path id="shape188" transform="translate(304.264421052632, 777.6)" fill="#75b64b" fill-rule="evenodd" stroke="#75b64b" stroke-width="2.0376" stroke-linecap="square" stroke-linejoin="bevel" d="M23.2825 0L10.1861 0L0.363789 15.4247L0 27.9481L9.09474 18.2895L23.2825 0"/><path id="shape189" transform="translate(325.091368421053, 777.6)" fill="#75b64b" fill-rule="evenodd" stroke="#75b64b" stroke-width="2.0376" stroke-linecap="square" stroke-linejoin="bevel" d="M1.63705 0L0 0L1.63705 0"/><path id="shape190" transform="translate(248.346947368421, 1023.16395789474)" fill="#75b64b" fill-rule="evenodd" stroke="#75b64b" stroke-width="2.0376" stroke-linecap="square" stroke-linejoin="bevel" d="M29.1032 0L14.5516 4.33819L0 33.314L29.1032 0"/><path id="shape191" transform="translate(338.293894736842, 964.721178947368)" fill="#75b64b" fill-rule="evenodd" stroke="#75b64b" stroke-width="2.0376" stroke-linecap="square" stroke-linejoin="bevel" d="M7.45768 27.0114L27.5571 0L53.7499 2.70114L23.7373 8.43082L0 36.9974L1.27326 41.3356L7.45768 27.0114"/><path id="shape192" transform="translate(266.44547368421, 889.416757894737)" fill="#75b64b" fill-rule="evenodd" stroke="#75b64b" stroke-width="2.0376" stroke-linecap="square" stroke-linejoin="bevel" d="M8.36716 30.8584L0 0L8.36716 30.8584"/><path id="shape193" transform="translate(260.806736842105, 725.138526315789)" fill="#75b64b" fill-rule="evenodd" stroke="#75b64b" stroke-width="2.0376" stroke-linecap="square" stroke-linejoin="bevel" d="M5.54779 24.7195L25.1015 0L45.0189 1.80076L27.1933 6.46636L8.45811 52.4615L0 37.4885L6.73011 52.4615L5.54779 24.7195"/><path id="shape194" transform="translate(263.808, 715.889178947368)" fill="#499e4b" fill-rule="evenodd" stroke="#499e4b" stroke-width="2.0376" stroke-linecap="square" stroke-linejoin="bevel" d="M0 41.0082L6.73011 5.40227L12.1869 0L7.00295 29.9581L4.54737 61.7108L0 41.0082"/><path id="shape195" transform="translate(218.970947368421, 748.220968421052)" fill="#499e4b" fill-rule="evenodd" stroke="#499e4b" stroke-width="2.0376" stroke-linecap="square" stroke-linejoin="bevel" d="M28.6484 12.1142L12.4598 0L0 2.45558L21.8274 0.736674L28.6484 12.1142"/><path id="shape196" transform="translate(227.610947368421, 896.619789473684)" fill="#499e4b" fill-rule="evenodd" stroke="#499e4b" stroke-width="2.0376" stroke-linecap="square" stroke-linejoin="bevel" d="M40.9263 25.8654L25.8291 6.71192L9.36758 3.92893L0 12.6872L12.9145 0L23.4644 1.80076L36.6518 7.776L50.5667 35.524L40.9263 25.8654"/><path id="shape197" transform="translate(240.434526315789, 1009.33086315789)" fill="#499e4b" fill-rule="evenodd" stroke="#499e4b" stroke-width="2.0376" stroke-linecap="square" stroke-linejoin="bevel" d="M39.3802 23.8191L22.1912 4.01078L0 0L21.3726 3.43781L39.3802 23.8191"/><path id="shape198" transform="translate(342.386526315789, 993.942568421053)" fill="#499e4b" fill-rule="evenodd" stroke="#499e4b" stroke-width="2.0376" stroke-linecap="square" stroke-linejoin="bevel" d="M0 19.5628L29.7398 0L53.6589 2.37373L63.8451 9.49491L32.832 6.13895L0 19.5628"/><path id="shape199" transform="translate(304.734315789474, 942.620968421052)" fill="#499e4b" fill-rule="evenodd" stroke="#499e4b" stroke-width="2.0376" stroke-linecap="square" stroke-linejoin="bevel" d="M0 13.5057L20.6451 0.572968L33.9234 0L0 13.5057"/>
</svg>
