<?xml version="1.0" standalone="no"?>
<!DOCTYPE svg PUBLIC "-//W3C//DTD SVG 20010904//EN" "http://www.w3.org/TR/2001/REC-SVG-20010904/DTD/svg10.dtd">
<!-- Created using Krita: http://krita.org -->
<svg xmlns="http://www.w3.org/2000/svg" 
    xmlns:xlink="http://www.w3.org/1999/xlink"
    xmlns:krita="http://krita.org/namespaces/svg/krita"
    xmlns:sodipodi="http://sodipodi.sourceforge.net/DTD/sodipodi-0.dtd"
    width="2949.12pt"
    height="1555.2pt"
    viewBox="0 0 2949.12 1555.2">
<defs/>
<path id="shape0" transform="translate(1872.10610526316, 659.710989473684)" fill="#695546" fill-opacity="0.709803921568627" fill-rule="evenodd" stroke="#000000" stroke-opacity="0" stroke-width="0" stroke-linecap="square" stroke-linejoin="bevel" d="M0 20.6269L26.8295 1.5552L225.731 0L248.104 32.0862L0 20.6269"/><path id="shape1" transform="translate(1883.77010526316, 591.458021052631)" fill="#452100" fill-rule="evenodd" stroke="#452100" stroke-width="5.0904" stroke-linecap="square" stroke-linejoin="bevel" d="M0 0L5.86611 73.1763L17.7347 73.6674L19.0989 6.87562L0 0"/><path id="shape2" transform="translate(2087.71957894737, 594.773052631579)" fill="#452100" fill-rule="evenodd" stroke="#452100" stroke-width="5.0904" stroke-linecap="square" stroke-linejoin="bevel" d="M0 6.26173L2.31916 66.3006L23.0552 67.0373L22.3731 0L0 6.26173"/><path id="shape3" transform="translate(1854.26526315789, 589.68)" fill="#452100" fill-rule="evenodd" stroke="#452100" stroke-width="5.0904" stroke-linecap="square" stroke-linejoin="bevel" d="M0 2.29187L14.9154 95.4402L31.104 97.8957L39.4712 0L0 2.29187"/><path id="shape0" transform="matrix(-0.999999971662928 0 0 0.999999956496937 2134.95752595177 591.34935123427)" fill="#452100" fill-rule="evenodd" stroke="#452100" stroke-width="5.0904" stroke-linecap="square" stroke-linejoin="bevel" d="M0 2.29187L14.9154 95.4402L31.104 97.8957L39.4712 0L0 2.29187"/><path id="shape4" transform="translate(1811.14105263158, 486.998905263158)" fill="#6d350e" fill-rule="evenodd" stroke="#6d350e" stroke-width="5.0904" stroke-linecap="square" stroke-linejoin="bevel" d="M0 0L7.54863 104.608L89.4013 105.917L93.6758 1.63705L0 0"/><path id="shape5" transform="translate(1934.28378947368, 487.981136842105)" fill="#6d350e" fill-rule="evenodd" stroke="#6d350e" stroke-width="5.0904" stroke-linecap="square" stroke-linejoin="bevel" d="M8.09432 3.27411L0 106.654L45.6556 107.391L64.0269 0L8.09432 3.27411"/><path id="shape6" transform="translate(1821.46357894737, 492.810442105263)" fill="#7d512b" fill-rule="evenodd" stroke="#7d512b" stroke-width="5.0904" stroke-linecap="square" stroke-linejoin="bevel" d="M0 0L0.636632 22.5913L75.3954 19.2354L76.1229 4.01078L0 0"/><path id="shape7" transform="translate(1941.15031578947, 500.013473684211)" fill="#7d512b" fill-rule="evenodd" stroke="#7d512b" stroke-width="5.0904" stroke-linecap="square" stroke-linejoin="bevel" d="M0 0L0.272842 12.5235L51.4762 11.5412L51.0215 3.51966L0 0"/><path id="shape01" transform="matrix(0.338303309777452 0.941037132976148 0.94103715894721 -0.338303319114062 1902.66670274839 318.969711708491)" fill="#315142" fill-rule="evenodd" stroke="#315142" stroke-width="5.0904" stroke-linecap="square" stroke-linejoin="bevel" d="M83.4384 23.0581L60.8873 0.911906L35.6303 0L17.4393 17.3262L40.4412 11.8548L49.9125 22.537L33.0745 20.7132L18.7923 16.1538L0 48.4612L2.55576 78.0329L11.2754 119.589L51.4159 106.823L72.313 95.2291L72.313 89.1057L42.5459 79.4659L37.5847 63.703L61.0376 73.8642L68.2538 86.7613L77.1238 92.884L90.2034 78.8145L91.406 66.0479L100.727 50.1547L118.768 33.2193L129.141 18.6289L103.283 11.464L83.4384 23.0581"/><path id="shape8" transform="translate(1918.944, 323.645305263158)" fill="#293e34" fill-rule="evenodd" stroke="#294236" stroke-width="5.0904" stroke-linecap="square" stroke-linejoin="bevel" d="M27.0114 153.965L34.3781 101.17L48.4749 75.4681L42.8362 67.5284L12.0051 66.5462L0 80.3793L8.73095 45.1827L49.0206 22.1002L73.3945 0L103.589 6.87562L106.045 25.7017L110.956 15.7976L107.955 7.53044L116.685 9.74046L138.786 23.4099L140.514 27.0932L176.438 16.2068L199.266 32.1681L205.359 52.5494L215 71.8666L178.439 93.312L167.616 69.3292L139.604 52.222L127.053 54.3501L152.519 80.1337L174.528 87.9916L181.167 94.9491L154.701 108.864L121.415 125.398L91.6749 117.622L72.1213 105.344L61.0257 77.4326L42.2905 103.052L33.1958 145.452L27.0114 153.965"/><path id="shape9" transform="translate(1937.13347368421, 423.426694736842)" fill="#293e34" fill-rule="evenodd" stroke="#293e34" stroke-width="5.0904" stroke-linecap="square" stroke-linejoin="bevel" d="M0 0L1.36421 1.30964L0 0"/><path id="shape10" transform="translate(2035.44757894737, 209.382063157895)" fill="#293e34" fill-rule="evenodd" stroke="#293e34" stroke-width="5.0904" stroke-linecap="square" stroke-linejoin="bevel" d="M37.3794 275.843L34.4691 204.795L51.4762 121.387L65.3912 80.8704L52.2947 85.9453L53.568 77.187L30.1036 104.608L8.64 103.544L19.9175 80.3793L46.8379 74.404L69.2109 63.6813L48.7478 61.635L16.0067 80.7067L2.54653 90.9383L0 70.9662L18.7352 51.4035L30.4674 27.0114L47.0198 13.5875L65.3002 26.2747L80.8522 22.4276L66.3916 16.9435L55.0232 14.0787L49.7482 10.8864L72.3032 0L96.4952 7.28488L116.14 16.6161L116.322 29.7944L122.142 32.2499L160.886 41.1719L177.256 78.4148L169.981 106.654L162.159 98.305L154.065 70.8844L139.604 67.5284L150.063 81.0341L159.522 102.316L167.889 108.291L156.339 127.772L139.059 126.626L142.06 106.818L130.328 86.4364L122.87 82.4256L126.417 105.099L133.238 122.697L136.33 127.608L143.788 128.59L131.419 143.815L114.048 141.605L100.952 140.377L92.4935 129.655L107.682 117.131L105.772 100.433L89.0375 113.53L88.8556 124.334L77.0324 116.722L74.4859 93.6394L56.5693 141.523L41.0173 199.311L44.2914 268.395L37.3794 275.843"/><path id="shape11" transform="translate(2087.56042105263, 325.203536842105)" fill="#315142" fill-rule="evenodd" stroke="#315142" stroke-width="5.0904" stroke-linecap="square" stroke-linejoin="bevel" d="M27.1933 157.239L30.1945 122.288L38.1069 100.269L25.92 97.5683L14.5516 100.269L21.4636 82.5893L33.9234 84.8812L45.9284 88.5645L41.7448 76.6959L27.4661 78.1693L19.7356 81.6889L11.2775 95.4402L0 85.6179L7.45768 50.7486L27.7389 46.083L44.2914 56.3146L56.5693 55.4961L46.9288 46.656L28.6484 42.0723L18.0985 48.4568L8.82189 50.5849L30.0126 6.79377L65.2093 5.97524L88.4918 0L98.8598 16.6979L129.145 6.05709L143.06 21.8547L154.156 38.3889L154.52 52.7949L156.157 68.3469L143.97 85.8634L120.505 97.1591L102.316 80.7885L79.9427 78.0056L99.1326 88.4008L113.32 94.7853L117.595 104.28L108.682 113.366L98.8598 104.853L85.8543 96.9135L75.3044 91.9205L75.8501 107.309L95.4038 111.401L102.952 115.167L93.9486 120.814L81.1251 127.199L70.3023 119.587L67.392 113.202L60.8438 108.209L51.84 107.882L38.016 118.359L33.5596 148.071L35.3785 168.207L27.1933 157.239"/><path id="shape12" transform="translate(1839.00126315789, 347.140042105263)" fill="#315142" fill-rule="evenodd" stroke="#315142" stroke-width="5.0904" stroke-linecap="square" stroke-linejoin="bevel" d="M27.8299 27.9936L61.5714 0L97.0408 12.4416L129.691 41.0082L144.333 89.1375L147.335 124.989L139.059 122.206L134.42 101.006L106.045 97.8957L96.0404 65.4821L53.8408 69.3292L41.6539 47.4745L28.3756 50.8305L16.4615 44.6097L0 38.7163L27.8299 27.9936"/><path id="shape13" transform="translate(2017.16715789474, 391.749726315789)" fill="#315142" fill-rule="evenodd" stroke="#315142" stroke-width="5.0904" stroke-linecap="square" stroke-linejoin="bevel" d="M0 53.9409L15.8248 2.04632L71.3937 0L93.9486 40.7626L99.3145 67.1192L44.2004 64.0088L36.7427 73.0125L34.7419 56.2328L32.9229 30.531L19.6446 50.9123L28.8303 66.628L31.1949 74.977L19.7356 75.9592L14.0059 61.3895L0 53.9409"/><path id="shape14" transform="translate(1964.23578947368, 392.404547368421)" fill="#36654f" fill-rule="evenodd" stroke="#36654f" stroke-width="5.0904" stroke-linecap="square" stroke-linejoin="bevel" d="M18.0076 0L0 19.3172L10.4589 65.8095L41.0173 81.6071L49.3844 59.8343L47.4745 28.0755L24.3739 9.16749L18.0076 0"/><path id="shape15" transform="translate(1782.61389473684, 374.56067368421)" fill="#36654f" fill-rule="evenodd" stroke="#36654f" stroke-width="5.0904" stroke-linecap="square" stroke-linejoin="bevel" d="M0 11.6231L40.1987 0L69.6657 1.14594L102.134 25.1288L117.595 73.7492L131.055 84.4719L119.596 94.4579L105.044 71.7029L88.4918 34.9511L68.1196 34.8692L31.2859 44.1186L14.8244 41.4993L25.1015 25.1288L16.3705 25.1288L11.7322 40.0259L3.09221 41.7448L4.82021 24.8832L0 11.6231"/><path id="shape16" transform="translate(1706.49094736842, 299.665515789474)" fill="#293e34" fill-rule="evenodd" stroke="#293e34" stroke-width="5.0904" stroke-linecap="square" stroke-linejoin="bevel" d="M223.185 124.089L203.813 84.2264L174.619 53.9409L130.237 0L59.4796 5.89339L19.2808 56.3965L2.54653 129.736L0 167.962L19.0989 146.434L6.63916 128.345L9.64042 105.999L14.5516 133.502L19.2808 146.434L37.1065 141.769L38.016 133.42L18.0985 104.035L20.736 61.9624L28.3756 102.398L40.0168 130.637L36.8337 138.577L60.5709 118.031L85.4905 98.1413L86.4 79.97L64.2088 54.7594L61.2985 25.3743L82.6712 54.3501L85.0358 78.0874L90.5836 84.2264L104.499 67.3647L120.414 50.5849L116.958 31.5133L130.146 33.314L125.962 49.6845L136.057 53.1224L139.24 41.663L174.528 69.7384L198.629 94.7035L204.723 119.75L223.185 124.089"/><path id="shape17" transform="translate(1791.05684210526, 479.710989473684)" fill="#612a03" fill-rule="evenodd" stroke="#612a03" stroke-width="5.0904" stroke-linecap="square" stroke-linejoin="bevel" d="M0 0L12.3688 119.669L398.895 125.889L413.083 1.96446L0 0"/><path id="shape18" transform="translate(1820.68771765788, 480.72638143863)" fill="#45250e" fill-rule="evenodd" stroke="#45250e" stroke-width="5.0904" stroke-linecap="square" stroke-linejoin="bevel" d="M6.62388 69.2806L16.5275 90.1748L74.0202 54.8689L104.181 69.6858L151.192 85.6024L155.05 72.5218L171.256 32.7593L138.201 0.347271L16.6562 0L0 46.708L6.62388 69.2806"/><path id="shape19" transform="translate(1787.26736842105, 402.223831578947)" fill="#315142" fill-rule="evenodd" stroke="#315142" stroke-width="5.0904" stroke-linecap="square" stroke-linejoin="bevel" d="M100.952 28.9758L73.6674 1.14594L43.1091 0L21.0998 21.7728L48.9297 14.8972L60.3891 28.321L40.0168 26.0291L22.7368 20.2995L0 60.8984L3.09221 98.0595L13.6421 150.281L62.208 134.238L87.4914 119.669L87.4914 111.974L51.4762 99.8602L45.4737 80.0519L73.8493 92.8209L82.5802 109.028L93.312 116.722L109.137 99.0417L110.592 82.9986L121.869 63.0265L143.697 41.7448L156.248 23.4099L124.962 14.4061L100.952 28.9758"/><path id="shape20" transform="translate(1898.84463157895, 413.273936842105)" fill="#36654f" fill-rule="evenodd" stroke="#36654f" stroke-width="5.0904" stroke-linecap="square" stroke-linejoin="bevel" d="M20.4632 0L6.18442 15.4701L5.00211 28.6484L24.0101 16.4524L46.2013 21.8547L55.4779 29.7944L30.2855 30.0399L12.7326 26.5203L5.45684 30.531L0 61.2258L4.63832 77.0233L32.6501 53.2042L56.2055 58.6883L67.3011 56.2328L43.2909 72.9307L20.0084 76.1229L4.91116 76.8596L11.2775 98.7143L39.0164 84.2264L64.6636 76.7778L82.7621 80.4611L66.5735 92.5753L39.1074 99.6147L12.5507 99.2872L26.1019 122.943L62.208 132.356L73.6674 101.252L88.0371 89.2194L83.5806 115.985L64.2088 131.865L105.681 142.342L114.048 153.31L124.325 127.281L124.78 110.419L108.136 91.4294L125.144 109.683L130.691 91.0201L119.96 91.9205L107.136 82.3437L120.323 79.7245L130.964 92.0842L136.421 67.1192L123.961 67.4466L112.411 57.788L97.8594 66.5462L97.8594 65.8095L113.502 55.6598L132.328 66.0551L138.331 67.1192L129.691 46.8197L123.416 24.7195L99.8602 26.4384L100.042 26.0291L82.3074 35.4422L76.6686 26.5203L69.7566 25.7017L67.4829 29.4669L52.0219 13.2601L20.4632 0"/><path id="shape21" transform="translate(2146.49431578947, 384.382989473684)" fill="#293e34" fill-rule="evenodd" stroke="#293e34" stroke-width="5.0904" stroke-linecap="square" stroke-linejoin="bevel" d="M0 99.2872L16.7343 46.9834L37.0156 23.0824L63.5722 1.71891L93.4939 0L103.043 7.03933L87.0366 7.12118L99.5874 10.6408L117.413 7.20303L147.426 22.3458L150.245 33.3959L175.074 48.5386L190.808 88.7283L178.166 83.326L160.431 95.1128L148.881 92.8209L160.704 79.6426L160.249 57.7061L150.973 74.8952L148.426 91.0201L136.421 95.1128L141.969 78.4967L142.787 62.0443L135.512 44.8552L129.054 68.7562L133.693 90.4472L128.509 93.7213L100.861 93.3939L114.048 73.6674L120.051 50.1757L121.142 38.2252L103.316 63.9269L101.315 86.6819L96.4042 92.8209L79.7608 75.0589L75.7592 67.2829L88.3099 60.4891L98.7688 33.3959L85.8543 53.1224L75.7592 60.9802L70.5752 51.1579L71.7575 37.6522L75.0316 25.538L66.8463 21.9365L69.12 14.4879L50.2939 22.1002L23.1006 51.1579L0 99.2872"/><path id="shape22" transform="translate(2092.60042105263, 384.055578947368)" fill="#36654f" fill-rule="evenodd" stroke="#36654f" stroke-width="5.0904" stroke-linecap="square" stroke-linejoin="bevel" d="M0 92.8633L6.41937 56.1509L49.0737 6.63006L105.279 0L105.461 0.245558L142.84 5.23857L133.928 27.4206L122.377 31.8407L117.921 16.2068L102.46 12.6053L106.825 23.4917L117.284 30.6129L120.467 44.9371L104.915 59.5069L105.825 46.7379L88.3629 36.2607L74.5389 28.894L86.7259 56.0691L99.0947 58.1154L88.1811 74.404L81.0872 72.5214L78.9954 61.0621L66.8994 49.8483L63.7162 46.083L61.3516 43.7912L67.0813 60.7347L75.7213 70.3114L78.8135 73.0125L81.1781 78.333L88.9086 79.6426L54.5305 88.6464L42.9802 80.1337L45.5267 65.8095L44.3444 51.3216L39.2514 55.2505L36.5229 66.4643L39.3423 73.8311L39.888 79.3152L29.7928 72.2759L26.3368 69.1655L22.3352 67.201L18.2425 73.5037L15.696 72.767L14.4227 75.9592L12.7781 84.6781L10.9137 92.3313L12.3234 93.3135L0 94.0911"/><path id="shape23" transform="translate(2084.42098101937, 481.999709557274)" fill="#45250e" fill-rule="evenodd" stroke="#45250e" stroke-width="5.0904" stroke-linecap="square" stroke-linejoin="bevel" d="M0 0L0.836024 0.0578786L9.71073 13.0806L47.0746 39.3574L92.3484 65.75L102.445 52.4958L106.497 60.2516L106.818 68.7597L112.927 67.4864L120.645 0.40515L0 0"/>
</svg>
