<?xml version="1.0" standalone="no"?>
<!DOCTYPE svg PUBLIC "-//W3C//DTD SVG 20010904//EN" "http://www.w3.org/TR/2001/REC-SVG-20010904/DTD/svg10.dtd">
<!-- Created using Krita: http://krita.org -->
<svg xmlns="http://www.w3.org/2000/svg" 
    xmlns:xlink="http://www.w3.org/1999/xlink"
    xmlns:krita="http://krita.org/namespaces/svg/krita"
    xmlns:sodipodi="http://sodipodi.sourceforge.net/DTD/sodipodi-0.dtd"
    width="2949.12pt"
    height="1555.2pt"
    viewBox="0 0 2949.12 1555.2">
<defs/>
<path id="shape0" transform="matrix(0.98255580743679 -0.185967923367123 0.185967920387631 0.982555791694735 1158.07831578947 857.329010526315)" fill="#655b48" fill-opacity="0.733333333333333" fill-rule="evenodd" stroke="#000000" stroke-opacity="0" stroke-width="0" stroke-linecap="square" stroke-linejoin="bevel" d="M655.594 141.703C649.982 123.617 668.311 110.99 648.299 43.3096L0 0L256.745 136.315"/><path id="shape0" transform="translate(1160.25344084646, 801.635024259146)" fill="#516154" fill-rule="evenodd" stroke="#516154" stroke-width="5.0904" stroke-linecap="square" stroke-linejoin="bevel" d="M0 53.1633L35.3331 53.0405L95.904 17.0663L52.3857 3.31503L13.7785 0L0 53.1633"/><path id="shape1" transform="matrix(0.961108478434516 -0.27617112934066 0.27617112934066 0.961108478434516 1132.2194839466 782.579100621339)" fill="#738368" fill-rule="evenodd" stroke="#738368" stroke-width="5.0904" stroke-linecap="square" stroke-linejoin="bevel" d="M0 74.4495L54.8413 0L98.0867 37.9842L0 74.4495"/><path id="shape01" transform="matrix(1.00000001967263 0 0 0.99999999949959 1672.53394808846 749.886029270977)" fill="#516154" fill-rule="evenodd" stroke="#516154" stroke-width="5.0904" stroke-linecap="square" stroke-linejoin="bevel" d="M0 41.4947L150.048 128.422L186.488 123.393L150.048 0L0 41.4947"/><path id="shape02" transform="matrix(1.00000003396857 0 0 0.999999990295635 1705.0608930562 788.380105205247)" fill="#738368" fill-rule="evenodd" stroke="#738368" stroke-width="5.0904" stroke-linecap="square" stroke-linejoin="bevel" d="M62.208 0L111.32 90.6927L0 23.2461L62.208 0"/><path id="shape2" transform="translate(1284.12490499058, 822.711164455843)" fill="#516154" fill-rule="evenodd" stroke="#516154" stroke-width="5.0904" stroke-linecap="square" stroke-linejoin="bevel" d="M0 41.4947L150.048 128.422L186.488 123.393L150.048 0L0 41.4947"/><path id="shape3" transform="translate(1322.52899303003, 861.70455140767)" fill="#738368" fill-rule="evenodd" stroke="#738368" stroke-width="5.0904" stroke-linecap="square" stroke-linejoin="bevel" d="M62.208 0L111.32 90.6927L0 23.2461L62.208 0"/><path id="shape4" transform="translate(1097.28, 212.562189473684)" fill="#b0510d" fill-rule="evenodd" stroke="#b0510d" stroke-width="28.8" stroke-linecap="square" stroke-linejoin="bevel" d="M0 33.6414L0.818526 308.175L1.63705 565.038L205.177 663.497L859.453 565.038L881.826 25.7836L229.733 0L0 33.6414"/><path id="shape5" transform="translate(1089.09473684211, 213.544421052631)" fill="#c48343" fill-rule="evenodd" stroke="#c48343" stroke-width="28.8" stroke-linecap="square" stroke-linejoin="bevel" d="M0.272842 36.8337L0 564.056L203.54 661.779L213.635 0L0.272842 36.8337"/><path id="shape6" transform="translate(1372.57768421053, 295.3152)" fill="#dbb386" fill-rule="evenodd" stroke="#dbb386" stroke-width="28.8" stroke-linecap="square" stroke-linejoin="bevel" d="M6.54821 4.17448L0 234.999L548.413 178.029L554.688 0L6.54821 4.17448"/><path id="shape7" transform="translate(1367.91663157895, 288.985263157895)" fill="#8a6f51" fill-rule="evenodd" stroke="#8a6f51" stroke-width="23.04" stroke-linecap="square" stroke-linejoin="bevel" d="M531.701 0L523.713 201.667L0 236.327L4.57011 247.4L554.893 188.343L560.486 179.626L562.123 10.9273L551.755 0.245558L531.701 0"/><path id="shape8" transform="translate(1432.30736842105, 386.435368421053)" fill="#dbc5ad" fill-rule="evenodd" stroke="#dbc5ad" stroke-width="28.8" stroke-linecap="square" stroke-linejoin="bevel" d="M2.592 7.98063L0 48.1293L340.916 22.5913L343.099 0L2.592 7.98063"/><path id="shape9" transform="translate(1439.48463157895, 389.645810526316)" fill="#fffaf5" fill-rule="evenodd" stroke="#fffaf5" stroke-width="28.8" stroke-linecap="square" stroke-linejoin="bevel" d="M1.45516 11.0501L0 35.1148L322.681 11.3775L323.045 0L1.45516 11.0501"/><path id="shape10" transform="translate(1488.96, 367.400084210526)" fill="#b3301e" fill-rule="evenodd" stroke="#b3301e" stroke-width="13.0464" stroke-linecap="square" stroke-linejoin="bevel" d="M0 0.122779C10.9929 31.6435 14.2123 62.5083 5.82063 92.3934L10.1861 90.9201L18.1895 44.6733L2.18274 0"/><path id="shape11" transform="translate(1539.52673684211, 372.129347368421)" fill="#8a6f51" fill-rule="evenodd" stroke="#8a6f51" stroke-width="5.0904" stroke-linecap="square" stroke-linejoin="bevel" d="M0.545684 0L0 10.0679L7.09389 26.7658L7.63958 38.7981L9.54947 25.0469L3.27411 12.6872L0.545684 0"/><path id="shape03" transform="matrix(0.999999965407595 0 0 0.999999980564256 1572.98762706319 370.262683423465)" fill="#8a6f51" fill-rule="evenodd" stroke="#8a6f51" stroke-width="5.0904" stroke-linecap="square" stroke-linejoin="bevel" d="M0.431793 0L0 9.61183L5.6133 25.5533L6.0451 37.0406L7.55637 23.9123L2.59076 12.1125L0.431793 0"/><path id="shape04" transform="matrix(0.999999965407595 0 0 0.999999980564256 1633.05836390529 367.438767633992)" fill="#8a6f51" fill-rule="evenodd" stroke="#8a6f51" stroke-width="5.0904" stroke-linecap="square" stroke-linejoin="bevel" d="M0.545684 0L0 10.0679L7.09389 26.7658L7.63958 38.7981L9.54947 25.0469L3.27411 12.6872L0.545684 0"/><path id="shape05" transform="matrix(0.999999965407595 0 0 0.999999980564256 1663.84404811582 364.573925528728)" fill="#8a6f51" fill-rule="evenodd" stroke="#8a6f51" stroke-width="5.0904" stroke-linecap="square" stroke-linejoin="bevel" d="M0.398012 0L0 9.67555L5.17416 25.7227L5.57218 37.2861L6.96522 24.0708L2.38808 12.1928L0.398012 0"/><path id="shape06" transform="matrix(0.999999965407595 0 0 0.999999980564256 1691.03731127371 364.041883423465)" fill="#8a6f51" fill-rule="evenodd" stroke="#8a6f51" stroke-width="5.0904" stroke-linecap="square" stroke-linejoin="bevel" d="M0.545684 0L0 10.0679L7.09389 26.7658L7.63958 38.7981L9.54947 25.0469L3.27411 12.6872L0.545684 0"/><path id="shape07" transform="matrix(0.999999965407595 0 0 0.999999980564256 1717.54846916845 362.568536055044)" fill="#8a6f51" fill-rule="evenodd" stroke="#8a6f51" stroke-width="5.0904" stroke-linecap="square" stroke-linejoin="bevel" d="M0.545684 0L0 10.0679L7.09389 26.7658L7.63958 38.7981L9.54947 25.0469L3.27411 12.6872L0.545684 0"/><path id="shape08" transform="matrix(0.999999965407595 0 0 0.999999980564256 1742.3771007474 361.995567633992)" fill="#8a6f51" fill-rule="evenodd" stroke="#8a6f51" stroke-width="5.0904" stroke-linecap="square" stroke-linejoin="bevel" d="M0.545684 0L0 10.0679L7.09389 26.7658L7.63958 38.7981L9.54947 25.0469L3.27411 12.6872L0.545684 0"/><path id="shape09" transform="matrix(0.999999965407595 0 0 0.999999980564256 1469.78526516517 371.367693949781)" fill="#8a6f51" fill-rule="evenodd" stroke="#8a6f51" stroke-width="5.0904" stroke-linecap="square" stroke-linejoin="bevel" d="M0.545684 0L0 10.0679L7.09389 26.7658L7.63958 38.7981L9.54947 25.0469L3.27411 12.6872L0.545684 0"/><path id="shape010" transform="matrix(0.999999965407595 0 0 0.999999980564256 1508.27857443161 373.454936055044)" fill="#8a6f51" fill-rule="evenodd" stroke="#8a6f51" stroke-width="5.0904" stroke-linecap="square" stroke-linejoin="bevel" d="M0.545684 0L0 10.0679L7.09389 26.7658L7.63958 38.7981L9.54947 25.0469L3.27411 12.6872L0.545684 0"/><path id="shape011" transform="matrix(0.999999965407595 0 0 0.999999980564256 1603.2731007474 369.15767289715)" fill="#8a6f51" fill-rule="evenodd" stroke="#8a6f51" stroke-width="5.0904" stroke-linecap="square" stroke-linejoin="bevel" d="M0.545684 0L0 10.0679L7.09389 26.7658L7.63958 38.7981L9.54947 25.0469L3.27411 12.6872L0.545684 0"/><path id="shape12" transform="translate(1430.0867368421, 318.267284210526)" fill="#fffaf5" fill-rule="evenodd" stroke="#fffaf5" stroke-width="5.0904" stroke-linecap="square" stroke-linejoin="bevel" d="M0 0L0 30.6129L44.4733 26.1928L44.4733 0.654821L0 0"/><path id="shape13" transform="translate(1730.75115789474, 311.294652631579)" fill="#f53707" fill-rule="evenodd" stroke="#f53707" stroke-width="5.0904" stroke-linecap="square" stroke-linejoin="bevel" d="M0.682105 0L0 22.7141L118.686 17.9257L119.368 4.91116L0.682105 0"/><path id="shape14" transform="translate(1018.45894736842, 324.324378947368)" fill="#8a6f51" fill-rule="evenodd" stroke="#8a6f51" stroke-width="5.0904" stroke-linecap="square" stroke-linejoin="bevel" d="M101.133 39.6167L0.727579 176.474L0 242.939L50.7486 244.412L50.2029 214.29L175.165 104.444L184.805 73.5037L164.797 33.0685L140.059 0L101.133 39.6167"/><path id="shape15" transform="translate(1108.13305263158, 350.680926315789)" fill="#516154" fill-rule="evenodd" stroke="#516154" stroke-width="5.0904" stroke-linecap="square" stroke-linejoin="bevel" d="M8.54905 68.9199L30.3764 86.4364L50.0211 52.222L41.2901 17.6802L14.9154 0L0 18.9898L8.54905 68.9199"/><path id="shape16" transform="translate(1110.13389473684, 361.158063157895)" fill="#738368" fill-rule="evenodd" stroke="#738368" stroke-width="5.0904" stroke-linecap="square" stroke-linejoin="bevel" d="M0 0L17.8257 6.54821L27.2842 30.2855L26.7385 55.1687L12.7326 65.3184L1.45516 49.2753L0 0"/><path id="shape17" transform="translate(1441.80378947368, 664.513010526316)" fill="#516154" fill-rule="evenodd" stroke="#516154" stroke-width="5.0904" stroke-linecap="square" stroke-linejoin="bevel" d="M32.7562 2.11907L11.0956 7.85785L0 29.5488L1.36421 58.3609L12.4598 79.3971L32.7562 85.6179L86.9457 86.2727L104.862 74.404L111.774 47.7201L108.227 31.7588L102.952 23.8191L90.4926 18.6624L83.1259 15.0609L72.8488 11.2138L63.2994 7.03933L54.9322 3.02855L48.2931 0L32.7562 2.11907"/><path id="shape012" transform="matrix(0.999999965507561 0 0 0.999999987054853 1648.87408323535 642.985768421053)" fill="#516154" fill-rule="evenodd" stroke="#516154" stroke-width="5.0904" stroke-linecap="square" stroke-linejoin="bevel" d="M30.709 2.031L10.4021 7.53127L0 28.3207L1.27895 55.9354L11.6811 76.0973L30.709 82.0596L81.5117 82.6871L98.3082 71.3117L104.788 45.7368L101.463 30.4389L96.5176 22.8292L84.8369 17.8868L77.9306 14.435L68.2958 10.7477L59.3433 6.74677L51.499 2.90268L45.2748 0L30.709 2.031"/><path id="shape013" transform="matrix(0.999999965507561 0 0 0.999999987054853 1833.86103060378 614.746610526316)" fill="#516154" fill-rule="evenodd" stroke="#516154" stroke-width="5.0904" stroke-linecap="square" stroke-linejoin="bevel" d="M27.404 1.91238L9.28264 7.09141L0 26.6667L1.14131 52.6685L10.4239 71.6529L27.404 77.2669L72.7393 77.8578L87.7281 67.1468L93.5108 43.0656L90.5433 28.6611L86.1302 21.4958L75.7066 16.8421L69.5436 13.5919L60.9457 10.12L52.9566 6.35273L45.9566 2.73315L40.4023 0L27.404 1.91238"/><path id="shape18" transform="translate(1504.13305263158, 686.940631578947)" fill="#738368" fill-rule="evenodd" stroke="#738368" stroke-width="5.0904" stroke-linecap="square" stroke-linejoin="bevel" d="M24.3324 0.213889L39.1757 4.74745L43.8707 11.4594L47.5352 22.8369L47.0771 33.5596L45.932 41.7448L41.924 50.012L34.2516 56.642L27.4903 63.0989L12.2674 59.1632L5.30373 52.2756L1.98384 42.9861L0 33.4362L1.90286 23.047L2.34822 17.1723L6.11346 10.7767L14.899 3.62872L24.6326 0"/><path id="shape19" transform="translate(1716.79571888673, 664.021894736842)" fill="#738368" fill-rule="evenodd" stroke="#738368" stroke-width="5.0904" stroke-linecap="square" stroke-linejoin="bevel" d="M26.5227 0L14.0499 0.982232L8.17187 10.3953L3.44079 17.9257L0 34.1325L0.716831 43.7912L5.16118 53.9409L14.3366 57.6243L21.6483 56.9694L35.4114 41.9085L33.8344 16.5342L26.5227 0"/><path id="shape20" transform="translate(1899.75624906558, 640.713049784566)" fill="#738368" fill-rule="evenodd" stroke="#738368" stroke-width="5.0904" stroke-linecap="square" stroke-linejoin="bevel" d="M23.9181 0.327411L11.959 0L4.48464 12.1142L0 35.4422L8.22184 52.3038L18.2375 47.8019L24.6655 29.3032L27.2068 19.4809L23.9181 0.327411"/><path id="shape21" transform="translate(1445.47393441413, 679.414871897759)" fill="#738368" fill-rule="evenodd" stroke="#738368" stroke-width="5.0904" stroke-linecap="square" stroke-linejoin="bevel" d="M8.29593 0L0 15.3957L76.5926 34.2641L83.8596 21.1835L8.29593 0"/><path id="shape22" transform="translate(1654.80135997903, 655.684666050309)" fill="#738368" fill-rule="evenodd" stroke="#738368" stroke-width="5.0904" stroke-linecap="square" stroke-linejoin="bevel" d="M7.00974 0L0 14.9905L82.3162 35.1323L85.2744 25.9296L7.00974 0"/><path id="shape23" transform="translate(1837.54752515474, 628.308111499471)" fill="#738368" fill-rule="evenodd" stroke="#738368" stroke-width="5.0904" stroke-linecap="square" stroke-linejoin="bevel" d="M4.88752 0L0 14.8748L70.7405 32.5277L74.5678 24.3924L4.88752 0"/>
</svg>
