<?xml version="1.0" standalone="no"?>
<!DOCTYPE svg PUBLIC "-//W3C//DTD SVG 20010904//EN" "http://www.w3.org/TR/2001/REC-SVG-20010904/DTD/svg10.dtd">
<!-- Created using Krita: http://krita.org -->
<svg xmlns="http://www.w3.org/2000/svg" 
    xmlns:xlink="http://www.w3.org/1999/xlink"
    xmlns:krita="http://krita.org/namespaces/svg/krita"
    xmlns:sodipodi="http://sodipodi.sourceforge.net/DTD/sodipodi-0.dtd"
    width="2949.12pt"
    height="1555.2pt"
    viewBox="0 0 2949.12 1555.2">
<defs>
  <linearGradient id="gradient0" gradientUnits="objectBoundingBox" x1="0" y1="0" x2="1" y2="1" spreadMethod="pad">
   <stop stop-color="#ac725c" offset="0" stop-opacity="0.450980392156863"/>
   <stop stop-color="#956758" offset="1" stop-opacity="0.631372549019608"/>
  </linearGradient>
 </defs>
<path id="shape0" transform="translate(135.056842105263, 997.492547368421)" fill="url(#gradient0)" fill-rule="evenodd" stroke="#000000" stroke-opacity="0" stroke-width="0" stroke-linecap="square" stroke-linejoin="bevel" d="M109.137 0L0 14.2424L246.649 264.22L600.253 218.055L109.137 0"/><path id="shape1" transform="translate(244.951578947368, 905.017263157894)" fill="#923023" fill-rule="evenodd" stroke="#923023" stroke-width="5.0904" stroke-linecap="square" stroke-linejoin="bevel" d="M0 110.992L9.64042 45.1827L42.9272 15.552L367.064 0L620.807 132.274L640.815 183.677L624.445 212.489L641.543 237.209L635.722 275.516L602.799 293.851L237.918 345.582L205.359 340.834L0 110.992"/><path id="shape2" transform="translate(256.774736842105, 952.000673684211)" fill="#761b06" fill-rule="evenodd" stroke="#761b06" stroke-width="5.0904" stroke-linecap="square" stroke-linejoin="bevel" d="M1.27326 0L211.544 195.137L198.993 243.757L213.726 278.954L608.074 224.931L567.875 243.102L217.728 292.869L188.989 283.865L0 65.8095L1.27326 0"/><path id="shape3" transform="translate(480.323368421053, 1133.05869473684)" fill="#761b06" fill-rule="evenodd" stroke="#761b06" stroke-width="5.0904" stroke-linecap="square" stroke-linejoin="bevel" d="M23.2825 39.7804L0 60.5709L5.82063 79.2333L398.531 25.538L397.44 8.67638L383.798 0L23.2825 39.7804"/><path id="shape4" transform="translate(508.698947368421, 1072.65145263158)" fill="#761b06" fill-rule="evenodd" stroke="#761b06" stroke-width="5.0904" stroke-linecap="square" stroke-linejoin="bevel" d="M0 78.7422L355.422 43.5456L373.248 15.2246L362.88 0L29.4669 41.9085L0 78.7422"/><path id="shape5" transform="translate(280.057263157895, 927.936)" fill="#cc4937" fill-rule="evenodd" stroke="#cc4937" stroke-width="5.0904" stroke-linecap="square" stroke-linejoin="bevel" d="M0 18.6624L196.264 204.795L219.365 178.602L123.325 76.2867L126.417 29.7944L188.625 0L18.3714 1.63705L0 18.6624"/><path id="shape6" transform="translate(604.375578947368, 936.284968421053)" fill="#761b06" fill-rule="evenodd" stroke="#761b06" stroke-width="5.0904" stroke-linecap="square" stroke-linejoin="bevel" d="M56.3874 40.4352L151.882 40.1078L176.074 46.9834L167.707 26.1928L131.146 10.9683L69.8476 0.491116L12.5507 0L0 10.1497L20.1903 34.0507L56.3874 40.4352"/><path id="shape7" transform="translate(623.656421052632, 940.050189473684)" fill="#cc4937" fill-rule="evenodd" stroke="#cc4937" stroke-width="5.0904" stroke-linecap="square" stroke-linejoin="bevel" d="M0 0L20.9179 9.16749L134.42 15.2246L103.68 1.96446L0 0"/><path id="shape8" transform="translate(640.026947368421, 926.626357894737)" fill="#c27a3f" fill-rule="evenodd" stroke="#c27a3f" stroke-width="5.0904" stroke-linecap="square" stroke-linejoin="bevel" d="M0 13.7512L12.7326 0L42.5634 3.92893L55.296 19.3172L41.1082 26.684L0 13.7512"/><path id="shape9" transform="translate(643.566612422881, 929.160818804453)" fill="#f4aa55" fill-rule="evenodd" stroke="#f4aa55" stroke-width="5.0904" stroke-linecap="square" stroke-linejoin="bevel" d="M0 9.14481L33.3123 22.9199L48.1035 17.1899L32.7335 14.0066L32.7335 3.35696L38.9072 2.83605L13.4407 0L0 9.14481"/><path id="shape10" transform="translate(653.972210526316, 931.786105263158)" fill="#f7b8a6" fill-rule="evenodd" stroke="#f7b8a6" stroke-width="5.0904" stroke-linecap="square" stroke-linejoin="bevel" d="M0 8.51267L16.0977 12.8509L12.096 0L0 8.51267"/><path id="shape11" transform="translate(652.608, 930.722021052632)" fill="#fff0ec" fill-rule="evenodd" stroke="#fff0ec" stroke-width="5.0904" stroke-linecap="square" stroke-linejoin="bevel" d="M12.4598 10.1497L0 7.20303L5.00211 0L12.4598 10.1497"/>
</svg>
