<?xml version="1.0" standalone="no"?>
<!DOCTYPE svg PUBLIC "-//W3C//DTD SVG 20010904//EN" "http://www.w3.org/TR/2001/REC-SVG-20010904/DTD/svg10.dtd">
<!-- Created using Krita: http://krita.org -->
<svg xmlns="http://www.w3.org/2000/svg" 
    xmlns:xlink="http://www.w3.org/1999/xlink"
    xmlns:krita="http://krita.org/namespaces/svg/krita"
    xmlns:sodipodi="http://sodipodi.sourceforge.net/DTD/sodipodi-0.dtd"
    width="2949.12pt"
    height="1555.2pt"
    viewBox="0 0 2949.12 1555.2">
<defs/>
<path id="shape0" transform="translate(2358.97982155136, 1139.22492631579)" fill="#8fafa2" fill-rule="evenodd" stroke="#8fafa2" stroke-width="3.0456" stroke-linecap="square" stroke-linejoin="bevel" d="M12.6687 232.287C9.84122 192.833 -13.4813 164.079 11.2678 110.227C16.421 96.0467 29.6722 81.8583 54.2689 68.3581L55.5262 0L104.861 0.773426L106.733 67.8463C134.937 80.3177 145.327 95.8177 155.655 110.227C178.88 150.765 155.681 203.994 150.173 234.33L12.8303 232.494"/><path id="shape1" transform="translate(2408.05854450796, 1117.18443794608)" fill="#297278" fill-rule="evenodd" stroke="#297278" stroke-width="3.0456" stroke-linecap="square" stroke-linejoin="bevel" d="M0.575862 0L0 26.6241L63.3449 26.1032L60.9262 3.35696L0.575862 0"/><path id="shape2" transform="translate(2385.88294736842, 1221.43528421053)" fill="#5c8685" fill-rule="evenodd" stroke="#5c8685" stroke-width="3.0456" stroke-linecap="square" stroke-linejoin="bevel" d="M14.9154 142.096L0 69.9021L15.0973 18.8261L44.3823 0L20.5541 50.5849L25.4653 109.355L14.9154 142.096"/><path id="shape3" transform="translate(2420.88252631579, 1153.50063157895)" fill="#5c8685" fill-rule="evenodd" stroke="#5c8685" stroke-width="3.0456" stroke-linecap="square" stroke-linejoin="bevel" d="M0 53.1224L0.545684 0.900379L9.45853 0L0 53.1224"/><ellipse id="shape4" transform="translate(2396.9533353365, 1241.35946182293)" rx="45" ry="45.36" cx="45" cy="45.36" fill="#962424" fill-rule="evenodd" stroke="#962424" stroke-width="3.0456" stroke-linecap="square" stroke-linejoin="bevel"/><path id="shape5" transform="translate(2384.73094736842, 1319.00513684211)" fill="#ff0000" fill-rule="evenodd" stroke="#ff0000" stroke-width="3.0456" stroke-linecap="square" stroke-linejoin="bevel" d="M0 0L3.41053 27.6253L107.636 26.2747L115.549 6.50728L0 0"/>
</svg>
