<?xml version="1.0" standalone="no"?>
<!DOCTYPE svg PUBLIC "-//W3C//DTD SVG 20010904//EN" "http://www.w3.org/TR/2001/REC-SVG-20010904/DTD/svg10.dtd">
<!-- Created using Krita: http://krita.org -->
<svg xmlns="http://www.w3.org/2000/svg" 
    xmlns:xlink="http://www.w3.org/1999/xlink"
    xmlns:krita="http://krita.org/namespaces/svg/krita"
    xmlns:sodipodi="http://sodipodi.sourceforge.net/DTD/sodipodi-0.dtd"
    width="2949.12pt"
    height="1555.2pt"
    viewBox="0 0 2949.12 1555.2">
<defs/>
<path id="shape0" transform="matrix(0.999999991339729 0 0 0.999999988432918 2067.51828261662 658.199159923682)" fill="#923023" fill-rule="evenodd" stroke="#923023" stroke-width="3.0456" stroke-linecap="square" stroke-linejoin="bevel" d="M1.53433 604.023L0 264.391C10.212 228.344 17.5637 201.305 51.419 165.761C48.3764 128.621 45.2924 91.4796 58.6493 52.6818C66.6535 33.3272 64.5084 16.6021 61.3777 0.132454L113.185 0C112.548 17.4234 111.516 35.4606 116.657 50.3543C131.069 88.7078 133.273 126.161 129.262 164.667C145.253 176.945 165.969 200.464 185.597 265.804L184.89 606.04L1.53433 604.023"/><path id="shape0" transform="translate(2076.16926315789, 833.496252631579)" fill="#761b06" fill-rule="evenodd" stroke="#761b06" stroke-width="3.0456" stroke-linecap="square" stroke-linejoin="bevel" d="M42.6998 2.21002L21.0088 30.0808L0 85.3314L1.63705 415.607C56.16 416.589 110.683 417.571 165.206 418.553L167.252 94.0487L152.382 46.9016L137.649 20.2585L116.367 0L130.419 39.7804L126.735 61.2667L104.499 88.1553L106.818 374.844L75.0316 376.563L73.8038 89.6286L46.9288 77.7191L37.7886 54.2683L39.4257 30.9403L42.6998 2.21002"/><path id="shape1" transform="translate(2145.33473684211, 662.155957894737)" fill="#761b06" fill-rule="evenodd" stroke="#761b06" stroke-width="3.0456" stroke-linecap="square" stroke-linejoin="bevel" d="M14.5971 163.91L35.6059 173.487L47.3381 165.997L46.3832 159.244L48.8387 115.444L42.5634 79.8063L31.3768 49.7255L28.9213 31.3086L27.6935 5.64783L27.2842 0L0.954947 2.21002L0 35.6059L13.2328 48.866L30.2855 115.444L27.2842 145.37L14.5971 163.91"/><path id="shape2" transform="translate(2139.19578947368, 717.171536842105)" fill="#ef7f57" fill-rule="evenodd" stroke="#ef7f57" stroke-width="3.0456" stroke-linecap="square" stroke-linejoin="bevel" d="M9.46232 0.0765474L1.94021 24.3512C-0.683966 42.4899 1.30494 52.5793 4.57768 60.4285C9.20339 74.5396 6.19353 76.9749 4.94147 82.0982C3.47028 86.1114 2.44147 89.7762 1.94021 93.0255L0 107.912C3.1398 102.074 5.80028 96.2447 12.1415 90.3547C15.4158 82.7921 20.8399 78.0807 16.5069 60.4285C15.1707 52.6356 15.2992 46.6552 11.3229 35.5953C8.36676 24.7863 9.43358 12.1998 9.62526 0"/><path id="shape3" transform="translate(2123.08993443736, 837.115957894737)" fill="#ef7f57" fill-rule="evenodd" stroke="#ef7f57" stroke-width="3.0456" stroke-linecap="square" stroke-linejoin="bevel" d="M18.5614 0C32.2349 16.6649 42.339 11.8996 51.4389 1.10501C60.605 5.66732 67.5561 20.1438 72.1749 45.0599C71.9743 51.8956 69.7919 57.2522 67.1273 62.2489C64.0421 66.5057 61.4857 70.5908 54.8494 76.0002C50.519 80.0943 42.4552 80.3568 34.7955 81.0341C27.1768 79.4033 19.555 77.5055 11.8768 70.8435C7.72392 67.8334 4.37773 62.8745 1.37238 57.0922C-0.625921 47.078 -3.64662 17.8303 18.5614 0"/><path id="shape4" transform="translate(2125.81136842105, 629.184505263158)" fill="#accdc5" fill-rule="evenodd" stroke="#accdc5" stroke-width="3.0456" stroke-linecap="square" stroke-linejoin="bevel" d="M1.40968 54.5957L58.7672 54.1849L57.2059 0L0 0.327411L1.18232 54.9231"/><path id="shape5" transform="translate(2081.85347368421, 930.277894736842)" fill="#accdc5" fill-rule="evenodd" stroke="#accdc5" stroke-width="3.0456" stroke-linecap="square" stroke-linejoin="bevel" d="M0 0L0 180.362L154.429 181.222L155.52 14.3651L154.565 8.47175L153.61 1.10501L0 0"/><path id="shape6" transform="translate(2097.67831578947, 1134.82762105263)" fill="#accdc5" fill-rule="evenodd" stroke="#accdc5" stroke-width="3.0456" stroke-linecap="square" stroke-linejoin="bevel" d="M0 0L0.136421 18.1713L115.685 19.8902L116.367 2.82392L0 0"/><ellipse id="shape7" transform="translate(2129.04, 954)" rx="30.6000000000001" ry="33.12" cx="30.6000000000001" cy="33.12" fill="#f4aa55" fill-rule="evenodd" stroke="#f4aa55" stroke-width="3.0456" stroke-linecap="square" stroke-linejoin="bevel"/><rect id="shape8" transform="translate(2103.12, 950.4)" fill="none" stroke="#558f81" stroke-width="10.08" stroke-linecap="square" stroke-linejoin="bevel" width="112.32" height="98.64"/><path id="shape9" transform="translate(2092.08505263158, 985.528421052631)" fill="#f4aa55" fill-rule="evenodd" stroke="#f4aa55" stroke-width="3.0456" stroke-linecap="square" stroke-linejoin="bevel" d="M39.0164 5.27949L17.7347 2.21002L13.3693 14.6107L24.8286 25.7836L2.45558 28.1164L0 35.4831L134.92 37.202L130.691 25.9064L105.863 28.8531L123.87 13.2601L117.049 0L90.72 8.84008L39.0164 5.27949"/><path id="shape10" transform="translate(2095.49557894737, 1065.33473684211)" fill="#cc4937" fill-rule="evenodd" stroke="#cc4937" stroke-width="3.0456" stroke-linecap="square" stroke-linejoin="bevel" d="M0 0L2.04632 14.3651L71.8939 15.3474L68.7562 4.91116L0 0"/><path id="shape11" transform="translate(2172.70989473684, 1067.54475789474)" fill="#cc4937" fill-rule="evenodd" stroke="#cc4937" stroke-width="3.0456" stroke-linecap="square" stroke-linejoin="bevel" d="M0 3.19225L3.41053 10.6818L47.2017 13.1373L45.8375 0L0 3.19225"/><path id="shape12" transform="translate(2125.36421052632, 657.792)" fill="#558f81" fill-rule="evenodd" stroke="#558f81" stroke-width="3.0456" stroke-linecap="square" stroke-linejoin="bevel" d="M0 0L0.500211 6.79377L58.9794 6.91655L58.9339 1.10501L0 0"/><path id="shape13" transform="translate(2125.3187368421, 670.683789473684)" fill="#558f81" fill-rule="evenodd" stroke="#558f81" stroke-width="3.0456" stroke-linecap="square" stroke-linejoin="bevel" d="M0 1.35057L0.0909474 6.34358L59.6615 5.36135L59.1613 0L0 1.35057"/><path id="shape14" transform="translate(2140.79494736842, 626.678905263158)" fill="#d1eedc" fill-rule="evenodd" stroke="#d1eedc" stroke-width="3.0456" stroke-linecap="square" stroke-linejoin="bevel" d="M0 2.70114L2.27368 77.9237L4.22905 114.471L36.5154 115.249L32.2863 55.0459L31.5587 0L0 2.70114"/><ellipse id="shape15" transform="translate(2151.36, 704.88)" rx="9" ry="10.8" cx="9" cy="10.8" fill="#f4aa55" fill-rule="evenodd" stroke="#f4aa55" stroke-width="3.0456" stroke-linecap="square" stroke-linejoin="bevel"/>
</svg>
