<?xml version="1.0" standalone="no"?>
<!DOCTYPE svg PUBLIC "-//W3C//DTD SVG 20010904//EN" "http://www.w3.org/TR/2001/REC-SVG-20010904/DTD/svg10.dtd">
<!-- Created using Krita: http://krita.org -->
<svg xmlns="http://www.w3.org/2000/svg" 
    xmlns:xlink="http://www.w3.org/1999/xlink"
    xmlns:krita="http://krita.org/namespaces/svg/krita"
    xmlns:sodipodi="http://sodipodi.sourceforge.net/DTD/sodipodi-0.dtd"
    width="2949.12pt"
    height="1555.2pt"
    viewBox="0 0 2949.12 1555.2">
<defs/>
<path id="shape0" transform="matrix(-0.983017423111369 -0.183512298657529 0.183512274845632 -0.98301737397252 964.778081563652 666.248408584335)" fill="#655b48" fill-opacity="0.733333333333333" fill-rule="evenodd" stroke="#000000" stroke-opacity="0" stroke-width="0" stroke-linecap="square" stroke-linejoin="bevel" d="M534.89 214.429C529.278 196.343 476.587 67.6804 456.575 0L0 10.5269L126.439 105.994"/><path id="shape0" transform="translate(187.654736842105, 161.940884210526)" fill="#3e5366" fill-rule="evenodd" stroke="#3e5366" stroke-width="11.5992" stroke-linecap="square" stroke-linejoin="bevel" d="M0 7.03933L0.181895 260.455L339.416 399.113L493.48 367.846L507.668 54.0227L140.423 0L0 7.03933"/><path id="shape1" transform="translate(524.523789473684, 260.000336842105)" fill="#203344" fill-rule="evenodd" stroke="#203344" stroke-width="11.5992" stroke-linecap="square" stroke-linejoin="bevel" d="M4.00168 50.7486L0 272.733L166.252 214.618L175.347 0L4.00168 50.7486"/><path id="shape2" transform="translate(180.015157894737, 170.126147368421)" fill="#648b88" fill-rule="evenodd" stroke="#648b88" stroke-width="11.5992" stroke-linecap="square" stroke-linejoin="bevel" d="M0 0L0.909474 68.2651L342.69 165.179L520.947 133.092L524.584 42.7271L338.324 69.5747L0 0"/><path id="shape3" transform="translate(176.013473684211, 378.850357894737)" fill="#648b88" fill-rule="evenodd" stroke="#648b88" stroke-width="11.5992" stroke-linecap="square" stroke-linejoin="bevel" d="M0 0L0.363789 54.3501L349.784 198.083L516.035 155.193L515.308 90.529L352.33 120.978L0 0"/><path id="shape4" transform="translate(182.826947368421, 176.897178947368)" fill="#a6bebd" fill-rule="evenodd" stroke="#a6bebd" stroke-width="11.5992" stroke-linecap="square" stroke-linejoin="bevel" d="M344.327 66.7917L340.78 65.8095L338.188 162.559L4.22905 65.6867L1.22779 65.6867L0.682105 61.3895L0 0L344.327 66.7917"/><path id="shape5" transform="translate(178.052210526316, 382.183578947368)" fill="#a6bebd" fill-rule="evenodd" stroke="#a6bebd" stroke-width="11.5992" stroke-linecap="square" stroke-linejoin="bevel" d="M0.272842 0L0 47.2699L343.781 193.377L346.509 117.991L0.272842 0"/><ellipse id="shape6" transform="matrix(0.992302302477642 -0.123839171902806 0.123839171902806 0.992302302477642 211.18075816878 263.649046739338)" rx="95.4" ry="104.76" cx="95.4" cy="104.76" fill="#203344" fill-rule="evenodd" stroke="#203344" stroke-width="11.5992" stroke-linecap="square" stroke-linejoin="bevel"/><ellipse id="shape7" transform="matrix(0.995782957453175 -0.0917404035624919 0.0917404035624919 0.995782957453175 172.512379780762 277.793320306695)" rx="71.5867723600205" ry="104.928312202731" cx="71.5867723600205" cy="104.928312202731" fill="#203344" fill-rule="evenodd" stroke="#203344" stroke-width="11.5992" stroke-linecap="square" stroke-linejoin="bevel"/><path id="shape8" transform="translate(228.937263157895, 252.651789473684)" fill="#203344" fill-rule="evenodd" stroke="#203344" stroke-width="11.5992" stroke-linecap="square" stroke-linejoin="bevel" d="M52.6585 226.527L123.052 201.235L78.8514 0C52.5676 6.38451 26.2838 12.769 0 19.1535L37.2429 210.566"/><path id="shape9" transform="translate(185.797894736842, 294.126821052631)" fill="#3e5366" fill-rule="evenodd" stroke="#3e5366" stroke-width="11.5992" stroke-linecap="square" stroke-linejoin="bevel" d="M22.4185 2.70114L12.2779 16.2887L1.63705 48.3749L0 77.7191L2.41011 104.321L13.6876 137.062L27.7844 159.408L39.9714 171.972L49.0206 177.579L58.2821 184.438L68.1044 183.456L81.6707 170.253L57.7971 162.314L36.7276 144.781L29.9065 130.293L24.5861 113.226L18.0379 93.3363L26.0867 41.5235L32.7714 30.8418L41.0931 27.404L42.7301 24.58L24.4194 0L31.0131 2.12817"/><path id="shape10" transform="translate(195.847578947368, 297.716364956959)" fill="#1e2730" fill-rule="evenodd" stroke="#1e2730" stroke-width="11.5992" stroke-linecap="square" stroke-linejoin="bevel" d="M25.5107 5.76439L14.6728 16.0793L2.31916 39.283L0 65.0666L1.03074 86.5545L8.26105 116.021L14.9457 130.264L21.6303 142.91L28.5575 151.789L36.0909 160.222L44.8219 166.115L52.0522 169.43L62.1474 171.395L66.7857 170.781L71.8333 168.694L76.8808 158.871L77.6994 160.099L81.792 149.54L88.7495 130.509L91.0686 107.427L91.6143 85.8178L92.9785 68.6287L90.7958 50.2119L79.7457 32.4089L72.9246 19.7627L61.8745 8.58982C47.6874 2.92042 32.1888 -4.31443 29.1032 3.26789"/><path id="shape11" transform="translate(252.947368421053, 252.406231578947)" fill="#a6bebd" fill-rule="evenodd" stroke="#a6bebd" stroke-width="11.5992" stroke-linecap="square" stroke-linejoin="bevel" d="M0 5.89339C16.5014 4.65944 29.7425 10.3209 42.8871 16.1867C62.3113 26.5687 66.7504 34.7637 74.1415 43.3896C89.8087 71.2812 91.4892 81.3532 94.399 92.9915C97.1465 114.092 100.369 129.948 96.7784 138.253C94.9601 160.832 96.139 178.922 92.1428 177.679C86.3237 194.491 77.6262 214.555 73.2113 212.69L54.1592 231.193L95.0855 215.968L114.73 177.416C122.417 160.564 124.966 140.002 126.189 118.482C124.448 102.771 124.833 89.6533 115.821 65.0728C111.926 57.627 106.786 45.6809 94.9813 29.7539C85.4929 21.8168 76.0517 13.6816 64.5594 14.1609C79.0287 17.4275 88.0641 19.1373 44.4733 5.77061L21.5545 0L0 5.89339"/><path id="shape12" transform="translate(249.097263157895, 254.817852631579)" fill="#d9e7e7" fill-rule="evenodd" stroke="#d9e7e7" stroke-width="0.72" stroke-linecap="square" stroke-linejoin="bevel" d="M7.86695 2.29187L23.0097 0L45.5192 5.27949L65.0274 15.3064L82.944 31.1859L97.4956 50.2575L106.136 71.1299L110.137 92.5344L112.502 113.038L113.184 131.824L109.546 152.819L106.363 170.663L96.1314 196.248L87.6278 210.122L71.2118 217.407L95.5857 167.681L101.133 112.144L93.9486 81.4904L69.3019 33.9961L28.4211 9.68589L0 5.10215L7.86695 2.29187"/><path id="shape13" transform="translate(220.858105263158, 256.814147368421)" fill="#3e5366" fill-rule="evenodd" stroke="#3e5366" stroke-width="0.72" stroke-linecap="square" stroke-linejoin="bevel" d="M9.14021 10.3134L41.1082 13.3829L71.5756 27.748L97.1318 54.5548L109.773 86.7229L115.64 120.201L112.047 161.127L99.0417 197.797L82.6257 217.646L66.3916 224.194L80.8522 225.995L100.77 217.237L117.549 193.745L129.645 166.734L134.511 124.539L130.237 91.7977L121.779 60.2026L104.635 33.3959L85.3541 18.2941L58.6611 4.74745L40.1987 0L11.9141 1.22779L1.09137 7.93971L0 12.4416L9.14021 10.3134"/><path id="shape14" transform="translate(187.215675491147, 292.274891704388)" fill="#cc4937" fill-rule="evenodd" stroke="#cc4937" stroke-width="0.72" stroke-linecap="square" stroke-linejoin="bevel" d="M52.2515 5.78786L32.0583 0L11.6079 21.3861L5.36984 37.5632L2.12221 48.2707L0 72.5218L2.95824 104.934L8.97118 126.638L18.3925 144.856L27.9103 161.554L40.3864 172.609L50.4508 178.252L67.2356 184.098L75.1778 184.648L82.9914 177.644L65.0169 177.181L52.8303 170.988L39.1645 161.351L33.6017 154.695L25.1772 137.216L17.7816 121.242L13.0227 102.402L10.9969 80.3215L11.5114 63.1455L13.9552 45.5215L18.4568 33.5117L26.0132 20.952L38.1677 7.84254L52.2515 5.78786"/><path id="shape15" transform="translate(220.229052631579, 327.224084210526)" fill="#558f81" fill-rule="evenodd" stroke="#558f81" stroke-width="11.5992" stroke-linecap="square" stroke-linejoin="bevel" d="M2.63747 20.0948L0 50.7077L2.45558 63.2312L4.95663 59.7115L5.95705 43.1773L18.6897 39.1665L31.104 31.8816L31.104 12.4416L27.5116 0L9.73137 2.82392L2.63747 20.0948"/><path id="shape16" transform="translate(213.589894736842, 310.853557894737)" fill="#923023" fill-rule="evenodd" stroke="#923023" stroke-width="0.72" stroke-linecap="square" stroke-linejoin="bevel" d="M29.4669 2.08724L19.2808 0L5.68421 10.3544L0 25.006L33.7415 30.0399L53.4771 65.564L51.7491 94.1305L49.1571 117.09L67.7558 62.6582L56.7966 26.5203L29.4669 2.08724"/><path id="shape17" transform="translate(219.546947368421, 326.814821052631)" fill="#f7b8a6" fill-rule="evenodd" stroke="#f7b8a6" stroke-width="11.5992" stroke-linecap="square" stroke-linejoin="bevel" d="M7.68505 0.327411L1.54611 8.14434L0 21.2817L0.818526 39.0846L9.59495 28.8531L17.4619 30.531L17.5074 13.6285L23.0097 0L7.68505 0.327411"/><path id="shape18" transform="translate(221.547789473684, 418.858105263158)" fill="#fbe0d8" fill-rule="evenodd" stroke="#fbe0d8" stroke-width="0.72" stroke-linecap="square" stroke-linejoin="bevel" d="M0 0L7.00295 21.0361L24.2829 34.5418L41.9267 39.453L46.0648 35.8105L32.2408 33.8461L10.5954 20.6269L0 0"/><path id="shape19" transform="translate(223.184842105263, 330.580042105263)" fill="#fbe0d8" fill-rule="evenodd" stroke="#fbe0d8" stroke-width="11.5992" stroke-linecap="square" stroke-linejoin="bevel" d="M4.27453 0L0 13.4648L5.13853 17.7211L10.7318 9.78139L4.27453 0"/><path id="shape20" transform="translate(377.025167520273, 295.416410825385)" fill="#f53707" fill-rule="evenodd" stroke="#f53707" stroke-width="11.5992" stroke-linecap="square" stroke-linejoin="bevel" d="M2.701 0L0 8.79754L2.0579 16.3218L10.1609 19.9102L16.5919 13.6015L13.9552 5.78786L2.701 0"/><path id="shape21" transform="translate(254.06147368421, 132.846821052632)" fill="#b01b00" fill-rule="evenodd" stroke="#b01b00" stroke-width="11.5992" stroke-linecap="square" stroke-linejoin="bevel" d="M0 30.2855L5.54779 3.51966L27.8299 0L45.8375 1.88261L52.2947 7.53044L58.2063 32.4136L45.6556 38.5526L23.3735 38.5526L0 30.2855"/><path id="shape22" transform="translate(278.245894736842, 140.960842105263)" fill="#761b06" fill-rule="evenodd" stroke="#761b06" stroke-width="11.5992" stroke-linecap="square" stroke-linejoin="bevel" d="M3.41053 0L0 31.1859L12.8236 31.9635L26.6021 28.321L33.1958 23.6145L26.784 0.572968L3.41053 0"/><path id="shape23" transform="translate(464.003767543784, 182.145687959569)" fill="#b01b00" fill-rule="evenodd" stroke="#b01b00" stroke-width="11.5992" stroke-linecap="square" stroke-linejoin="bevel" d="M1.60774 26.8002L34.8122 39.5173L74.2834 37.7165L99.9305 28.549L99.7487 3.99326C67.7998 -5.20973 63.4799 7.51777 55.1844 17.0897C41.9679 10.4524 64.4966 -9.26341 0 5.15359L0.257238 24.7165"/><path id="shape24" transform="translate(478.730643259409, 162.295743876278)" fill="#b01b00" fill-rule="evenodd" stroke="#b01b00" stroke-width="11.5992" stroke-linecap="square" stroke-linejoin="bevel" d="M0 24.1354L0.707405 4.39877L27.2672 1.56272L46.5601 0L69.9687 3.58847L69.0041 21.5308L76.0138 37.0423L43.9877 38.5471L6.62388 25.1772"/><path id="shape25" transform="translate(505.568842105263, 192.200589473684)" fill="#761b06" fill-rule="evenodd" stroke="#761b06" stroke-width="8.64" stroke-linecap="square" stroke-linejoin="bevel" d="M0 5.97524L0.181895 29.8353L26.9204 29.3032L49.6573 23.2871L50.3848 0L31.9225 5.60691L14.688 7.57137L0 5.97524"/><path id="shape26" transform="translate(504.341052631579, 169.813894736842)" fill="#761b06" fill-rule="evenodd" stroke="#761b06" stroke-width="11.5992" stroke-linecap="square" stroke-linejoin="bevel" d="M4.32 13.9559L21.0998 13.5875L35.6059 10.559L36.3789 0L19.6446 2.98762L6.54821 3.15133L0 3.35596L4.32 13.9559"/><path id="shape27" transform="translate(390.86147368421, 219.701557894737)" fill="#d9e7e7" fill-rule="evenodd" stroke="#d9e7e7" stroke-width="11.5992" stroke-linecap="square" stroke-linejoin="bevel" d="M0 0L0.727579 51.649L22.7368 86.8456L26.1019 91.102L44.8371 95.2765L46.5651 6.38451L0 0"/><path id="shape28" transform="translate(378.674526315789, 453.393852631579)" fill="#d9e7e7" fill-rule="evenodd" stroke="#d9e7e7" stroke-width="11.5992" stroke-linecap="square" stroke-linejoin="bevel" d="M46.9288 11.8686L48.6568 83.4078L0.727579 65.2365L0 0.409263L0.363789 0L46.9288 11.8686"/><path id="shape29" transform="translate(289.663578947368, 450.008336842105)" fill="#596c73" fill-rule="evenodd" stroke="#596c73" stroke-width="1.44" stroke-linecap="square" stroke-linejoin="bevel" d="M15.2526 40.7922L44.4505 52.5289L82.8076 0C76.0353 3.10452 67.0568 11.0426 64.4817 4.95208L50.544 11.0706L47.4063 16.7798L36.3562 20.6883L34.3326 24.0442L11.3002 33.1912L0 32.0453L15.2526 40.7922"/><path id="shape30" transform="translate(281.418376120431, 250.007472210523)" fill="#3e5366" fill-rule="evenodd" stroke="#3e5366" stroke-width="1.6344" stroke-linecap="square" stroke-linejoin="bevel" d="M0 3.21226L4.37305 0.376211L7.78145 0L26.7849 4.77498L40.4507 9.37633L51.9942 13.5146L61.4799 19.4183L73.9881 30.6467L84.149 47.4894L92.0591 62.422L99.1653 80.9721L101.191 91.7118L102.799 102.882L104.246 120.333L103.731 137.436L101.545 155.378L98.2006 168.777L91.7697 184.086L84.3098 198.324L78.8434 207.006L70.0009 209.61L62.4124 209.234L73.5379 203.996L82.8949 189.613L88.8757 175.173L93.8919 158.619L96.0141 145.684L98.6508 130.924L97.8148 107.889L95.2424 86.4448L91.7375 73.3911L84.6635 56.4905L74.5347 38.8086L61.3834 23.3261L44.6951 13.7472L29.1322 9.00119L16.5597 4.97863L7.49206 3.35803L0 3.21226"/><path id="shape31" transform="translate(598.067640506701, 262.50923919357)" fill="#3e5366" fill-rule="evenodd" stroke="#3e5366" stroke-width="1.6344" stroke-linecap="square" stroke-linejoin="bevel" d="M0.578786 8.16088L0 32.875L20.6433 41.6147L44.1163 33.2802L45.3382 6.25088L35.4988 0L0.578786 8.16088"/><path id="shape32" transform="translate(618.710990308953, 271.364657473228)" fill="#203344" fill-rule="evenodd" stroke="#203344" stroke-width="1.6344" stroke-linecap="square" stroke-linejoin="bevel" d="M0 7.69785L0.385857 32.412L23.1514 24.0775L24.6305 0L0 7.69785"/><ellipse id="shape33" transform="translate(620.64, 269.28)" rx="4.68000000000001" ry="1.07999999999998" cx="4.68000000000001" cy="1.07999999999998" fill="#203344" fill-rule="evenodd" stroke="#203344" stroke-width="1.6344" stroke-linecap="square" stroke-linejoin="bevel"/><ellipse id="shape34" transform="translate(539.28, 242.64)" rx="6.12" ry="9.71999999999998" cx="6.12" cy="9.71999999999998" fill="#3e5366" fill-rule="evenodd" stroke="#3e5366" stroke-width="1.6344" stroke-linecap="square" stroke-linejoin="bevel"/><ellipse id="shape35" transform="translate(694.08, 222.48)" rx="2.88" ry="7.92" cx="2.88" cy="7.92" fill="#3e5366" fill-rule="evenodd" stroke="#3e5366" stroke-width="1.6344" stroke-linecap="square" stroke-linejoin="bevel"/><ellipse id="shape36" transform="translate(539.28, 552.96)" rx="5.40000000000003" ry="9" cx="5.40000000000003" cy="9" fill="#3e5366" fill-rule="evenodd" stroke="#3e5366" stroke-width="1.6344" stroke-linecap="square" stroke-linejoin="bevel"/><ellipse id="shape37" transform="translate(678.96, 516.96)" rx="3.24000000000001" ry="7.56" cx="3.24000000000001" cy="7.56" fill="#3e5366" fill-rule="evenodd" stroke="#3e5366" stroke-width="1.6344" stroke-linecap="square" stroke-linejoin="bevel"/><path id="shape38" transform="translate(193.968173090015, 197.22223383766)" fill="#3e5366" fill-rule="evenodd" stroke="#3e5366" stroke-width="1.6344" stroke-linecap="square" stroke-linejoin="bevel" d="M7.52421 0L1.86498 7.06118L0 22.399L3.92288 32.9908L11.1899 37.9105L17.6851 36.1741L22.444 27.2029L22.6369 13.7751L20.9649 8.56603L17.2993 2.89393L7.52421 0"/><path id="shape39" transform="translate(195.704529615438, 203.010088922404)" fill="#648b88" fill-rule="evenodd" stroke="#648b88" stroke-width="1.6344" stroke-linecap="square" stroke-linejoin="bevel" d="M3.27978 0L0 15.3378L2.37945 22.3411L6.62388 25.6981L9.77504 17.1321L9.4535 10.6497L7.78145 5.84573L3.27978 0"/><path id="shape40" transform="translate(1430.0867368421, 318.267284210526)" fill="#fffaf5" fill-rule="evenodd" stroke="#fffaf5" stroke-width="5.0904" stroke-linecap="square" stroke-linejoin="bevel" d="M0 0L0 30.6129L44.4733 26.1928L44.4733 0.654821L0 0"/>
</svg>
