<?xml version="1.0" standalone="no"?>
<!DOCTYPE svg PUBLIC "-//W3C//DTD SVG 20010904//EN" "http://www.w3.org/TR/2001/REC-SVG-20010904/DTD/svg10.dtd">
<!-- Created using Krita: http://krita.org -->
<svg xmlns="http://www.w3.org/2000/svg" 
    xmlns:xlink="http://www.w3.org/1999/xlink"
    xmlns:krita="http://krita.org/namespaces/svg/krita"
    xmlns:sodipodi="http://sodipodi.sourceforge.net/DTD/sodipodi-0.dtd"
    width="2949.12pt"
    height="1555.2pt"
    viewBox="0 0 2949.12 1555.2">
<defs>
  <linearGradient id="gradient0" gradientUnits="objectBoundingBox" x1="0.501926514399206" y1="1.00944999153833" x2="0.49235352532274" y2="-0.013836520561854" spreadMethod="pad">
   <stop stop-color="#5c8685" offset="0" stop-opacity="0.368627450980392"/>
   <stop stop-color="#000000" offset="1" stop-opacity="0"/>
  </linearGradient>
  <linearGradient id="gradient1" gradientUnits="objectBoundingBox" x1="0" y1="0" x2="1" y2="1" spreadMethod="pad">
   <stop stop-color="#ee7a0b" offset="0" stop-opacity="0.549019607843137"/>
   <stop stop-color="#ff6524" offset="1" stop-opacity="0.87843137254902"/>
  </linearGradient>
  <linearGradient id="gradient2" gradientUnits="objectBoundingBox" x1="0" y1="0" x2="1" y2="1" spreadMethod="pad">
   <stop stop-color="#bf3c1e" offset="0" stop-opacity="0.67843137254902"/>
   <stop stop-color="#a72f14" offset="1" stop-opacity="0.63921568627451"/>
  </linearGradient>
 </defs>
<rect id="shape0" transform="translate(822.96, 1012.32)" fill="url(#gradient0)" fill-rule="evenodd" stroke="#8fafa2" stroke-width="3.6" stroke-linecap="square" stroke-linejoin="bevel" width="190.8" height="223.92"/><path id="shape1" transform="translate(794.538947368421, 988.238652631579)" fill="none" stroke="#8fafa2" stroke-width="3.6504" stroke-linecap="square" stroke-linejoin="miter" stroke-miterlimit="2" d="M0 0L27.8754 23.4917"/><path id="shape2" transform="translate(1013.40378947368, 987.092715789473)" fill="none" stroke="#8fafa2" stroke-width="3.6504" stroke-linecap="square" stroke-linejoin="miter" stroke-miterlimit="2" d="M0 26.7658L23.1461 0"/><path id="shape3" transform="translate(793.402105263158, 1236.29305263158)" fill="none" stroke="#8fafa2" stroke-width="3.6504" stroke-linecap="square" stroke-linejoin="miter" stroke-miterlimit="2" d="M0 6.50728L30.1491 0"/><path id="shape4" transform="translate(1013.31284210526, 1235.59730526316)" fill="none" stroke="#8fafa2" stroke-width="3.6504" stroke-linecap="square" stroke-linejoin="miter" stroke-miterlimit="2" d="M0 0L24.1465 7.61229"/><path id="shape5" transform="translate(792.025095346559, 1117.93707151845)" fill="url(#gradient1)" fill-rule="evenodd" stroke="#f26f21" stroke-width="0.72" stroke-linecap="square" stroke-linejoin="bevel" d="M0 0L0.128619 126.349L247.592 128.375L246.563 9.78148L184.89 6.65603L154.086 11.1127L88.8114 9.26057L38.8429 7.23482L0 0"/><path id="shape6" transform="translate(796.333831909646, 1121.91782962673)" fill="url(#gradient2)" fill-rule="evenodd" stroke="#cc4937" stroke-width="0.72" stroke-linecap="square" stroke-linejoin="bevel" d="M0 0L24.7592 6.88755L68.1681 9.95511L128.49 9.14481L215.823 7.75573L239.36 6.193L179.231 2.66241L92.5414 3.47271L0 0"/><rect id="shape7" transform="translate(791.825684210526, 984.655326315789)" fill="#8fafa2" fill-opacity="0.254901960784314" fill-rule="evenodd" stroke="#8fafa2" stroke-width="8.64" stroke-linecap="square" stroke-linejoin="bevel" width="246.96" height="260.978021052632"/><path id="shape8" transform="translate(835.412210526316, 1027.82955789474)" fill="#eefffb" fill-rule="evenodd" stroke="#eefffb" stroke-width="3.6504" stroke-linecap="square" stroke-linejoin="bevel" d="M2.27368 176.802L1.09137 89.3012L0 0L3.91074 30.2855L8.54905 20.2995L9.91326 167.225L36.8337 180.731L2.27368 176.802"/><path id="shape9" transform="translate(792.668190355975, 954.816022380088)" fill="#8fafa2" fill-opacity="0.231372549019608" fill-rule="evenodd" stroke="#8fafa2" stroke-width="5.76" stroke-linecap="square" stroke-linejoin="bevel" d="M0 28.4467L82.702 0L158.469 0.520907L246.884 29.4023L0 28.4467"/><path id="shape10" transform="translate(823.215203303234, 975.941693439402)" fill="#608f79" fill-opacity="0.231372549019608" fill-rule="evenodd" stroke="#8fafa2" stroke-opacity="0.498039215686275" stroke-width="3.6504" stroke-linecap="square" stroke-linejoin="bevel" d="M0 33.1065L57.4927 0.289393L121.738 0L188.041 35.1902L0 33.1065"/><path id="shape11" transform="translate(874.084018548037, 955.510564990257)" fill="none" stroke="#a8bdb5" stroke-opacity="0.674509803921569" stroke-width="3.6504" stroke-linecap="square" stroke-linejoin="bevel" d="M0 0L7.91007 19.7945L73.4415 21.3572L77.5573 1.04181L0 0"/><path id="shape12" transform="translate(873.569542540505, 913.917978947368)" fill="#8fafa2" fill-opacity="0.454901960784314" fill-rule="evenodd" stroke="#8fafa2" stroke-width="5.04" stroke-linecap="square" stroke-linejoin="bevel" d="M0 19.2986L4.99719 0L74.1489 1.58779L79.3921 20.5041L0 19.2986"/><path id="shape13" transform="translate(873.610105263158, 938.6784)" fill="#8fafa2" fill-opacity="0.341176470588235" fill-rule="evenodd" stroke="#8fafa2" stroke-width="3.6504" stroke-linecap="square" stroke-linejoin="bevel" d="M0 16.9026L0.454737 0L78.4876 0.900379L78.1238 15.8385L0.864 16.3296"/><path id="shape14" transform="translate(886.431442728824, 927.40945672881)" fill="#8fafa2" fill-opacity="0.364705882352941" fill-rule="evenodd" stroke="#8fafa2" stroke-width="3.6504" stroke-linecap="square" stroke-linejoin="bevel" d="M0.669891 0.954996L0 19.8138L55.4937 20.4601L54.8828 4.54747e-13L0.348343 0.144696"/>
</svg>
