<?xml version="1.0" standalone="no"?>
<!DOCTYPE svg PUBLIC "-//W3C//DTD SVG 20010904//EN" "http://www.w3.org/TR/2001/REC-SVG-20010904/DTD/svg10.dtd">
<!-- Created using Krita: http://krita.org -->
<svg xmlns="http://www.w3.org/2000/svg" 
    xmlns:xlink="http://www.w3.org/1999/xlink"
    xmlns:krita="http://krita.org/namespaces/svg/krita"
    xmlns:sodipodi="http://sodipodi.sourceforge.net/DTD/sodipodi-0.dtd"
    width="2949.12pt"
    height="1555.2pt"
    viewBox="0 0 2949.12 1555.2">
<defs/>
<path id="shape0" transform="translate(829.008, 803.627621052631)" fill="#8fafa2" fill-rule="evenodd" stroke="#8fafa2" stroke-width="6.876" stroke-linecap="square" stroke-linejoin="bevel" d="M0.181895 8.96286L56.9785 0L58.2973 8.71731L0 16.8616L0.181895 8.96286"/><path id="shape1" transform="translate(876.437052631579, 751.032757894737)" fill="#6aa482" fill-rule="evenodd" stroke="#6aa482" stroke-width="6.876" stroke-linecap="square" stroke-linejoin="bevel" d="M2.27368 44.0413L0 248.509L11.3684 244.498L14.2333 48.4613L70.6036 29.3912L151.622 68.5773L149.289 266.17L160.79 269.607L166.957 61.538L106.682 20.4632L106.849 0.982232L45.7618 0L45.6368 18.7033L1.04589 49.0343"/><path id="shape2" transform="translate(913.860651249376, 712.831397512489)" fill="#6aa482" fill-rule="evenodd" stroke="#6aa482" stroke-width="6.876" stroke-linecap="square" stroke-linejoin="bevel" d="M11.5048 35.6059L10.8682 27.789L0.591158 26.5203L0 0.654821L72.8943 0L72.9853 26.643L63.1175 28.0345L63.4813 42.3587L58.2063 41.7039L58.752 23.9419L69.6657 21.6091L69.6657 4.70653L3.95621 4.17448L5.00211 22.3458L16.0977 24.7604L18.2349 39.7395L11.5048 35.6059"/><path id="shape3" transform="translate(885.205894736842, 708.560336842105)" fill="#8fafa2" fill-rule="evenodd" stroke="#8fafa2" stroke-width="6.876" stroke-linecap="square" stroke-linejoin="bevel" d="M55.7507 28.6893L55.7507 41.2947L64.0724 42.6452L63.9815 30.4083L91.8568 29.1805L90.6745 24.0647L68.1651 26.3565L66.8463 6.13895L88.5827 6.05709L85.6269 0L59.4796 1.39149L0.545684 2.70114L0 29.426L4.68379 30.4083L4.54737 7.03933L4.45642 6.83469L61.4804 8.02156L61.4804 25.6608L2.72842 25.9882L3.50147 31.7588L55.7507 28.6893"/><path id="shape4" transform="translate(886.661052631579, 741.6288)" fill="#8fafa2" fill-rule="evenodd" stroke="#8fafa2" stroke-width="6.876" stroke-linecap="square" stroke-linejoin="bevel" d="M8.82189 0L9.32211 7.08025L0.318316 7.12118L0 35.9712L61.4804 35.9712L60.9347 27.789L4.22905 27.2569L4.32 11.9505L12.8691 11.9914L60.2072 13.874L58.4792 6.2208L13.5966 5.07486L8.82189 0"/><path id="shape5" transform="translate(822.497684210526, 814.50947368421)" fill="#8fafa2" fill-rule="evenodd" stroke="#8fafa2" stroke-width="6.876" stroke-linecap="square" stroke-linejoin="bevel" d="M0 6.34358L142.196 14.5698L143.833 7.44859L0.227368 0"/><path id="shape6" transform="translate(823.770947368421, 915.921852631579)" fill="#f26f21" fill-rule="evenodd" stroke="#f26f21" stroke-width="6.876" stroke-linecap="square" stroke-linejoin="bevel" d="M0.818526 10.6408L0 119.3L142.014 134.116L200.642 93.7877L203.472 6.62259L42.0177 0L0.818526 10.6408"/><path id="shape7" transform="translate(963.011368421052, 1016.40505263158)" fill="#8fafa2" fill-rule="evenodd" stroke="#8fafa2" stroke-width="6.876" stroke-linecap="square" stroke-linejoin="bevel" d="M0 30.1854L60.1693 0L60.5785 0.122779L68.7638 4.29726L4.32 38.5753"/><path id="shape8" transform="translate(818.314105263158, 1030.752)" fill="#8fafa2" fill-rule="evenodd" stroke="#8fafa2" stroke-width="6.876" stroke-linecap="square" stroke-linejoin="bevel" d="M1.54611 0L150.571 14.5061L149.343 26.1701L0 13.4238"/><path id="shape9" transform="translate(819.136909118521, 914.390905263158)" fill="#cc4937" fill-rule="evenodd" stroke="#cc4937" stroke-width="6.876" stroke-linecap="square" stroke-linejoin="bevel" d="M0 17.6167L152.802 31.1859L207.688 8.9349L45.4846 0L2.3473 14.2887"/><path id="shape10" transform="translate(922.198243502509, 952.755974699925)" fill="#f7b8a6" fill-rule="evenodd" stroke="#f7b8a6" stroke-width="6.876" stroke-linecap="square" stroke-linejoin="bevel" d="M0.514476 0L0 17.3636L4.7589 21.7623L5.08045 50.7595L9.58212 5.96149L0.514476 0"/><path id="shape11" transform="translate(843.419104849052, 832.831617344034)" fill="#accdc5" fill-rule="evenodd" stroke="#accdc5" stroke-width="6.876" stroke-linecap="square" stroke-linejoin="bevel" d="M0 105.223L16.7205 107.538L19.6787 76.8627L9.13195 67.4864L20.2575 58.9782L22.7656 3.93574L7.20266 0L0 105.223"/><path id="shape12" transform="translate(862.583336129648, 777.6)" fill="#accdc5" fill-rule="evenodd" stroke="#accdc5" stroke-width="6.876" stroke-linecap="square" stroke-linejoin="bevel" d="M0 31.4435L12.669 32.4853L46.8173 0L36.2062 0L0 31.4435"/><path id="shape13" transform="translate(901.490584199315, 757.47374414067)" fill="#accdc5" fill-rule="evenodd" stroke="#accdc5" stroke-width="6.876" stroke-linecap="square" stroke-linejoin="bevel" d="M0.257238 1.50484L0 9.37633L10.4181 8.103L9.83935 0L0.257238 1.50484"/><path id="shape14" transform="translate(899.239751666359, 716.437851589836)" fill="#accdc5" fill-rule="evenodd" stroke="#accdc5" stroke-width="6.876" stroke-linecap="square" stroke-linejoin="bevel" d="M0 0L2.18652 12.0966L19.6144 13.3699L18.907 1.67848L0 0"/><path id="shape15" transform="translate(964.192347617373, 777.6)" fill="#accdc5" fill-rule="evenodd" stroke="#accdc5" stroke-width="6.876" stroke-linecap="square" stroke-linejoin="bevel" d="M0 0L11.4471 34.5111L18.1996 31.212L0 0"/><path id="shape16" transform="translate(961.105491572176, 761.062214293211)" fill="#accdc5" fill-rule="evenodd" stroke="#accdc5" stroke-width="6.876" stroke-linecap="square" stroke-linejoin="bevel" d="M0.321548 0L0 4.63028L0.321548 0"/><path id="shape17" transform="translate(978.52800720227, 837.198232457968)" fill="#accdc5" fill-rule="evenodd" stroke="#accdc5" stroke-width="6.876" stroke-linecap="square" stroke-linejoin="bevel" d="M0 3.81998L0.289393 76.8338L5.65924 73.5347L5.08045 45.2321L1.83282 37.0423L6.65603 28.0711L6.07725 0L0 3.81998"/><path id="shape18" transform="translate(960.39272793674, 722.047783721975)" fill="#accdc5" fill-rule="evenodd" stroke="#accdc5" stroke-width="6.876" stroke-linecap="square" stroke-linejoin="bevel" d="M0 0.578786L0.192929 10.1577L8.32808 8.9133L7.91007 0L0 0.578786"/><path id="shape19" transform="translate(962.4184772164, 758.163999450776)" fill="#accdc5" fill-rule="evenodd" stroke="#accdc5" stroke-width="6.876" stroke-linecap="square" stroke-linejoin="bevel" d="M0.482321 0L0 10.3313L8.39239 7.87148L8.71394 0.897118L0.482321 0"/><path id="shape20" transform="translate(815.365894736842, 776.863326315789)" fill="#8fafa2" fill-rule="evenodd" stroke="#8fafa2" stroke-width="6.876" stroke-linecap="square" stroke-linejoin="bevel" d="M74.5423 0L4.9236 34.0947L0 266.553L7.83842 266.799L12.5162 53.5316L9.26905 38.5875L89.1663 0L74.5423 0"/><path id="shape21" transform="translate(946.517322076939, 748.963256550872)" fill="#8fafa2" fill-rule="evenodd" stroke="#8fafa2" stroke-width="6.876" stroke-linecap="square" stroke-linejoin="bevel" d="M28.9071 0L0.707405 2.37302L0 28.5958L16.4311 73.6794L15.0163 297.339L9.76496 307.573L22.659 306.416L23.5051 78.6805L88.715 66.5839L90.9015 59.5227L88.3425 60.5941L23.5879 72.2581L7.94222 28.5958L32.5352 22.4301L28.5481 19.9992L6.94007 23.414L7.58316 6.62924L29.5449 4.71925L28.9071 0"/><path id="shape22" transform="translate(876.209684210526, 915.48227368421)" fill="#b3301e" fill-rule="evenodd" stroke="#b3301e" stroke-width="6.876" stroke-linecap="square" stroke-linejoin="bevel" d="M0 0L0 23.4099L11.6413 23.2461L10.9592 1.59613L0 0"/><path id="shape23" transform="translate(836.374736842105, 943.271242105263)" fill="#cc4937" fill-rule="evenodd" stroke="#cc4937" stroke-width="1.44" stroke-linecap="square" stroke-linejoin="bevel" d="M38.6526 0L52.1583 0.201656L52.1583 54.3464L121.415 59.1861L121.096 68.4287L52.1583 61.9757L16.4615 68.0254L0 65.7063L40.3352 54.7497L38.6526 0"/><path id="shape24" transform="translate(974.042419511594, 1004.46510075703)" fill="#cc4937" fill-rule="evenodd" stroke="#cc4937" stroke-width="0.5472" stroke-linecap="square" stroke-linejoin="bevel" d="M0 0L0.643095 9.05799L40.7401 12.6754L49.1646 8.01618L51.7048 7.66891L50.1936 5.12225L0 0"/><path id="shape25" transform="translate(828.027697623697, 1009.09538482483)" fill="#cc4937" fill-rule="evenodd" stroke="#cc4937" stroke-width="0.5472" stroke-linecap="square" stroke-linejoin="bevel" d="M9.83935 0L0 3.03862L0.353702 11.9809L9.90366 7.8136L9.83935 0"/><path id="shape26" transform="translate(985.864649434691, 948.342735197808)" fill="#f7b8a6" fill-rule="evenodd" stroke="#f7b8a6" stroke-width="6.876" stroke-linecap="square" stroke-linejoin="bevel" d="M0.0643095 9.4342L0 74.4318L6.68819 71.017L7.58852 38.3735L4.37305 34.1483L9.51781 23.1514L9.64643 0L0.0643095 9.4342"/><path id="shape27" transform="translate(840.203629801972, 945.4053987423)" fill="#f7b8a6" fill-rule="evenodd" stroke="#f7b8a6" stroke-width="6.876" stroke-linecap="square" stroke-linejoin="bevel" d="M1.54343 0L3.34409 28.7656L7.65283 37.7368L0.192929 48.155L0 72.5797L13.3121 73.7952L15.2414 23.3251L9.19626 14.0066L17.8137 8.04512L16.2703 0.463028L1.54343 0"/>
</svg>
