<?xml version="1.0" standalone="no"?>
<!DOCTYPE svg PUBLIC "-//W3C//DTD SVG 20010904//EN" "http://www.w3.org/TR/2001/REC-SVG-20010904/DTD/svg10.dtd">
<!-- Created using Krita: http://krita.org -->
<svg xmlns="http://www.w3.org/2000/svg" 
    xmlns:xlink="http://www.w3.org/1999/xlink"
    xmlns:krita="http://krita.org/namespaces/svg/krita"
    xmlns:sodipodi="http://sodipodi.sourceforge.net/DTD/sodipodi-0.dtd"
    width="2949.12pt"
    height="1555.2pt"
    viewBox="0 0 2949.12 1555.2">
<defs/>
<path id="shape0" transform="translate(2365.33642105263, 145.042863157895)" fill="#dbb386" fill-rule="evenodd" stroke="#dbb386" stroke-width="13.0464" stroke-linecap="square" stroke-linejoin="bevel" d="M0 41.8676L94.4034 192.272L131.373 345.132L337.096 274.043L292.487 138.372L220.32 0L0 41.8676"/><path id="shape1" transform="translate(2371.88463157895, 136.202778947368)" fill="#dbb386" fill-rule="evenodd" stroke="#dbb386" stroke-width="13.0464" stroke-linecap="square" stroke-linejoin="bevel" d="M0 29.7125L83.0804 226.527L137.785 370.424L325.228 302.65L302.582 169.803L217.728 0L0 29.7125"/><path id="shape2" transform="translate(2381.43410526316, 133.477668024532)" fill="#dbc5ad" fill-rule="evenodd" stroke="#dbc5ad" stroke-width="13.0464" stroke-linecap="square" stroke-linejoin="bevel" d="M0 23.8191L76.6686 212.408L126.462 352.007L128.781 354.954L324.546 277.972L291.805 156.911C264.43 106.44 236.555 56.7745 213.09 0L0 23.8191"/><path id="shape3" transform="translate(2402.57936842105, 147.252884210526)" fill="#aa8669" fill-rule="evenodd" stroke="#000000" stroke-opacity="0" stroke-width="0" stroke-linecap="square" stroke-linejoin="bevel" d="M0 26.5203L5.32042 37.202L198.22 9.69954L190.989 0L0 26.5203"/><path id="shape0" transform="matrix(0.999999981229338 0 0 0.999999990099999 2513.25816979826 172.559398504376)" fill="#aa8669" fill-rule="evenodd" stroke="#000000" stroke-opacity="0" stroke-width="0" stroke-linecap="square" stroke-linejoin="bevel" d="M0 13.4585L2.33718 18.8793L87.0751 4.92232L83.8986 0L0 13.4585"/><path id="shape01" transform="matrix(0.999999951190852 0 0 1.00000001426743 2417.75559334663 188.148792152203)" fill="#aa8669" fill-rule="evenodd" stroke="#000000" stroke-opacity="0" stroke-width="0" stroke-linecap="square" stroke-linejoin="bevel" d="M0 13.4585L2.33718 18.8793L87.0751 4.92232L83.8986 0L0 13.4585"/><path id="shape02" transform="matrix(0.999999951190852 0 0 1.00000001426743 2479.2354762468 193.763011584405)" fill="#aa8669" fill-rule="evenodd" stroke="#000000" stroke-opacity="0" stroke-width="0" stroke-linecap="square" stroke-linejoin="bevel" d="M0 13.4585L2.33718 18.8793L87.0751 4.92232L83.8986 0L0 13.4585"/><path id="shape4" transform="translate(2422.32453546684, 211.175251891955)" fill="#648b88" fill-rule="evenodd" stroke="#000000" stroke-opacity="0" stroke-width="0" stroke-linecap="square" stroke-linejoin="bevel" d="M5.59493 11.0548L45.9813 4.0515L43.216 0L0 6.36664L5.59493 11.0548"/><path id="shape03" transform="matrix(0.9999999762664 0 0 1.00000001918224 2564.70924938082 187.087809245564)" fill="#aa8669" fill-rule="evenodd" stroke="#000000" stroke-opacity="0" stroke-width="0" stroke-linecap="square" stroke-linejoin="bevel" d="M5.59493 11.0548L45.9813 4.0515L43.216 0L0 6.36664L5.59493 11.0548"/><path id="shape04" transform="matrix(0.999999920007338 0 0 1.00000001485564 2431.32193031765 218.207819453414)" fill="#aa8669" fill-rule="evenodd" stroke="#000000" stroke-opacity="0" stroke-width="0" stroke-linecap="square" stroke-linejoin="bevel" d="M0 13.4585L2.33718 18.8793L87.0751 4.92232L83.8986 0L0 13.4585"/><path id="shape05" transform="matrix(0.999999920007338 0 0 1.00000001485564 2528.04341973381 202.291217970368)" fill="#aa8669" fill-rule="evenodd" stroke="#000000" stroke-opacity="0" stroke-width="0" stroke-linecap="square" stroke-linejoin="bevel" d="M0 13.4585L2.33718 18.8793L87.0751 4.92232L83.8986 0L0 13.4585"/><path id="shape06" transform="matrix(0.999999920007338 0 0 1.00000001485564 2437.36702340616 231.404129046629)" fill="#aa8669" fill-rule="evenodd" stroke="#000000" stroke-opacity="0" stroke-width="0" stroke-linecap="square" stroke-linejoin="bevel" d="M0 13.4585L2.33718 18.8793L87.0751 4.92232L83.8986 0L0 13.4585"/><path id="shape07" transform="matrix(0.999999920007338 0 0 1.00000001485564 2445.27709202198 245.410738351709)" fill="#aa8669" fill-rule="evenodd" stroke="#000000" stroke-opacity="0" stroke-width="0" stroke-linecap="square" stroke-linejoin="bevel" d="M0 13.4585L2.33718 18.8793L87.0751 4.92232L83.8986 0L0 13.4585"/><path id="shape08" transform="matrix(0.999999920007338 0 0 1.00000001485564 2450.22892359448 260.169768817806)" fill="#aa8669" fill-rule="evenodd" stroke="#000000" stroke-opacity="0" stroke-width="0" stroke-linecap="square" stroke-linejoin="bevel" d="M0 13.4585L2.33718 18.8793L87.0751 4.92232L83.8986 0L0 13.4585"/><path id="shape09" transform="matrix(0.999999920007338 0 0 1.00000001485564 2458.9107062216 274.870920733055)" fill="#b8121c" fill-rule="evenodd" stroke="#000000" stroke-opacity="0" stroke-width="0" stroke-linecap="square" stroke-linejoin="bevel" d="M0 13.4585L2.33718 18.8793L87.0751 4.92232L83.8986 0L0 13.4585"/><path id="shape010" transform="matrix(0.999999920007338 0 0 1.00000001485564 2539.55482040236 228.047173097478)" fill="#aa8669" fill-rule="evenodd" stroke="#000000" stroke-opacity="0" stroke-width="0" stroke-linecap="square" stroke-linejoin="bevel" d="M0 13.4585L2.33718 18.8793L87.0751 4.92232L83.8986 0L0 13.4585"/><path id="shape011" transform="matrix(0.999999920007338 0 0 1.00000001485564 2548.36522203136 242.864082114422)" fill="#aa8669" fill-rule="evenodd" stroke="#000000" stroke-opacity="0" stroke-width="0" stroke-linecap="square" stroke-linejoin="bevel" d="M0 13.4585L2.33718 18.8793L87.0751 4.92232L83.8986 0L0 13.4585"/><path id="shape012" transform="matrix(0.999999998705882 0 0 0.999999992143312 2535.45202042832 222.788900482512)" fill="#aa8669" fill-rule="evenodd" stroke="#000000" stroke-opacity="0" stroke-width="0" stroke-linecap="square" stroke-linejoin="bevel" d="M5.59493 11.0548L45.9813 4.0515L43.216 0L0 6.36664L5.59493 11.0548"/><path id="shape013" transform="matrix(0.999999998705882 0 0 0.999999992143312 2590.95111974092 257.053002584195)" fill="#aa8669" fill-rule="evenodd" stroke="#000000" stroke-opacity="0" stroke-width="0" stroke-linecap="square" stroke-linejoin="bevel" d="M5.59493 11.0548L45.9813 4.0515L43.216 0L0 6.36664L5.59493 11.0548"/><path id="shape5" transform="matrix(0.99852415970623 0.0543093222473529 -0.0543093222473529 0.99852415970623 2584.27561551453 214.967924302535)" fill="#648b88" fill-rule="evenodd" stroke="#aa8669" stroke-width="0.0072" stroke-linecap="square" stroke-linejoin="bevel" d="M1.13684 10.7099L35.3073 3.87786L32.6707 0L0 6.80147"/><path id="shape014" transform="matrix(0.998524129923917 0.0543093213075275 -0.0543093206275049 0.998524142426724 2467.17333001495 296.1735793123)" fill="#aa8669" fill-rule="evenodd" stroke="#aa8669" stroke-width="0.0072" stroke-linecap="square" stroke-linejoin="bevel" d="M1.13684 10.7099L35.3073 3.87786L32.6707 0L0 6.80147"/><path id="shape015" transform="matrix(0.999978264355717 0.00658872046222213 -0.0065887191862262 0.999978276811818 2609.69136464077 267.721688551685)" fill="#aa8669" fill-rule="evenodd" stroke="#aa8669" stroke-width="0.0072" stroke-linecap="square" stroke-linejoin="bevel" d="M1.13684 10.7099L35.3073 3.87786L32.6707 0L0 6.80147"/><path id="shape016" transform="matrix(0.999119267125879 -0.0419587624030896 0.0419587662218984 0.999119358059093 2511.80024879446 281.013699933647)" fill="#aa8669" fill-rule="evenodd" stroke="#000000" stroke-opacity="0" stroke-width="0" stroke-linecap="square" stroke-linejoin="bevel" d="M0 13.4585L2.33718 18.8793L87.0751 4.92232L83.8986 0L0 13.4585"/><path id="shape017" transform="matrix(0.997135935115625 -0.0756305313018677 0.0756305306941507 0.9971359271033 2585.74716319515 285.334980216859)" fill="#aa8669" fill-rule="evenodd" stroke="#000000" stroke-opacity="0" stroke-width="0" stroke-linecap="square" stroke-linejoin="bevel" d="M5.59493 11.0548L45.9813 4.0515L43.216 0L0 6.36664L5.59493 11.0548"/><path id="shape018" transform="matrix(0.999624478699949 -0.0274004754723856 0.0274004762632696 0.999624507552992 2471.10945501984 301.49614695752)" fill="#aa8669" fill-rule="evenodd" stroke="#000000" stroke-opacity="0" stroke-width="0" stroke-linecap="square" stroke-linejoin="bevel" d="M0 13.4585L2.33718 18.8793L87.0751 4.92232L83.8986 0L0 13.4585"/><path id="shape019" transform="matrix(0.996136178446967 -0.0878207087879951 0.0878207176696219 0.996136279189835 2572.71785026993 299.702977964501)" fill="#aa8669" fill-rule="evenodd" stroke="#000000" stroke-opacity="0" stroke-width="0" stroke-linecap="square" stroke-linejoin="bevel" d="M0 13.4585L2.33718 18.8793L87.0751 4.92232L83.8986 0L0 13.4585"/><path id="shape020" transform="matrix(0.996136218669199 -0.0878207127559364 0.0878207212156688 0.996136324197563 2578.90879045105 312.007750905777)" fill="#aa8669" fill-rule="evenodd" stroke="#000000" stroke-opacity="0" stroke-width="0" stroke-linecap="square" stroke-linejoin="bevel" d="M0 13.4585L2.33718 18.8793L87.0751 4.92232L83.8986 0L0 13.4585"/><path id="shape021" transform="matrix(0.996136218669199 -0.0878207127559364 0.0878207212156688 0.996136324197563 2584.92780014676 325.205058553408)" fill="#c13400" fill-rule="evenodd" stroke="#000000" stroke-opacity="0" stroke-width="0" stroke-linecap="square" stroke-linejoin="bevel" d="M0 13.4585L2.33718 18.8793L87.0751 4.92232L83.8986 0L0 13.4585"/><path id="shape022" transform="matrix(0.99911926337247 -0.0419587602879897 0.0419587660642711 0.999119307694471 2489.86952838547 331.471523712199)" fill="#aa8669" fill-rule="evenodd" stroke="#000000" stroke-opacity="0" stroke-width="0" stroke-linecap="square" stroke-linejoin="bevel" d="M0 13.4585L2.33718 18.8793L87.0751 4.92232L83.8986 0L0 13.4585"/><path id="shape023" transform="matrix(0.993199074033318 -0.116427828916548 0.116427837985432 0.993199117800435 2547.44873800272 352.695335347391)" fill="#aa8669" fill-rule="evenodd" stroke="#000000" stroke-opacity="0" stroke-width="0" stroke-linecap="square" stroke-linejoin="bevel" d="M0 13.4585L2.33718 18.8793L87.0751 4.92232L83.8986 0L0 13.4585"/><path id="shape024" transform="matrix(0.997135972107176 -0.0756305319247525 0.0756305334998771 0.997135935315602 2533.29976780572 344.036820773476)" fill="#aa8669" fill-rule="evenodd" stroke="#000000" stroke-opacity="0" stroke-width="0" stroke-linecap="square" stroke-linejoin="bevel" d="M5.59493 11.0548L45.9813 4.0515L43.216 0L0 6.36664L5.59493 11.0548"/><path id="shape025" transform="matrix(0.999859108010022 -0.0167904341624898 0.016790437442014 0.999859074764607 2482.06988872181 324.838630962571)" fill="#aa8669" fill-rule="evenodd" stroke="#000000" stroke-opacity="0" stroke-width="0" stroke-linecap="square" stroke-linejoin="bevel" d="M5.59493 11.0548L45.9813 4.0515L43.216 0L0 6.36664L5.59493 11.0548"/><path id="shape6" transform="translate(2536.39326315789, 316.910652631579)" fill="#aa8669" fill-rule="evenodd" stroke="#aa8669" stroke-width="0.0072" stroke-linecap="square" stroke-linejoin="bevel" d="M0 5.89339L1.31874 9.00379L28.9213 2.61928L27.3752 0L0 5.89339"/><path id="shape026" transform="matrix(0.999999973352497 0 0 0.999999958800522 2490.72044898917 356.487405192706)" fill="#aa8669" fill-rule="evenodd" stroke="#aa8669" stroke-width="0.0072" stroke-linecap="square" stroke-linejoin="bevel" d="M0 5.89339L1.31874 9.00379L28.9213 2.61928L27.3752 0L0 5.89339"/><path id="shape027" transform="matrix(0.998238466275316 0.0593289042675478 -0.0593289033349464 0.998238450583831 2643.10704649353 332.829847715089)" fill="#aa8669" fill-rule="evenodd" stroke="#aa8669" stroke-width="0.0072" stroke-linecap="square" stroke-linejoin="bevel" d="M0 7.98154L1.21663 12.194L26.682 3.54734L25.2556 0L0 7.98154"/><path id="shape028" transform="matrix(0.999978271739828 0.00658872045644512 -0.00658871923487894 0.999978275935034 2496.95214202377 372.009525962253)" fill="#aa8669" fill-rule="evenodd" stroke="#aa8669" stroke-width="0.0072" stroke-linecap="square" stroke-linejoin="bevel" d="M1.14112 11.2215L35.4402 4.0631L32.7937 0L0 7.12636"/><path id="shape7" transform="translate(2606.46821052631, 348.651284210526)" fill="#aa8669" fill-rule="evenodd" stroke="#aa8669" stroke-width="0.0072" stroke-linecap="square" stroke-linejoin="bevel" d="M0 20.3404L14.5971 67.7331L83.3078 43.7093L72.8034 0L0 20.3404"/><path id="shape8" transform="translate(2623.61178947368, 410.490947368421)" fill="#aa8669" fill-rule="evenodd" stroke="#aa8669" stroke-width="0.0072" stroke-linecap="square" stroke-linejoin="bevel" d="M0 10.8864L1.09137 14.6107L29.5124 4.09263L28.2846 0L0 10.8864"/><path id="shape9" transform="translate(2656.44378947368, 399.031578947368)" fill="#aa8669" fill-rule="evenodd" stroke="#aa8669" stroke-width="0.0072" stroke-linecap="square" stroke-linejoin="bevel" d="M0 11.091L1.00042 14.7335L33.2413 2.12817L32.832 0L0 11.091"/><path id="shape10" transform="translate(2502.51536842105, 381.883452631579)" fill="#aa8669" fill-rule="evenodd" stroke="#aa8669" stroke-width="0.0072" stroke-linecap="square" stroke-linejoin="bevel" d="M0 12.8918L1.68253 19.3172L59.7069 4.37912L58.8884 0L0 12.8918"/><path id="shape11" transform="translate(2570.63494736842, 373.657263157895)" fill="#aa8669" fill-rule="evenodd" stroke="#aa8669" stroke-width="0.0072" stroke-linecap="square" stroke-linejoin="bevel" d="M0 5.4432L1.22779 9.74046L24.3739 2.94669L22.8278 0L0 5.4432"/><path id="shape12" transform="translate(2534.89263157895, 387.858694736842)" fill="#648b88" fill-rule="evenodd" stroke="#aa8669" stroke-width="0.0072" stroke-linecap="square" stroke-linejoin="bevel" d="M0 13.4648L1.36421 18.7443L49.9756 3.64244L49.3844 0L0 13.4648"/><path id="shape13" transform="translate(2591.50736842105, 384.502736842105)" fill="#aa8669" fill-rule="evenodd" stroke="#aa8669" stroke-width="0.0072" stroke-linecap="square" stroke-linejoin="bevel" d="M0 3.02855L0.636632 5.4432L12.3688 1.92354L11.5048 0L0 3.02855"/><path id="shape14" transform="translate(2508.01768421053, 404.720336842105)" fill="#aa8669" fill-rule="evenodd" stroke="#aa8669" stroke-width="0.0072" stroke-linecap="square" stroke-linejoin="bevel" d="M0 6.46636L0.500211 9.61768L19.6446 3.39688L18.4623 0L0 6.46636"/><path id="shape15" transform="translate(2511.97389473684, 416.507115789474)" fill="#aa8669" fill-rule="evenodd" stroke="#aa8669" stroke-width="0.0072" stroke-linecap="square" stroke-linejoin="bevel" d="M0 10.2725L1.31874 15.02L43.5183 3.39688L41.9722 0L0 10.2725"/><path id="shape16" transform="translate(2564.90526315789, 398.540463157895)" fill="#aa8669" fill-rule="evenodd" stroke="#aa8669" stroke-width="0.0072" stroke-linecap="square" stroke-linejoin="bevel" d="M0 15.552L1.13684 18.4578L44.3823 3.60152L44.064 0L0 15.552"/><path id="shape17" transform="translate(2516.20294736842, 432.877642105263)" fill="#c13400" fill-rule="evenodd" stroke="#aa8669" stroke-width="0.0072" stroke-linecap="square" stroke-linejoin="bevel" d="M0 8.30804L1.54611 11.5412L28.1482 3.39688L26.0564 0L0 8.30804"/><path id="shape18" transform="translate(2548.03452631579, 409.304084210526)" fill="#aa8669" fill-rule="evenodd" stroke="#aa8669" stroke-width="0.0072" stroke-linecap="square" stroke-linejoin="bevel" d="M0 23.3689L0.636632 25.8245L66.3916 3.60152L64.9364 0L0 23.3689"/><path id="shape19" transform="translate(2547.36757894737, 131.752421052632)" fill="#516154" fill-rule="evenodd" stroke="#516154" stroke-width="0.0072" stroke-linecap="square" stroke-linejoin="bevel" d="M0 0.7776L0.136421 0L0 0.7776"/><path id="shape20" transform="translate(2506.22431578947, 127.297705263158)" fill="#516154" fill-rule="evenodd" stroke="#516154" stroke-width="0.0072" stroke-linecap="square" stroke-linejoin="bevel" d="M0.872526 9.38027L5.92011 9.07333L5.184 6.04989L5.75811 5.0472L7.04274 4.18775L8.09432 5.62528L11.5162 13.2222L14.2276 19.0338L15.7623 22.7836L15.4952 24.6765L14.6965 25.0346L12.5138 23.8068L8.71958 15.6164L4.93958 16.4554L9.10611 26.8251L12.8634 28.4315L17.5699 28.7435L20.0937 26.5642L20.1761 22.9473L18.9256 18.998L16.6974 14.1687L14.4009 8.78684L12.5365 5.02162L11.2633 2.85253L9.43579 0.741789L6.55389 0L2.95011 0.0439579L0.818526 1.78333L0 4.67375L0.872526 9.38027"/>
</svg>
