<?xml version="1.0" standalone="no"?>
<!DOCTYPE svg PUBLIC "-//W3C//DTD SVG 20010904//EN" "http://www.w3.org/TR/2001/REC-SVG-20010904/DTD/svg10.dtd">
<!-- Created using Krita: http://krita.org -->
<svg xmlns="http://www.w3.org/2000/svg" 
    xmlns:xlink="http://www.w3.org/1999/xlink"
    xmlns:krita="http://krita.org/namespaces/svg/krita"
    xmlns:sodipodi="http://sodipodi.sourceforge.net/DTD/sodipodi-0.dtd"
    width="2949.12pt"
    height="1555.2pt"
    viewBox="0 0 2949.12 1555.2">
<defs>
  <linearGradient id="gradient0" gradientUnits="objectBoundingBox" x1="0" y1="0" x2="1" y2="1" spreadMethod="pad">
   <stop stop-color="#ac725c" offset="0" stop-opacity="0.450980392156863"/>
   <stop stop-color="#956758" offset="1" stop-opacity="0.631372549019608"/>
  </linearGradient>
  <linearGradient id="gradient1" gradientUnits="objectBoundingBox" x1="0" y1="0" x2="1" y2="1" spreadMethod="pad">
   <stop stop-color="#ac725c" offset="0" stop-opacity="0.450980392156863"/>
   <stop stop-color="#956758" offset="1" stop-opacity="0.631372549019608"/>
  </linearGradient>
  <linearGradient id="gradient2" gradientUnits="objectBoundingBox" x1="0.530364372469635" y1="-0.0173410404624281" x2="0.51163967611336" y2="1.04661742667523" spreadMethod="pad">
   <stop stop-color="#b19589" offset="0" stop-opacity="0.450980392156863"/>
   <stop stop-color="#000000" offset="1" stop-opacity="0"/>
  </linearGradient>
  <linearGradient id="gradient3" gradientUnits="objectBoundingBox" x1="0.473920891694608" y1="-0.00544099470818971" x2="0.467259139478049" y2="1.02448447618686" spreadMethod="pad">
   <stop stop-color="#b19589" offset="0" stop-opacity="0.450980392156863"/>
   <stop stop-color="#000000" offset="1" stop-opacity="0"/>
  </linearGradient>
  <linearGradient id="gradient4" gradientUnits="objectBoundingBox" x1="0" y1="0" x2="1" y2="1" spreadMethod="pad">
   <stop stop-color="#ac725c" offset="0" stop-opacity="0.450980392156863"/>
   <stop stop-color="#956758" offset="1" stop-opacity="0.631372549019608"/>
  </linearGradient>
 </defs>
<path id="shape0" transform="translate(1061.78778947368, 1131.26248421053)" fill="url(#gradient0)" fill-rule="evenodd" stroke="#000000" stroke-opacity="0" stroke-width="0" stroke-linecap="square" stroke-linejoin="bevel" d="M5.86611 118.236L9.82232 124.13L210.225 0L217.319 5.52505L110.501 101.661L337.915 170.172L488.251 68.7562L448.962 129.532L347.192 245.067L265.612 251.574L197.401 207.496L211.725 157.648L170.799 145.37L77.4872 172.75L0 134.811L5.86611 118.236"/><path id="shape1" transform="translate(1065.47115789474, 1083.74703157895)" fill="#612a03" fill-rule="evenodd" stroke="#612a03" stroke-width="0.9936" stroke-linecap="square" stroke-linejoin="bevel" d="M16.2341 23.9419L206.269 0L217.592 18.7852L215.955 49.6027L205.041 56.11L206.951 23.9419L197.674 17.5574L0 59.6706L16.2341 23.9419"/><path id="shape2" transform="translate(1252.76210526316, 1262.73751578947)" fill="#516154" fill-rule="evenodd" stroke="#516154" stroke-width="0.9936" stroke-linecap="square" stroke-linejoin="bevel" d="M0 0L0.181895 7.81693L5.77516 16.8207L7.73053 7.36674L0 0"/><path id="shape3" transform="translate(1198.33010526316, 1246.03957894737)" fill="#516154" fill-rule="evenodd" stroke="#516154" stroke-width="0.9936" stroke-linecap="square" stroke-linejoin="bevel" d="M3.456 0L0 10.3953L5.50232 19.2763L9.59495 12.6053L8.32168 6.05709L3.456 0"/><path id="shape4" transform="translate(1244.41027972023, 1244.03085366467)" fill="url(#gradient1)" fill-rule="evenodd" stroke="#000000" stroke-opacity="0" stroke-width="0" stroke-linecap="square" stroke-linejoin="bevel" d="M6.23802 0L0.321548 8.27663L0 27.145L10.6754 51.1068L20.1295 52.1435L24.1161 34.8429L21.4151 11.1706L6.23802 0"/><path id="shape5" transform="translate(1069.85936842105, 1118.1611560643)" fill="url(#gradient2)" fill-rule="evenodd" stroke="#000000" stroke-opacity="0" stroke-width="0" stroke-linecap="square" stroke-linejoin="bevel" d="M0.272842 23.5557L0 105.081C3.12757 130.606 16.8785 149.247 28.6484 169.172L76.9415 193.482C93.1775 178.585 109.332 164.534 127.69 127.672L131.785 61.4509C87.528 11.0919 21.7874 -26.3706 0.272842 23.5557"/><path id="shape0" transform="matrix(0.999999991925966 0 0 0.999999992582187 1273.11077359614 1195.50399304215)" fill="url(#gradient3)" fill-rule="evenodd" stroke="#000000" stroke-opacity="0" stroke-width="0" stroke-linecap="square" stroke-linejoin="bevel" d="M1.42615 8.5846L0 96.3484C4.55413 122.618 20.146 143.211 34.5078 164.437L93.7756 189.109C114.634 174.819 135.468 160.055 154.903 119.195L163.448 51.6287C102.636 3.91641 48.4156 -11.4738 1.42615 8.5846"/><path id="shape6" transform="translate(1052.82189473684, 1096.21288421053)" fill="#612a03" fill-rule="evenodd" stroke="#612a03" stroke-width="6.876" stroke-linecap="square" stroke-linejoin="bevel" d="M3.18316 23.901L0 47.3927L11.8232 58.5246L17.8257 59.6706L20.4632 42.0723L45.3827 20.4632L84.3082 30.1218L122.233 58.4428L140.787 75.7955L147.153 87.3368L140.059 100.433L125.78 113.038L127.417 129.9L131.783 140.705L145.425 145.452L151.7 139.559L163.251 107.473L186.26 106.736L200.084 112.547L204.723 119.014L201.357 137.349L204.813 160.267L209.907 171.727L218.456 178.357L222.275 168.453L223.276 126.872L229.369 104.69L264.384 98.305L301.309 103.216L327.956 116.313L350.602 125.807L369.519 142.014L380.342 155.111L381.706 161.905L379.432 176.065L377.341 195.137L379.614 202.422L393.62 206.187L421.738 175.738L421.738 140.459L377.613 106.408L305.037 78.0056L244.285 74.0766L222.639 89.6286L206.632 93.2301L180.167 88.4827L172.527 82.753L151.518 52.5494L121.597 22.6732L91.4931 11.3775L54.9322 0.654821L36.3789 0L13.1874 10.6408L3.18316 23.901"/><path id="shape7" transform="translate(1066.28210526316, 1156.86568421053)" fill="#516154" fill-rule="evenodd" stroke="#516154" stroke-width="0.9936" stroke-linecap="square" stroke-linejoin="bevel" d="M0.454737 0L0 62.5354L4.70653 84.7516L15.4611 105.747L28.7848 126.353L44.4505 139.277L72.8488 148.153L100.224 140.459L118.232 121.142L127.872 100.433L132.965 88.7283L127.417 88.4827L116.697 117.504C111.62 123.145 108.636 128.681 100.645 134.468C98.6294 138.23 98.9141 137.607 90.1516 140.484C83.5592 143.343 77.4346 145.179 67.3465 144.577L44.4278 136.494L30.1945 123.434L16.5524 102.152L6.54821 81.3138L3.36505 57.788L2.95579 1.49229L0.454737 0"/><path id="shape8" transform="translate(1269.18568421053, 1275.552)" fill="#516154" fill-rule="evenodd" stroke="#516154" stroke-width="0.9936" stroke-linecap="square" stroke-linejoin="bevel" d="M0 3.1104L6.912 0L8.45811 24.9651L20.3722 54.1864L32.2863 73.0944L41.1082 83.4078L55.7507 92.0842L73.5764 99.4509L111.047 100.515L124.143 92.0842L137.149 77.76L146.061 66.1369L152.155 51.1579L155.975 39.3711L159.431 30.7766L160.886 24.0647L165.524 28.321L150.973 65.2365L126.963 94.2124L111.774 105.262L83.0349 104.608L62.1171 99.9421L44.928 91.5112L29.1032 77.9237L15.6429 50.9123L7.91242 34.1325L3.18316 18.908L0 3.1104"/><path id="shape9" transform="translate(1182.86608731912, 1221.08710498942)" fill="url(#gradient4)" fill-rule="evenodd" stroke="#000000" stroke-opacity="0" stroke-width="0" stroke-linecap="square" stroke-linejoin="bevel" d="M8.93902 0.313235L0 12.1783L2.44376 35.3298L12.669 56.7448L22.1941 61.1723L30.0156 54.9515L28.8107 37.1819L30.7399 19.8183C24.5454 9.72722 18.8643 -2.08209 8.93902 0.313235"/><path id="shape10" transform="translate(1450.31494736842, 1145.50484210526)" fill="#612a03" fill-rule="evenodd" stroke="#612a03" stroke-width="0.9936" stroke-linecap="square" stroke-linejoin="bevel" d="M0.409263 80.9113L95.2219 7.24396L118.55 0L118.004 34.6237L106.136 64.7045L94.5398 59.9161L100.679 35.6059L59.3432 83.6125L24.2451 127.567L24.2451 130.76L0 142.301L0.409263 80.9113"/>
</svg>
