<?xml version="1.0" standalone="no"?>
<!DOCTYPE svg PUBLIC "-//W3C//DTD SVG 20010904//EN" "http://www.w3.org/TR/2001/REC-SVG-20010904/DTD/svg10.dtd">
<!-- Created using Krita: http://krita.org -->
<svg xmlns="http://www.w3.org/2000/svg" 
    xmlns:xlink="http://www.w3.org/1999/xlink"
    xmlns:krita="http://krita.org/namespaces/svg/krita"
    xmlns:sodipodi="http://sodipodi.sourceforge.net/DTD/sodipodi-0.dtd"
    width="2949.12pt"
    height="1555.2pt"
    viewBox="0 0 2949.12 1555.2">
<defs/>
<path id="shape0" transform="translate(129.554526315789, 845.246652631579)" fill="#34433c" fill-rule="evenodd" stroke="#34433c" stroke-width="6.876" stroke-linecap="square" stroke-linejoin="bevel" d="M97.6775 0L0 190.553L166.434 205.286L159.067 165.015L39.2893 169.189L115.685 34.1325L97.6775 0"/><path id="shape1" transform="translate(154.928842105263, 653.220378947368)" fill="#18231d" fill-rule="evenodd" stroke="#18231d" stroke-width="16.56" stroke-linecap="square" stroke-linejoin="bevel" d="M0 0L94.1305 464.596L344.327 408.117L265.203 4.91116L0 0"/><path id="shape2" transform="translate(154.853052631579, 652.765642105263)" fill="#2c4d44" fill-rule="evenodd" stroke="#2c4d44" stroke-width="6.876" stroke-linecap="square" stroke-linejoin="bevel" d="M0 7.53044L10.1861 0L104.408 460.83L94.5853 468.688L83.8535 454.446L0 7.53044"/><path id="shape3" transform="translate(408.232421052631, 672.246568421053)" fill="#2c4d44" fill-rule="evenodd" stroke="#2c4d44" stroke-width="6.876" stroke-linecap="square" stroke-linejoin="bevel" d="M4.54737 0L0 9.82232L70.9389 369.483L76.9415 372.757L4.54737 0"/><path id="shape4" transform="translate(204.692210526316, 671.755452631579)" fill="#2c4d44" fill-rule="evenodd" stroke="#2c4d44" stroke-width="6.876" stroke-linecap="square" stroke-linejoin="bevel" d="M0 0.818526L208.451 0L204.632 9.82232L0 0.818526"/><path id="shape5" transform="translate(293.638736842105, 1045.98568421053)" fill="#2c4d44" fill-rule="evenodd" stroke="#2c4d44" stroke-width="6.876" stroke-linecap="square" stroke-linejoin="bevel" d="M0 35.524L6.54821 47.6382L194.082 4.25634L185.169 0L0 35.524"/><path id="shape6" transform="translate(203.237052631579, 688.980884210526)" fill="#738368" fill-rule="evenodd" stroke="#738368" stroke-width="6.876" stroke-linecap="square" stroke-linejoin="bevel" d="M0 0L81.8526 383.725L271.569 349.347L198.265 0.327411L0 0"/><ellipse id="shape7" transform="translate(313.92, 740.88)" rx="25.92" ry="26.64" cx="25.92" cy="26.64" fill="#ef7f57" fill-rule="evenodd" stroke="#ef7f57" stroke-width="6.876" stroke-linecap="square" stroke-linejoin="bevel"/><path id="shape8" transform="translate(216.166736842105, 723.195284210526)" fill="#f7b8a6" fill-rule="evenodd" stroke="#f7b8a6" stroke-width="6.876" stroke-linecap="square" stroke-linejoin="bevel" d="M8.89768 13.7512L14.9002 0L37.8189 7.03933L41.4568 20.9543L65.2851 21.118L76.3806 54.4047L135.133 54.4047L152.67 69.0867L127.599 74.98L81.5798 78.5816L41.8358 81.2827L33.9234 69.987L21.6455 73.0974L12.4598 54.4047L7.36674 54.4047L6.63916 54.4047L0 21.121L8.89768 13.7512"/><path id="shape9" transform="translate(268.395702179758, 787.922149186485)" fill="#b3301e" fill-rule="evenodd" stroke="#b3301e" stroke-width="6.876" stroke-linecap="square" stroke-linejoin="bevel" d="M19.0999 0L6.81681 7.17694L6.23802 29.5759L17.1706 43.6983L16.7205 50.0071L12.5404 50.0649L11.8329 57.0683L0 86.0654L0.900333 118.246L9.06764 164.375L19.1642 200.491L21.4151 200.202L29.1322 225.032L40.7079 263.695L46.1742 268.788L43.7948 273.249L44.3092 280.889L95.4996 270.471L90.2262 226.425L80.3869 184.753L72.927 128.347L59.2934 67.4006L44.1163 56.5774L42.5086 49.6898L37.7497 49.7477L39.9362 50.3265L40.0648 46.9116L47.7176 45.8119L48.4894 30.8214L45.917 14.5575L42.8301 6.04938L19.0999 0"/><path id="shape10" transform="translate(329.875585079925, 854.512493761478)" fill="#b3301e" fill-rule="evenodd" stroke="#b3301e" stroke-width="6.876" stroke-linecap="square" stroke-linejoin="bevel" d="M0 0L37.2352 38.2577L23.8588 70.3224L8.55316 55.9686L0 0"/><path id="shape11" transform="translate(337.142558686325, 826.557153702165)" fill="#cc4937" fill-rule="evenodd" stroke="#cc4937" stroke-width="6.876" stroke-linecap="square" stroke-linejoin="bevel" d="M7.74543 8.50964L0 22.2642L1.16712 38.5878L7.63933 50.2016L7.79848 56.838L3.60746 56.6239L5.19899 62.9928L11.1407 64.5449L7.26797 69.4152L15.2787 119.617L26.4193 137.064L19.6819 154.351L25.8888 189.621L30.6634 222.963L30.8226 228.422L35.3849 229.546L95.7568 217.986L73.7938 132.247L58.7273 121.865L55.8626 108.378L57.9846 97.5666L68.1173 128.019L78.6214 134.228L66.7911 94.4089L59.5231 68.8264L41.751 62.0294L49.7087 60.7449L54.3241 53.6803L52.096 47.7396L51.6185 53.4127L46.7378 56.5704L43.5017 49.6128L42.4407 27.5627L41.9632 15.0391L33.4221 5.08438L19.1514 0L12.0426 2.99711L7.74543 8.50964"/><path id="shape12" transform="matrix(0.985819742520621 -0.167807733005903 0.167807733005903 0.985819742520621 407.157994587983 911.841079879055)" fill="#b3301e" fill-rule="evenodd" stroke="#b3301e" stroke-width="6.876" stroke-linecap="square" stroke-linejoin="bevel" d="M0 0L4.59176 9.3525L5.25724 23.2271L3.32737 25.6937L0 0"/><path id="shape13" transform="translate(277.298526315789, 964.897010526316)" fill="#ef7f57" fill-rule="evenodd" stroke="#ef7f57" stroke-width="6.876" stroke-linecap="square" stroke-linejoin="bevel" d="M0 19.6446L14.1878 83.2441L182.259 53.7772L169.708 0L0 19.6446"/>
</svg>
