<?xml version="1.0" standalone="no"?>
<!DOCTYPE svg PUBLIC "-//W3C//DTD SVG 20010904//EN" "http://www.w3.org/TR/2001/REC-SVG-20010904/DTD/svg10.dtd">
<!-- Created using Krita: http://krita.org -->
<svg xmlns="http://www.w3.org/2000/svg" 
    xmlns:xlink="http://www.w3.org/1999/xlink"
    xmlns:krita="http://krita.org/namespaces/svg/krita"
    xmlns:sodipodi="http://sodipodi.sourceforge.net/DTD/sodipodi-0.dtd"
    width="2949.12pt"
    height="1555.2pt"
    viewBox="0 0 2949.12 1555.2">
<defs/>
<path id="shape0" transform="matrix(0.999454067579188 -0.0330387121008318 0.0330387232384717 0.99945405996036 2144.05386439781 719.448275205354)" fill="#655b48" fill-opacity="0.733333333333333" fill-rule="evenodd" stroke="#000000" stroke-opacity="0" stroke-width="0" stroke-linecap="square" stroke-linejoin="bevel" d="M550.191 76.3711C546.45 64.3137 568.277 45.4224 615.672 19.6969L0 0L83.5226 60.9445"/><path id="shape01" transform="matrix(-1.00000002101988 0 0 0.99999996864801 2658.1907852728 668.597925848492)" fill="#738368" fill-rule="evenodd" stroke="#738368" stroke-width="6.876" stroke-linecap="square" stroke-linejoin="bevel" d="M12.6872 61.8806L26.4657 61.635L58.5246 8.10341L11.3229 0L0 48.0066L12.6872 61.8806"/><path id="shape0" transform="translate(2259.56463157895, 665.243621052632)" fill="#738368" fill-rule="evenodd" stroke="#738368" stroke-width="6.876" stroke-linecap="square" stroke-linejoin="bevel" d="M12.6872 61.8806L26.4657 61.635L58.5246 8.10341L11.3229 0L0 48.0066L12.6872 61.8806"/><path id="shape02" transform="matrix(-0.999999974618919 0 0 1.0000000275422 2702.17554189124 655.115193821801)" fill="#516154" fill-rule="evenodd" stroke="#516154" stroke-width="29.1672" stroke-linecap="square" stroke-linejoin="bevel" d="M17.2072 7.03933L0 109.573L27.9166 109.573L70.3933 0L17.2072 7.03933"/><path id="shape1" transform="translate(2217.53936842105, 649.855326315789)" fill="#516154" fill-rule="evenodd" stroke="#516154" stroke-width="29.1672" stroke-linecap="square" stroke-linejoin="bevel" d="M17.2072 7.03933L0 109.573L27.9166 109.573L70.3933 0L17.2072 7.03933"/><rect id="shape2" transform="translate(2161.44, 299.52)" fill="#c48343" fill-rule="evenodd" stroke="#c48343" stroke-width="29.1672" stroke-linecap="square" stroke-linejoin="bevel" width="604.8" height="381.6"/><rect id="shape3" transform="translate(2167.2, 306.72)" fill="#b0510d" fill-rule="evenodd" stroke="#b0510d" stroke-width="18.1008" stroke-linecap="square" stroke-linejoin="bevel" width="591.12" height="367.2"/><rect id="shape4" transform="translate(2211.12, 354.24)" fill="#dbb386" fill-rule="evenodd" stroke="#dbb386" stroke-width="18.1008" stroke-linecap="square" stroke-linejoin="bevel" width="504.72" height="118.08"/><rect id="shape5" transform="translate(2291.04, 398.16)" fill="#dbc5ad" fill-rule="evenodd" stroke="#dbc5ad" stroke-width="18.1008" stroke-linecap="square" stroke-linejoin="bevel" width="285.12" height="23.76"/><rect id="shape6" transform="translate(2296.08, 406.08)" fill="#fffaf5" fill-rule="evenodd" stroke="#fffaf5" stroke-width="18.1008" stroke-linecap="square" stroke-linejoin="bevel" width="273.6" height="7.19999999999999"/><rect id="shape7" transform="translate(2233.44, 365.76)" fill="#fffaf5" fill-rule="evenodd" stroke="#fffaf5" stroke-width="18.1008" stroke-linecap="square" stroke-linejoin="bevel" width="27.3600000000001" height="12.96"/><rect id="shape8" transform="translate(2579.76, 360.72)" fill="#f53707" fill-rule="evenodd" stroke="#f53707" stroke-width="3.6504" stroke-linecap="square" stroke-linejoin="bevel" width="106.56" height="12.96"/><path id="shape9" transform="translate(2314.59563252329, 381.73112858653)" fill="#8a6f51" fill-rule="evenodd" stroke="#8a6f51" stroke-width="3.6504" stroke-linecap="square" stroke-linejoin="bevel" d="M0 0L0.636632 26.2338L3.09221 25.8245L0 0"/><path id="shape03" transform="matrix(0.999999961961827 0 0 1.00000000948934 2334.74601536882 381.513800818793)" fill="#8a6f51" fill-rule="evenodd" stroke="#8a6f51" stroke-width="3.6504" stroke-linecap="square" stroke-linejoin="bevel" d="M0 0L0.636632 26.2338L3.09221 25.8245L0 0"/><path id="shape04" transform="matrix(0.999999961961827 0 0 1.00000000948934 2356.9006384432 380.819258208624)" fill="#8a6f51" fill-rule="evenodd" stroke="#8a6f51" stroke-width="3.6504" stroke-linecap="square" stroke-linejoin="bevel" d="M0 0L0.636632 26.2338L3.09221 25.8245L0 0"/><path id="shape05" transform="matrix(0.999999961961827 0 0 1.00000000948934 2378.05846425298 380.761379657776)" fill="#8a6f51" fill-rule="evenodd" stroke="#8a6f51" stroke-width="3.6504" stroke-linecap="square" stroke-linejoin="bevel" d="M0 0L0.636632 26.2338L3.09221 25.8245L0 0"/><path id="shape06" transform="matrix(0.999999961961827 0 0 1.00000000948934 2400.75971808537 380.992893861166)" fill="#8a6f51" fill-rule="evenodd" stroke="#8a6f51" stroke-width="3.6504" stroke-linecap="square" stroke-linejoin="bevel" d="M0 0L0.636632 26.2338L3.09221 25.8245L0 0"/><path id="shape07" transform="matrix(0.999999961961827 0 0 1.00000000948934 2422.56063890457 381.484861543369)" fill="#8a6f51" fill-rule="evenodd" stroke="#8a6f51" stroke-width="3.6504" stroke-linecap="square" stroke-linejoin="bevel" d="M0 0L0.636632 26.2338L3.09221 25.8245L0 0"/><path id="shape08" transform="matrix(0.999999961961827 0 0 1.00000000948934 2445.1011189846 380.732440382352)" fill="#8a6f51" fill-rule="evenodd" stroke="#8a6f51" stroke-width="3.6504" stroke-linecap="square" stroke-linejoin="bevel" d="M0 0L0.636632 26.2338L3.09221 25.8245L0 0"/><path id="shape09" transform="matrix(0.999999961961827 0 0 1.00000000948934 2467.51298006275 381.311225890827)" fill="#8a6f51" fill-rule="evenodd" stroke="#8a6f51" stroke-width="3.6504" stroke-linecap="square" stroke-linejoin="bevel" d="M0 0L0.636632 26.2338L3.09221 25.8245L0 0"/><path id="shape010" transform="matrix(0.999999961961827 0 0 1.00000000948934 2488.34925836782 381.513800818793)" fill="#8a6f51" fill-rule="evenodd" stroke="#8a6f51" stroke-width="3.6504" stroke-linecap="square" stroke-linejoin="bevel" d="M0 0L0.636632 26.2338L3.09221 25.8245L0 0"/><path id="shape011" transform="matrix(0.999999961961827 0 0 1.00000000948934 2509.15338192243 381.34016516625)" fill="#8a6f51" fill-rule="evenodd" stroke="#8a6f51" stroke-width="3.6504" stroke-linecap="square" stroke-linejoin="bevel" d="M0 0L0.636632 26.2338L3.09221 25.8245L0 0"/><path id="shape012" transform="matrix(0.999999961961827 0 0 1.00000000948934 2530.79352898928 381.02183313659)" fill="#8a6f51" fill-rule="evenodd" stroke="#8a6f51" stroke-width="3.6504" stroke-linecap="square" stroke-linejoin="bevel" d="M0 0L0.636632 26.2338L3.09221 25.8245L0 0"/><path id="shape013" transform="matrix(0.999999961961827 0 0 1.00000000948934 2553.39831857025 381.542740094217)" fill="#8a6f51" fill-rule="evenodd" stroke="#8a6f51" stroke-width="3.6504" stroke-linecap="square" stroke-linejoin="bevel" d="M0 0L0.636632 26.2338L3.09221 25.8245L0 0"/><ellipse id="shape10" transform="translate(2295.36, 406.8)" rx="2.87999999999988" ry="2.88" cx="2.87999999999988" cy="2.88" fill="#8a6f51" fill-rule="evenodd" stroke="#8a6f51" stroke-width="3.6504" stroke-linecap="square" stroke-linejoin="bevel"/><path id="shape11" transform="translate(2209.63157935267, 474.779896251564)" fill="#8a6f51" fill-rule="evenodd" stroke="#8a6f51" stroke-width="3.6504" stroke-linecap="square" stroke-linejoin="bevel" d="M0 6.4824L6.62388 0L495.312 1.27333L509.267 4.63028L0.128619 6.54028"/><path id="shape12" transform="translate(2202.49322474815, 348.14162699737)" fill="#8a6f51" fill-rule="evenodd" stroke="#8a6f51" stroke-width="3.6504" stroke-linecap="square" stroke-linejoin="bevel" d="M14.2124 126.002L10.3538 0L0.321548 6.193L0 121.545L6.7525 132.195L14.2124 126.002"/><path id="shape13" transform="translate(2709.31640166888, 348.951926709234)" fill="#8a6f51" fill-rule="evenodd" stroke="#8a6f51" stroke-width="3.6504" stroke-linecap="square" stroke-linejoin="bevel" d="M6.04509 0L13.7622 7.06118L14.5339 123.281L7.52421 130.285L0 127.506L6.04509 0"/><path id="shape14" transform="translate(2321.36933723869, 378.238473438037)" fill="#b3301e" fill-rule="evenodd" stroke="#b3301e" stroke-width="3.6504" stroke-linecap="square" stroke-linejoin="bevel" d="M7.91007 0.983935L0.385857 0L0 23.2672L4.11581 59.0361L7.84576 57.9364L9.58212 24.3669L7.91007 0.983935"/><ellipse id="shape15" transform="translate(2241.36, 543.692463157895)" rx="34.2" ry="36.72" cx="34.2" cy="36.72" fill="#516154" fill-rule="evenodd" stroke="#516154" stroke-width="3.6504" stroke-linecap="square" stroke-linejoin="bevel"/><ellipse id="shape014" transform="matrix(0.999999961990615 0 0 1.00000001733411 2424.12477696452 544.781511434966)" rx="34.2" ry="36.72" cx="34.2" cy="36.72" fill="#516154" fill-rule="evenodd" stroke="#516154" stroke-width="3.6504" stroke-linecap="square" stroke-linejoin="bevel"/><ellipse id="shape015" transform="matrix(0.999999961990615 0 0 1.00000001733411 2608.03739376648 544.037316877875)" rx="34.2" ry="36.72" cx="34.2" cy="36.72" fill="#516154" fill-rule="evenodd" stroke="#516154" stroke-width="3.6504" stroke-linecap="square" stroke-linejoin="bevel"/><ellipse id="shape16" transform="translate(2256.49259548964, 560.703966652545)" rx="18.3599999999999" ry="18.36" cx="18.3599999999999" cy="18.36" fill="#738368" fill-rule="evenodd" stroke="#738368" stroke-width="3.6504" stroke-linecap="square" stroke-linejoin="bevel"/><ellipse id="shape016" transform="matrix(0.99999998298516 0 0 0.999999991862047 2439.91138066756 561.766764828526)" rx="18.3599999999999" ry="18.36" cx="18.3599999999999" cy="18.36" fill="#738368" fill-rule="evenodd" stroke="#738368" stroke-width="3.6504" stroke-linecap="square" stroke-linejoin="bevel"/><ellipse id="shape017" transform="matrix(0.99999998298516 0 0 0.999999991862047 2625.05843387842 561.361614972594)" rx="18.3599999999999" ry="18.36" cx="18.3599999999999" cy="18.36" fill="#738368" fill-rule="evenodd" stroke="#738368" stroke-width="3.6504" stroke-linecap="square" stroke-linejoin="bevel"/><path id="shape17" transform="translate(2247.61705790884, 547.108791960579)" fill="#738368" fill-rule="evenodd" stroke="#738368" stroke-width="3.6504" stroke-linecap="square" stroke-linejoin="bevel" d="M12.5404 21.8202L0 11.3442L5.91647 5.72998L12.9262 0L22.9585 19.2736L12.5404 21.8202"/><path id="shape18" transform="translate(2434.11461063947, 548.034848774138)" fill="#738368" fill-rule="evenodd" stroke="#738368" stroke-width="3.6504" stroke-linecap="square" stroke-linejoin="bevel" d="M0 11.3442L15.177 23.1514L21.2864 17.5372L9.26057 0L0 11.3442"/><path id="shape19" transform="translate(2613.47380876558, 547.571820367358)" fill="#738368" fill-rule="evenodd" stroke="#738368" stroke-width="3.6504" stroke-linecap="square" stroke-linejoin="bevel" d="M0 13.9487L5.91647 6.82967L6.1094 5.84573L13.2478 0L27.5245 24.5984L20.3218 31.8332L0 13.9487"/>
</svg>
