<?xml version="1.0" standalone="no"?>
<!DOCTYPE svg PUBLIC "-//W3C//DTD SVG 20010904//EN" "http://www.w3.org/TR/2001/REC-SVG-20010904/DTD/svg10.dtd">
<!-- Created using Krita: http://krita.org -->
<svg xmlns="http://www.w3.org/2000/svg" 
    xmlns:xlink="http://www.w3.org/1999/xlink"
    xmlns:krita="http://krita.org/namespaces/svg/krita"
    xmlns:sodipodi="http://sodipodi.sourceforge.net/DTD/sodipodi-0.dtd"
    width="2949.12pt"
    height="1555.2pt"
    viewBox="0 0 2949.12 1555.2">
<defs/>
<path id="shape0" transform="matrix(0.999999960263572 0 0 1.00000003139669 163.431871898714 593.207260730005)" fill="#655b48" fill-opacity="0.733333333333333" fill-rule="evenodd" stroke="#000000" stroke-opacity="0" stroke-width="0" stroke-linecap="square" stroke-linejoin="bevel" d="M260.095 159.267L763.568 162.502L991.288 184.393C964.065 177.966 1049.25 195.759 1010.77 184.393C995.833 179.98 847.858 149.853 815.016 139.177C812.941 138.503 873.535 139.364 869.872 133.737C859.667 130.711 792.822 123.811 788.396 122.124L783.755 0L256.26 8.18526L240.981 9.55554L228.794 122.676L132.821 138.888L158.223 146.875L0 184.393L18.071 184.393"/><rect id="shape1" transform="matrix(0.999999960263572 0 0 1.00000003139669 261.473673820496 250.560007866754)" fill="#bc7a40" fill-rule="evenodd" stroke="#bc7a40" stroke-width="21.6" stroke-linecap="square" stroke-linejoin="bevel" width="825.25642105263" height="255.6"/><path id="shape2" transform="matrix(0.999999960263572 0 0 1.00000003139669 104.316627433777 492.746794417984)" fill="#cba051" fill-rule="evenodd" stroke="#cba051" stroke-width="0.7488" stroke-linecap="square" stroke-linejoin="bevel" d="M146.425 3.29229L0 79.5789L1126.47 78.2693L990.417 0"/><rect id="shape3" transform="matrix(0.999999960263572 0 0 1.00000003139669 158.39999370575 639.360020073785)" fill="#612a03" fill-rule="evenodd" stroke="#612a03" stroke-width="0.7488" stroke-linecap="square" stroke-linejoin="bevel" width="1041.84" height="37.4400000000001"/><path id="shape4" transform="matrix(0.999999960263572 0 0 1.00000003139669 155.519993820191 670.197242094603)" fill="#612a03" fill-rule="evenodd" stroke="#612a03" stroke-width="0.7488" stroke-linecap="square" stroke-linejoin="bevel" d="M64.0269 0L0 107.403L29.8307 107.403L118.959 5.89339L123.325 2.61928L64.0269 0"/><path id="shape01" transform="matrix(-0.999999985606221 0 0 0.999999995001291 1186.38735655064 672.658775705322)" fill="#612a03" fill-rule="evenodd" stroke="#612a03" stroke-width="0.7488" stroke-linecap="square" stroke-linejoin="bevel" d="M64.0269 0L0 107.403L29.8307 107.403L118.959 5.89339L123.325 2.61928L64.0269 0"/><rect id="shape5" transform="matrix(0.999999960263572 0 0 1.00000003139669 110.501048240662 580.674712968103)" fill="#c48343" fill-rule="evenodd" stroke="#c48343" stroke-width="21.6" stroke-linecap="square" stroke-linejoin="bevel" width="1119.38021052632" height="65.482105263158"/><path id="shape6" transform="matrix(0.999999960263572 0 0 1.00000003139669 293.123356773377 671.694842141624)" fill="#612a03" fill-rule="evenodd" stroke="#612a03" stroke-width="0.7488" stroke-linecap="square" stroke-linejoin="bevel" d="M18.5533 0L0 62.208L22.5549 61.7169L55.4779 3.76522L18.5533 0"/><path id="shape01" transform="matrix(-0.999999925998812 0 0 1.0000000220889 1044.86374318026 668.976816267483)" fill="#612a03" fill-rule="evenodd" stroke="#612a03" stroke-width="0.7488" stroke-linecap="square" stroke-linejoin="bevel" d="M18.5533 0L0 62.208L22.5549 61.7169L55.4779 3.76522L18.5533 0"/>
</svg>
