<?xml version="1.0" standalone="no"?>
<!DOCTYPE svg PUBLIC "-//W3C//DTD SVG 20010904//EN" "http://www.w3.org/TR/2001/REC-SVG-20010904/DTD/svg10.dtd">
<!-- Created using Krita: http://krita.org -->
<svg xmlns="http://www.w3.org/2000/svg" 
    xmlns:xlink="http://www.w3.org/1999/xlink"
    xmlns:krita="http://krita.org/namespaces/svg/krita"
    xmlns:sodipodi="http://sodipodi.sourceforge.net/DTD/sodipodi-0.dtd"
    width="1380.24pt"
    height="690.48pt"
    viewBox="0 0 1380.24 690.48">
<defs/>
<rect id="shape0" transform="translate(261.473684210526, 250.56)" fill="#bc7a40" fill-rule="evenodd" stroke="#bc7a40" stroke-width="21.6" stroke-linecap="square" stroke-linejoin="bevel" width="825.25642105263" height="255.6"/><path id="shape1" transform="translate(104.316631578947, 492.746778947368)" fill="#cba051" fill-rule="evenodd" stroke="#cba051" stroke-width="0.7488" stroke-linecap="square" stroke-linejoin="bevel" d="M146.425 3.29229L0 79.5789L1126.47 78.2693L990.417 0"/><rect id="shape2" transform="translate(158.4, 639.36)" fill="#612a03" fill-rule="evenodd" stroke="#612a03" stroke-width="0.7488" stroke-linecap="square" stroke-linejoin="bevel" width="1041.84" height="37.4400000000001"/><path id="shape3" transform="translate(155.52, 670.197221052631)" fill="#612a03" fill-rule="evenodd" stroke="#612a03" stroke-width="0.7488" stroke-linecap="square" stroke-linejoin="bevel" d="M64.0269 0L0 107.403L29.8307 107.403L118.959 5.89339L123.325 2.61928L64.0269 0"/><path id="shape0" transform="matrix(-1.00000002534265 0 0 0.999999963604606 1186.38740369344 672.658754586066)" fill="#612a03" fill-rule="evenodd" stroke="#612a03" stroke-width="0.7488" stroke-linecap="square" stroke-linejoin="bevel" d="M64.0269 0L0 107.403L29.8307 107.403L118.959 5.89339L123.325 2.61928L64.0269 0"/><rect id="shape4" transform="translate(110.501052631579, 580.674694736842)" fill="#c48343" fill-rule="evenodd" stroke="#c48343" stroke-width="21.6" stroke-linecap="square" stroke-linejoin="bevel" width="1119.38021052632" height="65.482105263158"/><path id="shape5" transform="translate(293.123368421053, 671.694821052632)" fill="#612a03" fill-rule="evenodd" stroke="#612a03" stroke-width="0.7488" stroke-linecap="square" stroke-linejoin="bevel" d="M18.5533 0L0 62.208L22.5549 61.7169L55.4779 3.76522L18.5533 0"/><path id="shape01" transform="matrix(-0.999999965735239 0 0 0.999999990692212 1044.86378469941 668.976795263828)" fill="#612a03" fill-rule="evenodd" stroke="#612a03" stroke-width="0.7488" stroke-linecap="square" stroke-linejoin="bevel" d="M18.5533 0L0 62.208L22.5549 61.7169L55.4779 3.76522L18.5533 0"/>
</svg>
