<?xml version="1.0" standalone="no"?>
<!DOCTYPE svg PUBLIC "-//W3C//DTD SVG 20010904//EN" "http://www.w3.org/TR/2001/REC-SVG-20010904/DTD/svg10.dtd">
<!-- Created using Krita: http://krita.org -->
<svg xmlns="http://www.w3.org/2000/svg" 
    xmlns:xlink="http://www.w3.org/1999/xlink"
    xmlns:krita="http://krita.org/namespaces/svg/krita"
    xmlns:sodipodi="http://sodipodi.sourceforge.net/DTD/sodipodi-0.dtd"
    width="2949.12pt"
    height="1555.2pt"
    viewBox="0 0 2949.12 1555.2">
<defs/>
<path id="shape0" transform="translate(1245.70610526316, 1236.66593684211)" fill="#796a5d" fill-opacity="0.6" fill-rule="evenodd" stroke="#000000" stroke-opacity="0" stroke-width="0" stroke-linecap="square" stroke-linejoin="bevel" d="M78.3057 2.21002L0 0L102.043 46.656L139.968 129.9L423.997 186.624L472.017 182.45L354.695 133.338L561.782 117.868L801.337 133.338L763.412 97.9776L574.06 80.543L78.3057 2.21002"/><path id="shape1" transform="translate(2002.97936842105, 1320.40572631579)" fill="#d3be4d" fill-rule="evenodd" stroke="#d3be4d" stroke-width="2.0376" stroke-linecap="square" stroke-linejoin="bevel" d="M0 4.17448L14.7335 31.677L33.0139 42.6043L44.6097 35.4831L27.8299 0L0 4.17448"/><path id="shape2" transform="translate(1989.74652631579, 1291.06155789474)" fill="#cba051" fill-rule="evenodd" stroke="#cba051" stroke-width="2.0376" stroke-linecap="square" stroke-linejoin="bevel" d="M0.682105 0L0 13.874L11.3229 40.2715L34.9238 50.0938L49.1116 37.4476L35.6059 5.03394L0.682105 0"/><path id="shape3" transform="translate(1807.35157894737, 868.497347368421)" fill="#6d350e" fill-rule="evenodd" stroke="#6d350e" stroke-width="2.0376" stroke-linecap="square" stroke-linejoin="bevel" d="M51.84 0L228.642 432.796L201.63 440.408L176.665 438.075L0 8.34897L51.84 0"/><path id="shape4" transform="translate(1809.39789473684, 883.108042105263)" fill="#7d512b" fill-rule="evenodd" stroke="#7d512b" stroke-width="2.0376" stroke-linecap="square" stroke-linejoin="bevel" d="M26.0564 2.21002L0 0L174.755 424.447L197.811 424.692L26.0564 2.21002"/><path id="shape5" transform="translate(1336.67621052632, 1235.07890526316)" fill="#f0dc72" fill-rule="evenodd" stroke="#f0dc72" stroke-width="2.0376" stroke-linecap="square" stroke-linejoin="bevel" d="M1.90989 0L0 19.7674L6.27537 30.4492L17.0526 28.1164L22.5095 3.31503L1.90989 0"/><path id="shape6" transform="translate(1332.99284210526, 1209.26804210526)" fill="#7d512b" fill-rule="evenodd" stroke="#7d512b" stroke-width="2.0376" stroke-linecap="square" stroke-linejoin="bevel" d="M5.184 0L0 22.3458L12.1415 35.6059L31.2404 29.8353L38.3343 2.57836L5.184 0"/><path id="shape7" transform="translate(1334.22063157895, 1207.67191578947)" fill="#cba051" fill-rule="evenodd" stroke="#cba051" stroke-width="2.0376" stroke-linecap="square" stroke-linejoin="bevel" d="M5.72968 0L18.8261 8.84008L11.8686 34.8692L0 22.8369L5.72968 0"/><path id="shape8" transform="translate(1663.01810526316, 1364.35604210526)" fill="#d3be4d" fill-rule="evenodd" stroke="#d3be4d" stroke-width="2.0376" stroke-linecap="square" stroke-linejoin="bevel" d="M0 2.94669L5.59326 32.0453L30.2855 39.7804L39.8349 32.1681L34.1053 0L0 2.94669"/><path id="shape9" transform="translate(1650.42189473684, 1306.368)" fill="#cba051" fill-rule="evenodd" stroke="#cba051" stroke-width="2.0376" stroke-linecap="square" stroke-linejoin="bevel" d="M38.3798 7.12118L0 15.7157L8.73095 65.564L35.7423 71.2118L50.4758 60.4072L36.1971 0"/><path id="shape10" transform="translate(1552.19873684211, 860.680421052632)" fill="#6d350e" fill-rule="evenodd" stroke="#6d350e" stroke-width="2.0376" stroke-linecap="square" stroke-linejoin="bevel" d="M0 0L88.9465 474.663L119.505 476.873L155.793 474.418L73.3945 21.8547L0 0"/><path id="shape11" transform="translate(1553.88126315789, 868.538273684211)" fill="#7d512b" fill-rule="evenodd" stroke="#7d512b" stroke-width="2.0376" stroke-linecap="square" stroke-linejoin="bevel" d="M0 0L87.4459 460.539L122.915 463.732L30.9676 0.491116L3.68337 0.118232"/><path id="shape12" transform="translate(1680.61642105263, 1342.99250526316)" fill="#b6753d" fill-rule="evenodd" stroke="#b6753d" stroke-width="2.0376" stroke-linecap="square" stroke-linejoin="bevel" d="M0 0L7.36674 30.0808L17.7347 20.6269L0 0"/><path id="shape13" transform="translate(1351.02315789474, 292.359410526316)" fill="#dbc5ad" fill-rule="evenodd" stroke="#dbc5ad" stroke-width="2.0376" stroke-linecap="square" stroke-linejoin="bevel" d="M123.537 606.037L0 0L428.999 49.0297L650.547 575.133L626.264 605.464L123.537 606.037"/><path id="shape14" transform="translate(1386.03789473684, 298.170947368421)" fill="#f7e3cd" fill-rule="evenodd" stroke="#f7e3cd" stroke-width="2.0376" stroke-linecap="square" stroke-linejoin="bevel" d="M0 0L134.784 566.257L618.806 567.975L421.814 34.1325L0 0"/><path id="shape15" transform="translate(1256.30147368421, 222.493642105263)" fill="#dbc5ad" fill-rule="evenodd" stroke="#dbc5ad" stroke-width="2.0376" stroke-linecap="square" stroke-linejoin="bevel" d="M127.554 81.8936L128.509 61.8806L149.517 48.6205L117.459 3.56059L78.1693 0L52.7949 52.6722L62.6173 97.732L0 590.812L218.259 598.179L127.554 81.8936"/><path id="shape16" transform="translate(1334.47073684211, 222.7392)" fill="#f7e3cd" fill-rule="evenodd" stroke="#f7e3cd" stroke-width="2.0376" stroke-linecap="square" stroke-linejoin="bevel" d="M48.4295 74.1585L58.6611 45.3054L52.7949 22.3458L23.4644 2.45558L0 1.84168L11.5958 0L39.9714 1.96446L454.146 50.3394L488.387 63.4767L493.844 84.8403L490.707 96.8726L480.202 109.396L465.878 115.412L48.4295 74.1585"/><path id="shape17" transform="translate(1265.03242105263, 319.194947368421)" fill="#ba9469" fill-rule="evenodd" stroke="#ba9469" stroke-width="2.0376" stroke-linecap="square" stroke-linejoin="bevel" d="M72.8034 0L189.019 498.486L0 494.907L72.8034 0"/><path id="shape18" transform="translate(1330.83284210526, 713.891368421053)" fill="#6d350e" fill-rule="evenodd" stroke="#6d350e" stroke-width="2.0376" stroke-linecap="square" stroke-linejoin="bevel" d="M95.0248 0L0 498.819L21.8274 512.816L45.0189 507.659L124.947 111.074L98.3899 1.5552"/><path id="shape19" transform="translate(1354.00926315789, 760.004715789473)" fill="#452100" fill-rule="evenodd" stroke="#452100" stroke-width="2.0376" stroke-linecap="square" stroke-linejoin="bevel" d="M0 465.25L22.1912 460.667L100.679 59.0157L87.6733 0L0 465.25"/><path id="shape20" transform="translate(2016.21221052632, 1302.97111578947)" fill="#b6753d" fill-rule="evenodd" stroke="#b6753d" stroke-width="2.0376" stroke-linecap="square" stroke-linejoin="bevel" d="M0 0L10.2316 37.0792L21.4181 25.2925L0 0"/>
</svg>
