<?xml version="1.0" standalone="no"?>
<!DOCTYPE svg PUBLIC "-//W3C//DTD SVG 20010904//EN" "http://www.w3.org/TR/2001/REC-SVG-20010904/DTD/svg10.dtd">
<!-- Created using Krita: http://krita.org -->
<svg xmlns="http://www.w3.org/2000/svg" 
    xmlns:xlink="http://www.w3.org/1999/xlink"
    xmlns:krita="http://krita.org/namespaces/svg/krita"
    xmlns:sodipodi="http://sodipodi.sourceforge.net/DTD/sodipodi-0.dtd"
    width="2949.12pt"
    height="1555.2pt"
    viewBox="0 0 2949.12 1555.2">
<defs/>
<path id="shape0" transform="matrix(0.99999999592948 0 0 1.00000001612967 619.874501684189 1385.40568139931)" fill="#655b48" fill-opacity="0.733333333333333" fill-rule="evenodd" stroke="#000000" stroke-opacity="0" stroke-width="0" stroke-linecap="square" stroke-linejoin="bevel" d="M0.272842 47.5156L135.193 75.2637L253.743 136.039L285.939 141.933L239.146 169.794L252.106 169.794L323.471 148.687L438.649 172.405L518.264 99.2056L615.123 111.483L523.311 203.199L729.443 229.597C709.461 223.035 779.107 123.334 750.861 111.729C739.897 107.223 472.796 69.8358 470.107 64.0908C462.616 61.0008 316.472 -0.118512 288.94 0.000172625L246.649 30.4494L203.131 53.1635L0 37.325"/><path id="shape01" transform="matrix(0.999999959708478 0 0 0.999999997140732 885.599964809419 1063.8750649811)" fill="#90655f" fill-rule="evenodd" stroke="#90655f" stroke-width="18" stroke-linecap="square" stroke-linejoin="bevel" d="M0 284.97L0.520013 0L206.965 65.6254L207.832 395.054L202.112 120.795L200.032 96.77L199.685 95.2127L199.685 85.4242L6.41353 14.2374L0 284.97"/><path id="shape01" transform="matrix(0.999999960263572 0 0 1.00000003139669 625.717869873048 1187.63624781416)" fill="#452100" fill-rule="evenodd" stroke="#452100" stroke-width="18" stroke-linecap="square" stroke-linejoin="bevel" d="M0 53.7772L0.545684 123.025L3.00126 119.096L231.097 236.718L457.011 154.701L458.375 163.05L463.559 65.3184L463.013 66.3006L264.384 0L0 53.7772"/><path id="shape1" transform="matrix(0.999999960263572 0 0 1.00000003139669 629.787764448167 1179.01898438571)" fill="#59362e" fill-rule="evenodd" stroke="#000000" stroke-opacity="0" stroke-width="0" stroke-linecap="square" stroke-linejoin="bevel" d="M47.0653 85.3314L232.211 155.846L467.107 78.3154L463.559 69.8612L252.379 0L0 55.2505"/><path id="shape2" transform="matrix(0.999999960263572 0 0 1.00000003139669 619.919975366593 1119.12559303157)" fill="#90655f" fill-rule="evenodd" stroke="#90655f" stroke-width="18" stroke-linecap="square" stroke-linejoin="bevel" d="M0 314.56L0.617991 0L245.96 72.4396L246.99 436.074L240.192 133.338L237.72 106.818L237.308 105.099L237.308 94.2942L7.62189 15.7157L0 314.56"/><path id="shape3" transform="matrix(0.999999960263572 0 0 1.00000003139669 851.653860895158 1150.22959400814)" fill="#90655f" fill-rule="evenodd" stroke="#90655f" stroke-width="18" stroke-linecap="square" stroke-linejoin="bevel" d="M8.73095 0L0 44.446L15.552 56.7239L31.3768 9.3312L8.73095 0"/><path id="shape4" transform="matrix(0.999999960263572 0 0 1.00000003139669 849.448387298586 1004.69561049148)" fill="#452100" fill-rule="evenodd" stroke="#452100" stroke-width="18" stroke-linecap="square" stroke-linejoin="bevel" d="M0 149.545L42.2905 165.506L256.472 110.747L281.027 10.0679L224.276 0L7.63958 44.9371L0 149.545"/><path id="shape5" transform="matrix(0.999999960263572 0 0 1.00000003139669 848.008387355805 996.274641806036)" fill="#59362e" fill-rule="evenodd" stroke="#000000" stroke-opacity="0" stroke-width="0" stroke-linecap="square" stroke-linejoin="bevel" d="M0 52.0158L8.19629 46.2651L226.955 0L283.972 9.94509L290.914 20.7292L59.3659 73.052L57.1948 75.2097"/>
</svg>
