<?xml version="1.0" standalone="no"?>
<!DOCTYPE svg PUBLIC "-//W3C//DTD SVG 20010904//EN" "http://www.w3.org/TR/2001/REC-SVG-20010904/DTD/svg10.dtd">
<!-- Created using Krita: http://krita.org -->
<svg xmlns="http://www.w3.org/2000/svg" 
    xmlns:xlink="http://www.w3.org/1999/xlink"
    xmlns:krita="http://krita.org/namespaces/svg/krita"
    xmlns:sodipodi="http://sodipodi.sourceforge.net/DTD/sodipodi-0.dtd"
    width="2949.12pt"
    height="1555.2pt"
    viewBox="0 0 2949.12 1555.2">
<defs>
  <linearGradient id="gradient0" gradientUnits="objectBoundingBox" x1="0.506239595743921" y1="-0.00381189639453616" x2="0.350800875877993" y2="1.00317658032878" spreadMethod="pad">
   <stop stop-color="#341206" offset="0" stop-opacity="1"/>
   <stop stop-color="#351600" offset="0.295081967213115" stop-opacity="0.568627450980392"/>
   <stop stop-color="#000000" offset="1" stop-opacity="0"/>
  </linearGradient>
 </defs>
<path id="shape0" transform="translate(768.656842105263, 611.451284210526)" fill="#453c36" fill-opacity="0.486274509803922" fill-rule="evenodd" stroke="#000000" stroke-opacity="0" stroke-width="0" stroke-linecap="square" stroke-linejoin="bevel" d="M0 125.071L92.5844 60.5709L72.7579 43.3819L169.526 0L705.903 26.1928L665.007 100.351L587.52 195.628L544.593 127.363L147.88 84.1445L0 125.071"/><path id="shape0" transform="matrix(0.999999936554332 0 -0.000587890010572689 1.00000002970802 1300.08291931138 495.966035343042)" fill="#452100" fill-rule="evenodd" stroke="#452100" stroke-width="5.0904" stroke-linecap="square" stroke-linejoin="bevel" d="M0 11.6572L13.9958 204.5L18.4238 209.829L23.4845 208.719L29.8893 0L0 11.6572"/><path id="shape01" transform="matrix(0.99999996255536 0 -0.000587890025858411 1.00000002674738 830.35911863336 446.269642105263)" fill="#452100" fill-rule="evenodd" stroke="#452100" stroke-width="5.0904" stroke-linecap="square" stroke-linejoin="bevel" d="M0 11.6572L13.9958 204.5L18.4238 209.829L23.4845 208.719L29.8893 0L0 11.6572"/><path id="shape02" transform="matrix(0.99999996255536 0 0 1.00000002674738 1315.359531189 551.228852996625)" fill="#452100" fill-rule="evenodd" stroke="#452100" stroke-width="5.0904" stroke-linecap="square" stroke-linejoin="bevel" d="M0 13.95L24.1465 244.723L31.7861 251.1L40.5171 249.771L51.5672 0L0 13.95"/><path id="shape1" transform="translate(730.648421052632, 499.064589473684)" fill="#452100" fill-rule="evenodd" stroke="#452100" stroke-width="5.0904" stroke-linecap="square" stroke-linejoin="bevel" d="M0 12.8918L24.1465 226.159L31.7861 232.052L40.5171 230.824L51.5672 0L0 12.8918"/><path id="shape2" transform="translate(644.885052631579, 232.793431578947)" fill="#612a03" fill-rule="evenodd" stroke="#612a03" stroke-width="5.0904" stroke-linecap="square" stroke-linejoin="bevel" d="M0 87.6642L0.272842 114.553L20.1903 113.325L12.8008 285.203L243.239 304.369L306.675 226.282L293.101 128.058L554.415 143.16L544.388 327.112L783.671 337.262L787.422 160.349L829.675 159.735L829.675 130.637L791.515 34.992L172.573 0L0 87.6642"/><path id="shape3" transform="translate(671.509894736842, 357.168505263158)" fill="#6d350e" fill-rule="evenodd" stroke="#6d350e" stroke-width="5.0904" stroke-linecap="square" stroke-linejoin="bevel" d="M8.70821 0L0 142.411L194.65 162.559L196.56 10.9273L8.70821 0"/><path id="shape4" transform="translate(1206.09852631579, 386.144336842105)" fill="#6d350e" fill-rule="evenodd" stroke="#6d350e" stroke-width="5.0904" stroke-linecap="square" stroke-linejoin="bevel" d="M8.07158 0L0 162.711L215.454 169.587L204.245 13.9968L12.8463 1.10501"/><path id="shape5" transform="translate(890.238315789474, 362.431198106593)" fill="#452100" fill-rule="evenodd" stroke="#452100" stroke-width="5.0904" stroke-linecap="square" stroke-linejoin="bevel" d="M15.8826 0L307.129 16.0069L299.763 112.757L65.0043 94.4899L0 174.731L13.1172 1.09969"/><path id="shape6" transform="translate(661.323789473684, 350.170105263158)" fill="#452100" fill-rule="evenodd" stroke="#452100" stroke-width="5.0904" stroke-linecap="square" stroke-linejoin="bevel" d="M2.31916 0L0 10.4362L238.464 26.8886L239.283 11.0501L2.31916 0"/><path id="shape7" transform="translate(1194.048, 384.548210526316)" fill="#452100" fill-rule="evenodd" stroke="#452100" stroke-width="5.0904" stroke-linecap="square" stroke-linejoin="bevel" d="M1.22779 0L0 9.82232L241.192 32.0453L233.826 14.1196L1.22779 0"/><path id="shape8" transform="translate(644.021052631579, 325.368757894737)" fill="#6d350e" fill-rule="evenodd" stroke="#6d350e" stroke-width="5.0904" stroke-linecap="square" stroke-linejoin="bevel" d="M0 0L0.272842 17.8029L830.539 63.8451L830.539 42.3587L0 0"/><path id="shape9" transform="translate(682.218947368421, 374.603115789474)" fill="#7d512b" fill-rule="evenodd" stroke="#7d512b" stroke-width="5.0904" stroke-linecap="square" stroke-linejoin="bevel" d="M19.3718 0L0 115.167L39.8349 5.03394L19.3718 0"/><path id="shape10" transform="translate(1383.96884210526, 433.782568421053)" fill="#7d512b" fill-rule="evenodd" stroke="#7d512b" stroke-width="5.0904" stroke-linecap="square" stroke-linejoin="bevel" d="M9.54947 0L0 109.642L21.9638 110.624L9.54947 0"/><ellipse id="shape11" transform="translate(823.68, 424.08)" rx="9.71999999999997" ry="12.24" cx="9.71999999999997" cy="12.24" fill="#cba051" fill-rule="evenodd" stroke="#cba051" stroke-width="5.0904" stroke-linecap="square" stroke-linejoin="bevel"/><ellipse id="shape12" transform="translate(1228.32, 459.36)" rx="10.08" ry="11.16" cx="10.08" cy="11.16" fill="#cba051" fill-rule="evenodd" stroke="#cba051" stroke-width="5.0904" stroke-linecap="square" stroke-linejoin="bevel"/><path id="shape13" transform="translate(911.190600591339, 440.25212519602)" fill="#612a03" fill-rule="evenodd" stroke="#612a03" stroke-width="5.0904" stroke-linecap="square" stroke-linejoin="bevel" d="M0 0L0.128619 14.9905L278.332 39.4153L278.139 21.1835L0 0"/><path id="shape14" transform="translate(911.247157894737, 367.533473684211)" fill="url(#gradient0)" fill-rule="evenodd" stroke="#000000" stroke-opacity="0" stroke-width="0" stroke-linecap="square" stroke-linejoin="bevel" d="M0 70.1477L59.2067 0L282.937 16.3069L281.755 91.6931L0 70.1477"/>
</svg>
