<?xml version="1.0" standalone="no"?>
<!DOCTYPE svg PUBLIC "-//W3C//DTD SVG 20010904//EN" "http://www.w3.org/TR/2001/REC-SVG-20010904/DTD/svg10.dtd">
<!-- Created using Krita: http://krita.org -->
<svg xmlns="http://www.w3.org/2000/svg" 
    xmlns:xlink="http://www.w3.org/1999/xlink"
    xmlns:krita="http://krita.org/namespaces/svg/krita"
    xmlns:sodipodi="http://sodipodi.sourceforge.net/DTD/sodipodi-0.dtd"
    width="2949.12pt"
    height="1555.2pt"
    viewBox="0 0 2949.12 1555.2">
<defs/>
<path id="shape0" transform="matrix(0.99999999592948 0 0 1.00000001612967 1931.87360744477 1414.20130755912)" fill="#655b48" fill-opacity="0.733333333333333" fill-rule="evenodd" stroke="#000000" stroke-opacity="0" stroke-width="0" stroke-linecap="square" stroke-linejoin="bevel" d="M336.141 31.104C335.126 30.6453 329.73 20.3865 319.953 0.327411L28.9213 0L0 28.6484"/><path id="shape01" transform="matrix(-0.999999967582812 0 0 1.00000001428682 2231.88630125883 1366.42975170859)" fill="#7d512b" fill-rule="evenodd" stroke="#000000" stroke-opacity="0" stroke-width="0" stroke-linecap="square" stroke-linejoin="bevel" d="M50.505 2.83605L51.0257 35.4217L46.1165 40.7465L45.7446 53.9428L25.0666 63.377L4.61165 57.2419L0 30.5599L20.3805 28.5341L20.3805 0L50.505 2.83605"/><path id="shape01" transform="matrix(0.999999960263572 0 0 1.00000003139669 1949.83571199417 1363.02062240121)" fill="#7d512b" fill-rule="evenodd" stroke="#000000" stroke-opacity="0" stroke-width="0" stroke-linecap="square" stroke-linejoin="bevel" d="M50.505 2.83605L51.0257 35.4217L46.1165 40.7465L45.7446 53.9428L25.0666 63.377L4.61165 57.2419L0 30.5599L20.3805 28.5341L20.3805 0L50.505 2.83605"/><path id="shape02" transform="matrix(-0.999999952796128 0 0 1.00000002464202 2249.41763455137 1386.86375554938)" fill="#612a03" fill-rule="evenodd" stroke="#612a03" stroke-width="5.94" stroke-linecap="square" stroke-linejoin="bevel" d="M0 43.6404L26.8073 41.4989L27.3254 0.173636L15.6053 0L16.9003 29.4023L5.37442 33.9168L9.38905 39.7626"/><rect id="shape1" transform="matrix(0.999999960263572 0 0 1.00000003139669 2222.68538536263 1016.99169508806)" fill="#9c6916" fill-rule="evenodd" stroke="#9c6916" stroke-width="5.94" stroke-linecap="square" stroke-linejoin="bevel" width="7.92000000000007" height="344.16"/><rect id="shape2" transform="matrix(0.999999960263572 0 0 1.00000003139669 1951.19992246628 1015.92003189652)" fill="#9c6916" fill-rule="evenodd" stroke="#9c6916" stroke-width="5.94" stroke-linecap="square" stroke-linejoin="bevel" width="7.20000000000005" height="342.72"/><rect id="shape3" transform="matrix(0.999999960263572 0 0 1.00000003139669 1878.47992535591 1339.20004204644)" fill="#558f81" fill-rule="evenodd" stroke="#558f81" stroke-width="5.94" stroke-linecap="square" stroke-linejoin="bevel" width="415.44" height="15.8399999999999"/><rect id="shape4" transform="matrix(0.999999960263572 0 0 1.00000003139669 1874.15992552758 993.600031195748)" fill="#558f81" fill-rule="evenodd" stroke="#558f81" stroke-width="5.94" stroke-linecap="square" stroke-linejoin="bevel" width="422.64" height="17.28"/><path id="shape5" transform="matrix(0.999999960263572 0 0 1.00000003139669 1930.30318530948 1397.92353330808)" fill="#612a03" fill-rule="evenodd" stroke="#612a03" stroke-width="5.94" stroke-linecap="square" stroke-linejoin="bevel" d="M0 43.6404L26.6241 41.4989L27.1386 0.173636L15.4986 0L16.7848 29.4023L5.33769 33.9168L9.32488 39.7626"/><rect id="shape03" transform="matrix(0.999999950351848 0 0 1.000000041783 2215.43488305915 1371.23050019862)" fill="#9c6916" fill-rule="evenodd" stroke="#9c6916" stroke-width="5.94" stroke-linecap="square" stroke-linejoin="bevel" width="41.0400000000002" height="34.5599999999999"/><rect id="shape6" transform="matrix(0.999999960263572 0 0 1.00000003139669 1925.27992349625 1371.6000430637)" fill="#9c6916" fill-rule="evenodd" stroke="#9c6916" stroke-width="5.94" stroke-linecap="square" stroke-linejoin="bevel" width="41.0400000000002" height="34.5599999999999"/><rect id="shape7" transform="matrix(0.999999960263572 0 0 1.00000003139669 1868.87739942169 1008.39716850244)" fill="#cba051" fill-rule="evenodd" stroke="#cba051" stroke-width="5.94" stroke-linecap="square" stroke-linejoin="bevel" width="434.895157894736" height="10.9500631578946"/><rect id="shape8" transform="matrix(0.999999960263572 0 0 1.00000003139669 1913.16876608276 940.679271639474)" fill="#cba051" fill-rule="evenodd" stroke="#cba051" stroke-width="5.94" stroke-linecap="square" stroke-linejoin="bevel" width="14.3999999999999" height="421.92"/><rect id="shape04" transform="matrix(0.999999980255021 0 0 1.0000000492354 2249.08925537941 946.713942791575)" fill="#cba051" fill-rule="evenodd" stroke="#cba051" stroke-width="5.94" stroke-linecap="square" stroke-linejoin="bevel" width="14.3999999999999" height="421.92"/><rect id="shape05" transform="matrix(0.999999922470745 0 0 1.00000007890873 1869.13508362198 1356.29814784643)" fill="#cba051" fill-rule="evenodd" stroke="#cba051" stroke-width="5.94" stroke-linecap="square" stroke-linejoin="bevel" width="440.458121909315" height="13.132799376034"/><path id="shape9" transform="matrix(0.999999960263572 0 0 1.00000003139669 1868.81258660257 893.703890774311)" fill="#cba051" fill-rule="evenodd" stroke="#cba051" stroke-width="5.94" stroke-linecap="square" stroke-linejoin="bevel" d="M0 125.833L3.70773 7.99252C28.1275 -13.1433 101.77 10.087 109.641 49.0065L97.8433 63.2489C90.9274 26.1099 47.533 4.29905 20.1267 19.9079L18.5387 118.946L3.27254 127.094"/><path id="shape06" transform="matrix(0.999999957763258 0 0 1.00000003139669 1870.45489481971 1237.91670448828)" fill="#cba051" fill-rule="evenodd" stroke="#cba051" stroke-width="5.94" stroke-linecap="square" stroke-linejoin="bevel" d="M0 125.833L3.63067 7.99252C27.5428 -13.1433 99.6552 10.087 107.362 49.0065L95.8096 63.2489C89.0376 26.1099 46.545 4.29905 19.7084 19.9079L18.1533 118.946L3.20452 127.094"/><path id="shape07" transform="matrix(-0.999999947909044 0 0 1.00000005992592 2306.79942013236 1239.01025559709)" fill="#cba051" fill-rule="evenodd" stroke="#cba051" stroke-width="5.94" stroke-linecap="square" stroke-linejoin="bevel" d="M0 125.833L3.63067 7.99252C27.5428 -13.1433 99.6552 10.087 107.362 49.0065L95.8096 63.2489C89.0376 26.1099 46.545 4.29905 19.7084 19.9079L18.1533 118.946L3.20452 127.094"/><path id="shape08" transform="matrix(-0.999999947949718 0 0 1.00000003139669 2308.20969155573 891.605581241443)" fill="#cba051" fill-rule="evenodd" stroke="#cba051" stroke-width="5.94" stroke-linecap="square" stroke-linejoin="bevel" d="M0 125.833L3.70773 7.99252C28.1275 -13.1433 101.77 10.087 109.641 49.0065L97.8433 63.2489C90.9274 26.1099 47.533 4.29905 20.1267 19.9079L18.5387 118.946L3.27254 127.094"/><rect id="shape10" transform="matrix(0.999999960263572 0 0 1.00000003139669 1963.96286932755 941.743355883409)" fill="#cba051" fill-rule="evenodd" stroke="#cba051" stroke-width="5.94" stroke-linecap="square" stroke-linejoin="bevel" width="15.8551578947367" height="68.9274947368421"/><rect id="shape11" transform="matrix(0.999999960263572 0 0 1.00000003139669 2198.87991262436 938.880029477721)" fill="#cba051" fill-rule="evenodd" stroke="#cba051" stroke-width="5.94" stroke-linecap="square" stroke-linejoin="bevel" width="16.2189473684207" height="74.9830736842105"/><rect id="shape12" transform="matrix(0.999999960263572 0 0 1.00000003139669 1882.32245151902 937.822008391871)" fill="#cba051" fill-rule="evenodd" stroke="#cba051" stroke-width="5.94" stroke-linecap="square" stroke-linejoin="bevel" width="418.077473684211" height="11.8580210526317"/><rect id="shape13" transform="matrix(0.999999960263572 0 0 1.00000003139669 1966.31992186547 1298.88004078053)" fill="#cba051" fill-rule="evenodd" stroke="#cba051" stroke-width="5.94" stroke-linecap="square" stroke-linejoin="bevel" width="10.8" height="61.9199999999998"/><rect id="shape14" transform="matrix(0.999999960263572 0 0 1.00000003139669 2198.87991262436 1285.20004035102)" fill="#cba051" fill-rule="evenodd" stroke="#cba051" stroke-width="5.94" stroke-linecap="square" stroke-linejoin="bevel" width="13.6799999999998" height="78.48"/><rect id="shape15" transform="matrix(0.999999960263572 0 0 1.00000003139669 1878.47992535591 1290.96004053187)" fill="#cba051" fill-rule="evenodd" stroke="#cba051" stroke-width="5.94" stroke-linecap="square" stroke-linejoin="bevel" width="419.04" height="11.52"/><ellipse id="shape16" transform="matrix(0.999999960263572 0 0 1.00000003139669 1890.27702565927 1400.76580890313)" rx="27" ry="27.36" cx="27" cy="27.36" fill="#558f81" fill-rule="evenodd" stroke="#558f81" stroke-width="5.94" stroke-linecap="square" stroke-linejoin="bevel"/><ellipse id="shape17" transform="matrix(0.999999960263572 0 0 1.00000003139669 1901.6790823288 1412.02236012229)" rx="15.48" ry="16.2" cx="15.48" cy="16.2" fill="#cba051" fill-rule="evenodd" stroke="#cba051" stroke-width="5.94" stroke-linecap="square" stroke-linejoin="bevel"/><ellipse id="shape18" transform="matrix(0.999999960263572 0 0 1.00000003139669 1908.11360838891 1419.30800245631)" rx="8.63999999999999" ry="9" cx="8.63999999999999" cy="9" fill="#612a03" fill-rule="evenodd" stroke="#612a03" stroke-width="5.94" stroke-linecap="square" stroke-linejoin="bevel"/><ellipse id="shape09" transform="matrix(0.999999970287411 0 0 1.00000007153792 2235.36383427446 1401.17429606741)" rx="27" ry="27.36" cx="27" cy="27.36" fill="#558f81" fill-rule="evenodd" stroke="#558f81" stroke-width="5.94" stroke-linecap="square" stroke-linejoin="bevel"/><ellipse id="shape010" transform="matrix(0.999999977910711 0 0 1.00000003476735 2247.13074983685 1412.6586339961)" rx="15.48" ry="16.2" cx="15.48" cy="16.2" fill="#cba051" fill-rule="evenodd" stroke="#cba051" stroke-width="5.94" stroke-linecap="square" stroke-linejoin="bevel"/><ellipse id="shape011" transform="matrix(0.999999977977021 0 0 1.00000002462211 2253.86932312545 1419.45925799757)" rx="8.63999999999999" ry="9" cx="8.63999999999999" cy="9" fill="#612a03" fill-rule="evenodd" stroke="#612a03" stroke-width="5.94" stroke-linecap="square" stroke-linejoin="bevel"/><path id="shape19" transform="matrix(0.999999960263572 0 0 1.00000003139669 1924.37044984818 958.033545868552)" fill="none" stroke="#fbe4b8" stroke-width="5.94" stroke-linecap="square" stroke-linejoin="miter" stroke-miterlimit="2" d="M0 0L0.0909474 44.6097"/><path id="shape20" transform="matrix(0.999999960263572 0 0 1.00000003139669 2260.33001544572 954.759440502598)" fill="none" stroke="#fbe4b8" stroke-width="5.94" stroke-linecap="square" stroke-linejoin="miter" stroke-miterlimit="2" d="M0 0L0.727579 46.8197"/><path id="shape21" transform="matrix(0.999999960263572 0 0 1.00000003139669 1924.82518667221 1308.68416740414)" fill="none" stroke="#fbe4b8" stroke-width="5.94" stroke-linecap="square" stroke-linejoin="miter" stroke-miterlimit="2" d="M0 0L0.363789 41.663"/><path id="shape22" transform="matrix(0.999999960263572 0 0 1.00000003139669 2263.14938375473 1308.27490423339)" fill="none" stroke="#fbe4b8" stroke-width="5.94" stroke-linecap="square" stroke-linejoin="miter" stroke-miterlimit="2" d="M0.181895 0L0 41.663"/><path id="shape23" transform="matrix(0.999999960263572 0 0 1.00000003139669 1924.00666038895 1025.32550587603)" fill="none" stroke="#fbe4b8" stroke-width="3.6504" stroke-linecap="square" stroke-linejoin="miter" stroke-miterlimit="2" d="M0 0L1.18232 211.098"/><path id="shape24" transform="matrix(0.999999960263572 0 0 1.00000003139669 2260.05717335129 1025.81662168092)" fill="none" stroke="#fbe4b8" stroke-width="3.6504" stroke-linecap="square" stroke-linejoin="miter" stroke-miterlimit="2" d="M0.272842 0L0 210.198"/><path id="shape25" transform="matrix(0.999999960263572 0 0 1.00000003139669 1975.97364741339 954.235123181402)" fill="none" stroke="#fbe4b8" stroke-width="3.6504" stroke-linecap="square" stroke-linejoin="miter" stroke-miterlimit="2" d="M0 0L0.192929 50.8174"/><path id="shape26" transform="matrix(0.999999960263572 0 0 1.00000003139669 2211.02486401484 954.177244628737)" fill="none" stroke="#fbe4b8" stroke-width="3.6504" stroke-linecap="square" stroke-linejoin="miter" stroke-miterlimit="2" d="M0 0L0 48.2128"/><path id="shape27" transform="matrix(0.999999960263572 0 0 1.00000003139669 1974.17298145857 1307.03705642382)" fill="none" stroke="#fbe4b8" stroke-width="3.6504" stroke-linecap="square" stroke-linejoin="miter" stroke-miterlimit="2" d="M0 0L0.707405 43.9877"/><path id="shape28" transform="matrix(0.999999960263572 0 0 1.00000003139669 2209.86729304388 1306.4003923445)" fill="none" stroke="#fbe4b8" stroke-width="3.6504" stroke-linecap="square" stroke-linejoin="miter" stroke-miterlimit="2" d="M0 0L0.707405 44.9138"/>
</svg>
