<?xml version="1.0" standalone="no"?>
<!DOCTYPE svg PUBLIC "-//W3C//DTD SVG 20010904//EN" "http://www.w3.org/TR/2001/REC-SVG-20010904/DTD/svg10.dtd">
<!-- Created using Krita: http://krita.org -->
<svg xmlns="http://www.w3.org/2000/svg" 
    xmlns:xlink="http://www.w3.org/1999/xlink"
    xmlns:krita="http://krita.org/namespaces/svg/krita"
    xmlns:sodipodi="http://sodipodi.sourceforge.net/DTD/sodipodi-0.dtd"
    width="2949.12pt"
    height="1555.2pt"
    viewBox="0 0 2949.12 1555.2">
<defs/>
<path id="shape0" transform="translate(170.334431493978, 672.992496403725)" fill="#595347" fill-opacity="0.741176470588235" fill-rule="evenodd" stroke="#000000" stroke-opacity="0" stroke-width="0" stroke-linecap="square" stroke-linejoin="bevel" d="M26.0453 2.54666L0 23.0357L233.122 27.5502L233.251 27.4344L197.88 0L26.0453 2.54666"/><path id="shape1" transform="translate(150.972631578947, 59.9676631578947)" fill="#6d350e" fill-rule="evenodd" stroke="#6d350e" stroke-width="9.0288" stroke-linecap="square" stroke-linejoin="bevel" d="M0 0L0.727579 538.099L14.3697 638.451L24.192 636.322L23.6463 543.665L21.4636 17.6802L0 0"/><path id="shape2" transform="translate(147.637894736842, 60.6133894736842)" fill="#90655f" fill-opacity="0.564705882352941" fill-rule="evenodd" stroke="#000000" stroke-opacity="0" stroke-width="0" stroke-linecap="square" stroke-linejoin="bevel" d="M0 1.63705L5.72968 0L13.6421 11.7868L18.1895 639.327L13.0964 637.771L0.636632 537.338L1.18232 353.497L0 1.63705"/><path id="shape0" transform="matrix(-0.999999985751498 0 0 1.00000003531186 423.872904721287 66.2375906254259)" fill="#6d350e" fill-rule="evenodd" stroke="#6d350e" stroke-width="9.0288" stroke-linecap="square" stroke-linejoin="bevel" d="M0 0L0.727579 538.099L14.3697 638.451L24.192 636.322L23.6463 543.665L21.4636 17.6802L0 0"/><path id="shape3" transform="translate(405.746526315789, 65.5851789473684)" fill="#90655f" fill-opacity="0.698039215686274" fill-rule="evenodd" stroke="#000000" stroke-opacity="0" stroke-width="0" stroke-linecap="square" stroke-linejoin="bevel" d="M15.2792 0L20.8269 4.33819L19.4627 542.595L4.45642 638.936L0 640.573L6.82105 330.76L7.27579 8.74611L15.2792 0"/><path id="shape01" transform="matrix(0.999999985751498 0 0 1.00000003531186 196.613052631579 63.6783157894737)" fill="#6d350e" fill-rule="evenodd" stroke="#6d350e" stroke-width="9.0288" stroke-linecap="square" stroke-linejoin="bevel" d="M0 0L0.21335 514.193L4.21367 610.087L7.09389 608.053L6.93388 519.512L6.29384 16.8947L0 0"/><path id="shape02" transform="matrix(-0.999999969482507 0 0 0.999999999416745 373.672982770659 64.5744049243899)" fill="#6d350e" fill-rule="evenodd" stroke="#6d350e" stroke-width="9.0288" stroke-linecap="square" stroke-linejoin="bevel" d="M0 0L0.21335 514.193L4.21367 610.087L7.09389 608.053L6.93388 519.512L6.29384 16.8947L0 0"/><path id="shape4" transform="translate(162.757894736842, 142.679747368421)" fill="#558f81" fill-rule="evenodd" stroke="#558f81" stroke-width="9.0288" stroke-linecap="square" stroke-linejoin="bevel" d="M0.181895 0L0 9.20842L243.239 10.4771L242.602 3.51966L0.181895 0"/><path id="shape5" transform="translate(168.548210526316, 276.043452631579)" fill="#558f81" fill-rule="evenodd" stroke="#558f81" stroke-width="9.0288" stroke-linecap="square" stroke-linejoin="bevel" d="M0 0L2.45558 13.5057L236.008 12.769L236.281 4.54282L0 0"/><path id="shape6" transform="translate(170.867368421053, 267.080589473684)" fill="#558f81" fill-rule="evenodd" stroke="#558f81" stroke-width="9.0288" stroke-linecap="square" stroke-linejoin="bevel" d="M0 7.85785L35.0602 0L199.857 1.96446L235.599 15.3474L0 7.85785"/><path id="shape7" transform="translate(162.682105263158, 412.843415894711)" fill="#558f81" fill-rule="evenodd" stroke="#558f81" stroke-width="9.0288" stroke-linecap="square" stroke-linejoin="bevel" d="M38.135 0L0 22.8127L2.04632 32.8805L254.016 37.5461L252.243 25.1455L207.655 6.42452L36.8488 0.173636"/><path id="shape8" transform="translate(163.637052631579, 548.1216)" fill="#558f81" fill-rule="evenodd" stroke="#558f81" stroke-width="9.0288" stroke-linecap="square" stroke-linejoin="bevel" d="M36.1516 0L0 33.3959L4.22905 39.2893L248.696 42.1132L248.696 34.1325L206.132 2.82392L36.1516 0"/><path id="shape9" transform="translate(161.256073611056, 411.859480530305)" fill="#516154" fill-rule="evenodd" stroke="#516154" stroke-width="1.2888" stroke-linecap="square" stroke-linejoin="bevel" d="M0 22.8213L39.4968 0L209.531 4.16726L255.759 26.0046L0 22.8213"/><path id="shape10" transform="translate(162.285025626121, 546.502139001696)" fill="#516154" fill-rule="evenodd" stroke="#516154" stroke-width="1.2888" stroke-linecap="square" stroke-linejoin="bevel" d="M36.6564 0L0 33.8011L252.865 35.1902L210.228 3.35696L36.6564 0"/><path id="shape11" transform="translate(176.818972838923, 265.010878780198)" fill="#516154" fill-rule="evenodd" stroke="#516154" stroke-width="1.2888" stroke-linecap="square" stroke-linejoin="bevel" d="M0 6.07725L221.418 12.386L194.472 0.231514L28.3605 0L0 6.07725"/><path id="shape12" transform="translate(196.626299128935, 275.832024138638)" fill="#8dbeb3" fill-rule="evenodd" stroke="#8dbeb3" stroke-width="1.2888" stroke-linecap="square" stroke-linejoin="bevel" d="M0 0L1.3505 15.5115L29.2608 16.4954L30.8043 1.96787L0 0"/><path id="shape13" transform="translate(194.82563310257, 439.049537528412)" fill="#8dbeb3" fill-rule="evenodd" stroke="#8dbeb3" stroke-width="1.2888" stroke-linecap="square" stroke-linejoin="bevel" d="M0 0.926057L1.09326 10.3603L22.7656 9.78148L22.7656 0L0 0.926057"/><path id="shape14" transform="translate(194.43977609692, 583.439372692518)" fill="#8dbeb3" fill-rule="evenodd" stroke="#8dbeb3" stroke-width="1.2888" stroke-linecap="square" stroke-linejoin="bevel" d="M0 0L1.60774 5.26695L17.042 6.36664L18.1353 0.231514L0 0"/><path id="shape15" transform="translate(195.725966115752, 141.776725775846)" fill="#8dbeb3" fill-rule="evenodd" stroke="#8dbeb3" stroke-width="1.2888" stroke-linecap="square" stroke-linejoin="bevel" d="M0 0.0578786L0.707405 12.5018L18.7141 13.3699L20.3861 0L0 0.0578786"/><path id="shape16" transform="translate(198.932210526316, 143.742315789474)" fill="#b8dbd2" fill-rule="evenodd" stroke="#b8dbd2" stroke-width="1.2888" stroke-linecap="square" stroke-linejoin="bevel" d="M0 0L0.0909474 11.9505L7.27579 10.3134L0 0"/><path id="shape17" transform="translate(201.387789473684, 279.535831578947)" fill="#b8dbd2" fill-rule="evenodd" stroke="#b8dbd2" stroke-width="1.2888" stroke-linecap="square" stroke-linejoin="bevel" d="M0 0L0.727579 13.5875L11.9141 10.9683L0 0"/><path id="shape18" transform="translate(198.113684210526, 440.6976)" fill="#b8dbd2" fill-rule="evenodd" stroke="#b8dbd2" stroke-width="1.2888" stroke-linecap="square" stroke-linejoin="bevel" d="M0.272842 0L0 8.18526L12.0051 5.40227L0.272842 0"/><path id="shape19" transform="translate(197.514947368421, 585.184168421053)" fill="#b8dbd2" fill-rule="evenodd" stroke="#b8dbd2" stroke-width="1.2888" stroke-linecap="square" stroke-linejoin="bevel" d="M0 0L1.90989 5.72968L10.5954 4.42004L0 0"/>
</svg>
