<?xml version="1.0" standalone="no"?>
<!DOCTYPE svg PUBLIC "-//W3C//DTD SVG 20010904//EN" "http://www.w3.org/TR/2001/REC-SVG-20010904/DTD/svg10.dtd">
<!-- Created using Krita: http://krita.org -->
<svg xmlns="http://www.w3.org/2000/svg" 
    xmlns:xlink="http://www.w3.org/1999/xlink"
    xmlns:krita="http://krita.org/namespaces/svg/krita"
    xmlns:sodipodi="http://sodipodi.sourceforge.net/DTD/sodipodi-0.dtd"
    width="2949.12pt"
    height="1555.2pt"
    viewBox="0 0 2949.12 1555.2">
<defs/>
<path id="shape0" transform="matrix(0.999999972626581 0 0 1.00000002577702 1813.53592793656 579.619720127671)" fill="#655b48" fill-opacity="0.733333333333333" fill-rule="evenodd" stroke="#000000" stroke-opacity="0" stroke-width="0" stroke-linecap="square" stroke-linejoin="bevel" d="M162.864 162.621L532.434 165.925L681.832 179.075C661.85 172.513 720.901 183.15 692.655 171.545C681.691 167.039 594.307 153.009 570.199 142.108C568.676 141.42 613.155 142.299 610.466 136.554C602.975 133.464 553.908 126.419 550.659 124.696L547.252 0L160.049 8.35766L148.833 9.7568L139.887 125.26L69.439 141.813L88.0852 149.968L0 170.481L3.91074 177.848"/><path id="shape01" transform="matrix(0.99999994778234 0 0 0.999999997028348 2415.07968830216 617.524734578165)" fill="#452100" fill-rule="evenodd" stroke="#452100" stroke-width="18" stroke-linecap="square" stroke-linejoin="bevel" d="M10.541 100.679L0 0L29.1496 0.409263L20.6697 99.5328L10.541 100.679"/><path id="shape02" transform="matrix(0.999999968174761 0 0 1.00000002115861 1873.66636157521 615.060991679417)" fill="#452100" fill-rule="evenodd" stroke="#452100" stroke-width="18" stroke-linecap="square" stroke-linejoin="bevel" d="M10.541 100.679L0 0L29.1496 0.409263L20.6697 99.5328L10.541 100.679"/><path id="shape03" transform="matrix(0.999999968174761 0 0 1.00000002115861 2478.73917963703 648.947982217041)" fill="#452100" fill-rule="evenodd" stroke="#452100" stroke-width="18" stroke-linecap="square" stroke-linejoin="bevel" d="M16.2796 100.679L0 0L45.0189 0.409263L31.9225 99.5328L16.2796 100.679"/><path id="shape01" transform="matrix(0.999999960263572 0 0 1.00000003139669 1793.86098134995 649.676483555583)" fill="#452100" fill-rule="evenodd" stroke="#452100" stroke-width="18" stroke-linecap="square" stroke-linejoin="bevel" d="M16.2796 100.679L0 0L45.0189 0.409263L31.9225 99.5328L16.2796 100.679"/><rect id="shape04" transform="matrix(0.999999915111054 0 0 1.00000002332917 1739.39123333721 266.400006214891)" fill="#612a03" fill-rule="evenodd" stroke="#612a03" stroke-width="18" stroke-linecap="square" stroke-linejoin="bevel" width="843.12" height="386.64"/><rect id="shape1" transform="matrix(0.999999960263572 0 0 1.00000003139669 1766.15992981911 291.600009155274)" fill="#6d350e" fill-rule="evenodd" stroke="#000000" stroke-opacity="0" stroke-width="0" stroke-linecap="square" stroke-linejoin="bevel" width="277.92" height="325.44"/><rect id="shape05" transform="matrix(0.999999981757141 0 0 1.00000006697764 2277.11889544442 292.689831252715)" fill="#6d350e" fill-rule="evenodd" stroke="#000000" stroke-opacity="0" stroke-width="0" stroke-linecap="square" stroke-linejoin="bevel" width="277.92" height="325.44"/><rect id="shape2" transform="matrix(0.999999960263572 0 0 1.00000003139669 2068.27949676133 292.62110037179)" fill="#452100" fill-rule="evenodd" stroke="#000000" stroke-opacity="0" stroke-width="0" stroke-linecap="square" stroke-linejoin="bevel" width="185.76" height="120.375456183964"/><rect id="shape06" transform="matrix(0.999999942937421 0 0 1.00000000896038 2068.30570532832 431.508686324176)" fill="#452100" fill-rule="evenodd" stroke="#000000" stroke-opacity="0" stroke-width="0" stroke-linecap="square" stroke-linejoin="bevel" width="185.76" height="186.471337055744"/><path id="shape3" transform="matrix(0.999999960263572 0 0 1.00000003139669 1818.92455930138 292.638249572579)" fill="#7d512b" fill-rule="evenodd" stroke="#000000" stroke-opacity="0" stroke-width="0" stroke-linecap="square" stroke-linejoin="bevel" d="M16.2341 256.775L0 0L24.1465 0.75117L16.2341 256.775"/><path id="shape07" transform="matrix(0.999999989397771 0 0 -0.999999986112535 2328.28892633776 616.85372317853)" fill="#7d512b" fill-rule="evenodd" stroke="#000000" stroke-opacity="0" stroke-width="0" stroke-linecap="square" stroke-linejoin="bevel" d="M16.2341 256.775L0 0L24.1465 0.75117L16.2341 256.775"/><ellipse id="shape4" transform="matrix(0.999999960263572 0 0 1.00000003139669 1982.15992123604 385.200012094004)" rx="13.6799999999999" ry="18.36" cx="13.6799999999999" cy="18.36" fill="#cba051" fill-rule="evenodd" stroke="#000000" stroke-opacity="0" stroke-width="0" stroke-linecap="square" stroke-linejoin="bevel"/><ellipse id="shape08" transform="matrix(0.999999950546629 0 0 0.999999999609047 2326.54364776419 389.724421032571)" rx="13.6799999999999" ry="18.36" cx="13.6799999999999" cy="18.36" fill="#cba051" fill-rule="evenodd" stroke="#000000" stroke-opacity="0" stroke-width="0" stroke-linecap="square" stroke-linejoin="bevel"/>
</svg>
