<?xml version="1.0" standalone="no"?>
<!DOCTYPE svg PUBLIC "-//W3C//DTD SVG 20010904//EN" "http://www.w3.org/TR/2001/REC-SVG-20010904/DTD/svg10.dtd">
<!-- Created using Krita: http://krita.org -->
<svg xmlns="http://www.w3.org/2000/svg" 
    xmlns:xlink="http://www.w3.org/1999/xlink"
    xmlns:krita="http://krita.org/namespaces/svg/krita"
    xmlns:sodipodi="http://sodipodi.sourceforge.net/DTD/sodipodi-0.dtd"
    width="2223.36pt"
    height="2949.12pt"
    viewBox="0 0 2223.36 2949.12">
<defs/>
<path id="shape0" transform="matrix(-1.00000003139669 0 0 0.999999960263572 1086.41904357037 349.168358963367)" fill="#deb96b" fill-rule="evenodd" stroke="#deb96b" stroke-width="0.72" stroke-linecap="square" stroke-linejoin="bevel" d="M51.3761 47.3925L38.2549 85.8696C31.5075 161.868 13.8543 167.309 0 191.674C34.2436 166.196 32.4734 116.339 33.0004 68.0362L27.7655 0L47.3646 11.5877Z"/><path id="shape1" transform="matrix(-1.00000003139669 0 0 0.999999960263572 872.564831756965 196.737262707741)" fill="#e1d59b" fill-rule="evenodd" stroke="#e1d59b" stroke-width="4.3344" stroke-linecap="square" stroke-linejoin="bevel" d="M89.2342 27.9824C151.729 85.403 154.482 140.703 97.492 193.883C115.812 161.212 153.942 145.418 109.437 77.5353C67.6845 40.2604 25.745 1.68245 0 75.8707L0 75.8707C15.9465 -50.28 56.0239 16.2704 89.2342 27.9824Z"/><path id="shape01" transform="matrix(1.00000003139669 0 0 0.999999960263572 808.487042045877 64.0106164031444)" fill="#be9e84" fill-rule="evenodd" stroke="#be9e84" stroke-width="7.2" stroke-linecap="square" stroke-linejoin="bevel" d="M339.465 167.203C337.923 67.3092 304.838 11.4269 192.589 0.359502C108.229 -3.37903 27.7584 20.0737 0 164.27C15.8684 266.728 68.0614 343.087 156.579 393.345C166.245 420.648 176.009 435.65 185.871 438.351C178.661 399.13 220.731 384.995 312.082 395.947C343.054 392.909 348.963 201.319 339.465 167.203Z"/><path id="shape11" transform="matrix(1.00000003139669 0 0 0.999999960263572 887.980487110478 403.939087694784)" fill="#be9e84" fill-rule="evenodd" stroke="#be9e84" stroke-width="7.2" stroke-linecap="square" stroke-linejoin="bevel" d="M12.1085 150.587L0 146.197C6.37626 99.7325 23.4706 61.7517 10.534 0L160.127 52.1806C144.92 62.6908 130.797 82.5199 123.478 160.824L140.246 205.264Z"/><path id="shape2" transform="matrix(1.00000003139669 0 0 0.999999960263572 933.571514761482 296.72571431912)" fill="#be9e84" fill-rule="evenodd" stroke="#be9e84" stroke-width="7.2" stroke-linecap="square" stroke-linejoin="bevel" d="M0 59.6429L75.5524 185.676L75.5524 185.676L1.75862 0Z"/><path id="shape3" transform="matrix(1.00000003139669 0 0 0.999999960263572 771.160842845765 56.5966850086463)" fill="#e1d59b" fill-rule="evenodd" stroke="#e1d59b" stroke-width="2.0376" stroke-linecap="square" stroke-linejoin="bevel" d="M203.719 4.18252L165.573 0L119.368 18.6501L68.7632 48.7165L32.191 110.416L2.03674 175.039C5.6278 194.947 -3.75289 210.451 1.80757 258.757C4.99744 304.473 13.188 344.321 35.9179 387.847L60.3023 414.195L93.3043 416.43L227.05 459.704C256.691 436.022 285.029 423.445 295.622 397.755L298.92 338.583L322.277 393.318L322.277 393.318L320.801 451.913L325.996 468.307L333.694 397.718L314.646 337.608L317.149 250.625L353.901 176.843L358.339 203.498L358.339 203.498L346.601 261.337L348.063 284.927L351.038 287.992L359.786 309.273L357.17 282.041L357.17 282.041L363.661 251.922L381.569 226.203L389.972 189.466L384.919 122.917L358.188 51.2111L323.145 10.2011L301.376 11.0857L274.324 1.61853Z"/><path id="shape02" transform="matrix(0.966657066298612 -0.256074539225093 0.256074557440473 0.966656997537286 1843.1989886236 2242.61934884189)" fill="#bd8f7f" fill-rule="evenodd" stroke="#bd8f7f" stroke-width="7.2" stroke-linecap="square" stroke-linejoin="bevel" d="M67.8653 115.094L67.8653 115.094L124.684 154.874L208.179 164.715L208.179 109.228L208.179 109.228L149.692 70.7797L208.179 71.8412L208.179 57.0699L146.364 42.1727L111.369 40.4456L60.2726 0L0 30.2084L0 30.2084Z"/><path id="shape03" transform="matrix(0.721254669220189 -0.692669976730114 0.692670026001889 0.721254617915099 1560.57924688916 1070.84420462043)" fill="#140b06" fill-rule="evenodd" stroke="#140b06" stroke-width="2.0376" stroke-linecap="square" stroke-linejoin="bevel" d="M248.462 0L248.462 0L161.37 68.3828L0 445.8L2.40664 467.696L2.49184 553.771L40.4539 573.464L40.4539 573.464L217.739 503.691L217.739 503.691L302.949 286.358L364.582 168.76L364.582 168.76L364.582 49.333Z"/><path id="shape04" transform="matrix(0.98794759891274 -0.154788892325273 0.154788903335889 0.987947528636952 1736.87410644191 1656.16107156035)" fill="#140b06" fill-rule="evenodd" stroke="#140b06" stroke-width="2.0376" stroke-linecap="square" stroke-linejoin="bevel" d="M27.6404 0L0 112.988L25.2009 163.914L172.813 356.622L259.295 356.622L280.381 335.497L319.761 356.622L381.889 247.189L343.211 222.206L343.211 166.183L181.81 14.5908Z"/><path id="shape05" transform="matrix(0.984648017886732 0.174551824196964 -0.174551836613379 0.984647947845654 1184.58957148268 2621.95882980746)" fill="#140b06" fill-rule="evenodd" stroke="#140b06" stroke-width="4.3344" stroke-linecap="square" stroke-linejoin="bevel" d="M20.177 63.7478L147.639 93.0867L113.972 47.3301L170.377 0L170.377 0L190.256 50.9844L272.022 103.331L338.151 121.03L363.431 159.905L373.776 162.523L372.584 181.136C286.513 196.318 218.866 196.397 169.641 181.374L147.639 172.641L147.639 185.806L46.8143 185.229L9.74744 174.345L9.74744 174.345L4.47594 150.488L4.47594 150.488L11.0588 149.648L11.0588 149.648L0 115.379L15.229 59.9187Z"/><path id="shape06" transform="matrix(0.981366876077098 0.192143159462014 -0.192143170939444 0.981366903656315 1274.51400789229 1620.64026553757)" fill="#8c480b" fill-rule="evenodd" stroke="#8c480b" stroke-width="5.0904" stroke-linecap="square" stroke-linejoin="bevel" d="M87.4147 121.302L40.5896 213.099L0 390.978L27.917 706.756L27.917 706.756L21.7839 810.894L40.0439 884.927L45.9041 942.3L45.9041 942.3L35.444 963.03L73.4305 972.597L119.598 973.087L286.048 846.21L286.048 846.21L304.2 862.572L304.2 862.572L278.928 653.36L278.928 653.36L245.263 422.971L277.426 235.276L249.988 104.553C153.985 -40.8483 191.617 -16.0518 183.751 66.7098Z"/><path id="shape07" transform="matrix(0.887429965152006 -0.460942609786346 0.460942642574631 0.887429902026351 1028.03146032337 861.870606720884)" fill="#8c480b" fill-rule="evenodd" stroke="#8c480b" stroke-width="54.9792" stroke-linecap="square" stroke-linejoin="bevel" d="M111.398 0L318.672 34.6683C343.098 79.8157 362.131 122.097 357.183 151.63L308.037 288.28L269.471 545.503L198.297 830.433L142.738 895.98L142.738 895.98L10.9929 816.298L18.2903 623.421L25.9043 311.568C23.1267 267.52 13.648 244.351 0 187.463C7.02056 87.7861 55.6689 39.5208 111.398 0Z"/><path id="shape08" transform="matrix(1.00000003139669 0 0 0.999999960263572 616.732790843258 2711.91925070339)" fill="#09282d" fill-rule="evenodd" stroke="#09282d" stroke-width="4.3344" stroke-linecap="square" stroke-linejoin="bevel" d="M20.177 63.7478L147.639 93.0867L113.972 47.3301L170.377 0L170.377 0L190.256 50.9844L272.022 103.331L338.151 121.03L363.431 159.905L373.776 162.523L372.584 181.136C286.513 196.318 218.866 196.397 169.641 181.374L147.639 172.641L147.639 185.806L46.8143 185.229L9.74744 174.345L9.74744 174.345L4.47594 150.488L4.47594 150.488L11.0588 149.648L11.0588 149.648L0 115.379L15.229 59.9187Z"/><path id="shape09" transform="matrix(1.00000003139669 0 0 0.999999960263572 608.103138411043 734.08450583956)" fill="#af6740" fill-rule="evenodd" stroke="#af6740" stroke-width="54.9792" stroke-linecap="square" stroke-linejoin="bevel" d="M111.398 0L318.672 34.6683C343.098 79.8157 362.131 122.097 357.183 151.63L308.037 288.28L269.471 545.503L198.297 830.433L142.738 895.98L142.738 895.98L10.9929 816.298L18.2903 623.421L25.9043 311.568C23.1267 267.52 13.648 244.351 0 187.463C7.02056 87.7861 55.6689 39.5208 111.398 0Z"/><path id="shape010" transform="matrix(0.999941242517489 -0.0108393828234273 0.0108394059055247 0.999941227639341 562.13352430463 1706.5475201391)" fill="#af6740" fill-rule="evenodd" stroke="#af6740" stroke-width="5.0904" stroke-linecap="square" stroke-linejoin="bevel" d="M87.4147 121.302L40.5896 213.099L0 390.978L27.917 706.756L27.917 706.756L21.7839 810.894L40.0439 884.927L45.9041 942.3L45.9041 942.3L35.444 963.03L73.4305 972.597L119.598 973.087L286.048 846.21L286.048 846.21L304.2 862.572L304.2 862.572L278.928 653.36L278.928 653.36L245.263 422.971L277.426 235.276L249.988 104.553C153.985 -40.8483 191.617 -16.0518 183.751 66.7098Z"/><path id="shape011" transform="matrix(1.00000003139669 0 0 0.999999960263572 100.014012058383 598.005836008543)" fill="#af6740" fill-rule="evenodd" stroke="#af6740" stroke-width="5.0904" stroke-linecap="square" stroke-linejoin="bevel" d="M25.7233 62.1738L63.378 9.75264C223.466 -22.0434 225.124 33.0844 305.997 44.7502C318.701 82.8594 335.473 122.746 333.312 154.362L333.312 154.362C335.282 189.062 332.444 208.045 329.927 228.077L318.306 282.031C306.186 299.415 298.561 322.839 278.99 330.213L175.47 308.186L48.6086 225.367C19.1607 211.176 13.9471 176.187 0 150.024C14.628 112.032 -13.7902 159.423 25.7233 62.1738Z"/><path id="shape12" transform="matrix(1.00000003139669 0 0 0.999999960263572 116.267618938145 641.410199749979)" fill="#46767e" fill-rule="evenodd" stroke="#46767e" stroke-width="5.0904" stroke-linecap="square" stroke-linejoin="bevel" d="M1.43807 30.7216L16.3183 37.9934C145.04 95.0117 255.582 138.723 308.484 140.241L324.079 135.107C327.496 126.445 328.836 117.209 324.025 106.271L324.025 106.271L9.93788 0C4.39229 9.29006 0.0250443 19.0948 0 30.7962Z"/><path id="shape21" transform="matrix(1.00000003139669 0 0 0.999999960263572 149.647068018243 661.973147584151)" fill="#af6740" fill-rule="evenodd" stroke="#af6740" stroke-width="5.0904" stroke-linecap="square" stroke-linejoin="bevel" d="M0 31.8394L4.46589 0L17.8962 3.38169L17.8962 3.38169L10.9072 45.548L0.527518 42.008Z"/><path id="shape31" transform="matrix(1.00000003139669 0 0 0.999999960263572 242.073853346009 689.566312441037)" fill="#af6740" fill-rule="evenodd" stroke="#af6740" stroke-width="5.0904" stroke-linecap="square" stroke-linejoin="bevel" d="M13.0545 60.5107L13.0545 60.5107L25.2447 3.64278L12.0783 0L0 59.025Z"/><path id="shape4" transform="matrix(1.00000003139669 0 0 0.999999960263572 351.495473151244 720.529922305044)" fill="#af6740" fill-rule="evenodd" stroke="#af6740" stroke-width="5.0904" stroke-linecap="square" stroke-linejoin="bevel" d="M7.14272 65.2725L7.14272 65.2725L14.5711 0L6.05462 2.60471L0 52.6656Z"/><path id="shape012" transform="matrix(1.00000003139669 0 0 0.999999960263572 50.6987527604279 26.0279028069216)" fill="#140b06" fill-rule="evenodd" stroke="#140b06" stroke-width="2.0376" stroke-linecap="square" stroke-linejoin="bevel" d="M54.3433 0C92.111 2.29582 128.354 17.7385 168.181 2.27626C243.664 25.7333 228.208 10.577 238.396 6.30925L238.396 6.30925L246.226 31.0184L225.228 64.8622L225.228 64.8622L236.973 101.926L231.346 112.772L346.42 275.703L415.871 566.383L446.089 647.442L413.635 716.638L353.167 740.33L63.8252 628.09L71.3665 580.383L0 326.564L0.185406 158.524L47.2408 64.526C42.163 39.5373 47.1968 19.2749 54.3433 0Z"/><path id="shape013" transform="matrix(0.997223565953401 -0.0744662441087175 0.0744662494057336 0.997223495017785 194.833244109397 2221.36952714666)" fill="#be9e84" fill-rule="evenodd" stroke="#be9e84" stroke-width="7.2" stroke-linecap="square" stroke-linejoin="bevel" d="M67.8653 115.094L67.8653 115.094L124.684 154.874L208.179 164.715L208.179 109.228L208.179 109.228L149.692 70.7797L208.179 71.8412L208.179 57.0699L146.364 42.1727L111.369 40.4456L60.2726 0L0 30.2084L0 30.2084Z"/><path id="shape014" transform="matrix(1.00000003139669 0 0 0.999999960263572 104.857832781008 936.9581878991)" fill="#140b06" fill-rule="evenodd" stroke="#140b06" stroke-width="2.0376" stroke-linecap="square" stroke-linejoin="bevel" d="M248.462 0L248.462 0L161.37 68.3828L0 445.8L2.40664 467.696L2.49184 553.771L40.4539 573.464L40.4539 573.464L217.739 503.691L217.739 503.691L302.949 286.358L364.582 168.76L364.582 168.76L364.582 49.333Z"/><path id="shape015" transform="matrix(1.00000003139669 0 0 0.999999960263572 152.149059199066 1653.61778545696)" fill="#140b06" fill-rule="evenodd" stroke="#140b06" stroke-width="2.0376" stroke-linecap="square" stroke-linejoin="bevel" d="M27.6404 0L0 112.988L25.2009 163.914L172.813 356.622L259.295 356.622L280.381 335.497L319.761 356.622L381.889 247.189L343.211 222.206L343.211 166.183L181.81 14.5908Z"/>
</svg>
